<?xml version="1.0" encoding="UTF-8" standalone="no"?>
<!DOCTYPE svg PUBLIC "-//W3C//DTD SVG 1.1//EN"
 "http://www.w3.org/Graphics/SVG/1.1/DTD/svg11.dtd">
<!-- Generated by graphviz version 2.36.0 (20140111.2315)
 -->
<!-- Title: controllers_diagram Pages: 1 -->
<svg width="709pt" height="882pt"
 viewBox="0.00 0.00 709.00 882.00" xmlns="http://www.w3.org/2000/svg" xmlns:xlink="http://www.w3.org/1999/xlink">
<g id="graph0" class="graph" transform="scale(1 1) rotate(0) translate(4 878)">
<title>controllers_diagram</title>
<polygon fill="white" stroke="none" points="-4,4 -4,-878 705,-878 705,4 -4,4"/>
<!-- _diagram_info -->
<g id="node1" class="node"><title>_diagram_info</title>
<text text-anchor="start" x="296" y="-207.6" font-family="Times,serif" font-size="13.00">Controllers diagram</text>
<text text-anchor="start" x="296" y="-193.6" font-family="Times,serif" font-size="13.00">Date: May 11 2015 &#45; 14:23</text>
<text text-anchor="start" x="296" y="-179.6" font-family="Times,serif" font-size="13.00">Migration version: 20150506191847</text>
<text text-anchor="start" x="296" y="-165.6" font-family="Times,serif" font-size="13.00">Generated by RailRoady 1.3.0</text>
<text text-anchor="start" x="296" y="-151.6" font-family="Times,serif" font-size="13.00">http://railroady.prestonlee.com</text>
</g>
<!-- HomeController -->
<g id="node2" class="node"><title>HomeController</title>
<path fill="none" stroke="black" d="M156,-108.5C156,-108.5 238,-108.5 238,-108.5 244,-108.5 250,-114.5 250,-120.5 250,-120.5 250,-204.5 250,-204.5 250,-210.5 244,-216.5 238,-216.5 238,-216.5 156,-216.5 156,-216.5 150,-216.5 144,-210.5 144,-204.5 144,-204.5 144,-120.5 144,-120.5 144,-114.5 150,-108.5 156,-108.5"/>
<text text-anchor="middle" x="197" y="-201.3" font-family="Times,serif" font-size="14.00">HomeController</text>
<polyline fill="none" stroke="black" points="144,-193.5 250,-193.5 "/>
<text text-anchor="start" x="152" y="-178.3" font-family="Times,serif" font-size="14.00">autocomplete</text>
<text text-anchor="start" x="152" y="-163.3" font-family="Times,serif" font-size="14.00">index</text>
<polyline fill="none" stroke="black" points="144,-155.5 250,-155.5 "/>
<polyline fill="none" stroke="black" points="144,-131.5 250,-131.5 "/>
<text text-anchor="start" x="152" y="-116.3" font-family="Times,serif" font-size="14.00">_layout</text>
</g>
<!-- ApplicationController -->
<g id="node3" class="node"><title>ApplicationController</title>
<path fill="none" stroke="black" d="M300,-0.5C300,-0.5 412,-0.5 412,-0.5 418,-0.5 424,-6.5 424,-12.5 424,-12.5 424,-96.5 424,-96.5 424,-102.5 418,-108.5 412,-108.5 412,-108.5 300,-108.5 300,-108.5 294,-108.5 288,-102.5 288,-96.5 288,-96.5 288,-12.5 288,-12.5 288,-6.5 294,-0.5 300,-0.5"/>
<text text-anchor="middle" x="356" y="-93.3" font-family="Times,serif" font-size="14.00">ApplicationController</text>
<polyline fill="none" stroke="black" points="288,-85.5 424,-85.5 "/>
<polyline fill="none" stroke="black" points="288,-61.5 424,-61.5 "/>
<text text-anchor="start" x="296" y="-46.3" font-family="Times,serif" font-size="14.00">not_found</text>
<polyline fill="none" stroke="black" points="288,-38.5 424,-38.5 "/>
<text text-anchor="start" x="296" y="-23.3" font-family="Times,serif" font-size="14.00">_layout</text>
<text text-anchor="start" x="296" y="-8.3" font-family="Times,serif" font-size="14.00">user_not_authorized</text>
</g>
<!-- PrizesController -->
<g id="node4" class="node"><title>PrizesController</title>
<path fill="none" stroke="black" d="M606,-342.5C606,-342.5 687,-342.5 687,-342.5 693,-342.5 699,-348.5 699,-354.5 699,-354.5 699,-543.5 699,-543.5 699,-549.5 693,-555.5 687,-555.5 687,-555.5 606,-555.5 606,-555.5 600,-555.5 594,-549.5 594,-543.5 594,-543.5 594,-354.5 594,-354.5 594,-348.5 600,-342.5 606,-342.5"/>
<text text-anchor="middle" x="646.5" y="-540.3" font-family="Times,serif" font-size="14.00">PrizesController</text>
<polyline fill="none" stroke="black" points="594,-532.5 699,-532.5 "/>
<text text-anchor="start" x="602" y="-517.3" font-family="Times,serif" font-size="14.00">create</text>
<text text-anchor="start" x="602" y="-502.3" font-family="Times,serif" font-size="14.00">destroy</text>
<text text-anchor="start" x="602" y="-487.3" font-family="Times,serif" font-size="14.00">edit</text>
<text text-anchor="start" x="602" y="-472.3" font-family="Times,serif" font-size="14.00">index</text>
<text text-anchor="start" x="602" y="-457.3" font-family="Times,serif" font-size="14.00">new</text>
<text text-anchor="start" x="602" y="-442.3" font-family="Times,serif" font-size="14.00">show</text>
<text text-anchor="start" x="602" y="-427.3" font-family="Times,serif" font-size="14.00">update</text>
<polyline fill="none" stroke="black" points="594,-419.5 699,-419.5 "/>
<polyline fill="none" stroke="black" points="594,-395.5 699,-395.5 "/>
<text text-anchor="start" x="602" y="-380.3" font-family="Times,serif" font-size="14.00">_layout</text>
<text text-anchor="start" x="602" y="-365.3" font-family="Times,serif" font-size="14.00">prize_params</text>
<text text-anchor="start" x="602" y="-350.3" font-family="Times,serif" font-size="14.00">set_prize</text>
</g>
<!-- ProfilesController -->
<g id="node5" class="node"><title>ProfilesController</title>
<path fill="none" stroke="black" d="M210,-252.5C210,-252.5 340,-252.5 340,-252.5 346,-252.5 352,-258.5 352,-264.5 352,-264.5 352,-423.5 352,-423.5 352,-429.5 346,-435.5 340,-435.5 340,-435.5 210,-435.5 210,-435.5 204,-435.5 198,-429.5 198,-423.5 198,-423.5 198,-264.5 198,-264.5 198,-258.5 204,-252.5 210,-252.5"/>
<text text-anchor="middle" x="275" y="-420.3" font-family="Times,serif" font-size="14.00">ProfilesController</text>
<polyline fill="none" stroke="black" points="198,-412.5 352,-412.5 "/>
<text text-anchor="start" x="206" y="-397.3" font-family="Times,serif" font-size="14.00">edit</text>
<text text-anchor="start" x="206" y="-382.3" font-family="Times,serif" font-size="14.00">show</text>
<text text-anchor="start" x="206" y="-367.3" font-family="Times,serif" font-size="14.00">update</text>
<polyline fill="none" stroke="black" points="198,-359.5 352,-359.5 "/>
<polyline fill="none" stroke="black" points="198,-335.5 352,-335.5 "/>
<text text-anchor="start" x="206" y="-320.3" font-family="Times,serif" font-size="14.00">_layout</text>
<text text-anchor="start" x="206" y="-305.3" font-family="Times,serif" font-size="14.00">profile_params</text>
<text text-anchor="start" x="206" y="-290.3" font-family="Times,serif" font-size="14.00">set_current_users_profile</text>
<text text-anchor="start" x="206" y="-275.3" font-family="Times,serif" font-size="14.00">set_enums</text>
<text text-anchor="start" x="206" y="-260.3" font-family="Times,serif" font-size="14.00">set_public_profile</text>
</g>
<!-- PlacesController -->
<g id="node6" class="node"><title>PlacesController</title>
<path fill="none" stroke="black" d="M606,-594.5C606,-594.5 689,-594.5 689,-594.5 695,-594.5 701,-600.5 701,-606.5 701,-606.5 701,-795.5 701,-795.5 701,-801.5 695,-807.5 689,-807.5 689,-807.5 606,-807.5 606,-807.5 600,-807.5 594,-801.5 594,-795.5 594,-795.5 594,-606.5 594,-606.5 594,-600.5 600,-594.5 606,-594.5"/>
<text text-anchor="middle" x="647.5" y="-792.3" font-family="Times,serif" font-size="14.00">PlacesController</text>
<polyline fill="none" stroke="black" points="594,-784.5 701,-784.5 "/>
<text text-anchor="start" x="602" y="-769.3" font-family="Times,serif" font-size="14.00">create</text>
<text text-anchor="start" x="602" y="-754.3" font-family="Times,serif" font-size="14.00">destroy</text>
<text text-anchor="start" x="602" y="-739.3" font-family="Times,serif" font-size="14.00">edit</text>
<text text-anchor="start" x="602" y="-724.3" font-family="Times,serif" font-size="14.00">index</text>
<text text-anchor="start" x="602" y="-709.3" font-family="Times,serif" font-size="14.00">show</text>
<text text-anchor="start" x="602" y="-694.3" font-family="Times,serif" font-size="14.00">update</text>
<polyline fill="none" stroke="black" points="594,-686.5 701,-686.5 "/>
<polyline fill="none" stroke="black" points="594,-662.5 701,-662.5 "/>
<text text-anchor="start" x="602" y="-647.3" font-family="Times,serif" font-size="14.00">_layout</text>
<text text-anchor="start" x="602" y="-632.3" font-family="Times,serif" font-size="14.00">load_placeable</text>
<text text-anchor="start" x="602" y="-617.3" font-family="Times,serif" font-size="14.00">place_params</text>
<text text-anchor="start" x="602" y="-602.3" font-family="Times,serif" font-size="14.00">set_place</text>
</g>
<!-- BooksController -->
<g id="node7" class="node"><title>BooksController</title>
<path fill="none" stroke="black" d="M66,-324.5C66,-324.5 149,-324.5 149,-324.5 155,-324.5 161,-330.5 161,-336.5 161,-336.5 161,-540.5 161,-540.5 161,-546.5 155,-552.5 149,-552.5 149,-552.5 66,-552.5 66,-552.5 60,-552.5 54,-546.5 54,-540.5 54,-540.5 54,-336.5 54,-336.5 54,-330.5 60,-324.5 66,-324.5"/>
<text text-anchor="middle" x="107.5" y="-537.3" font-family="Times,serif" font-size="14.00">BooksController</text>
<polyline fill="none" stroke="black" points="54,-529.5 161,-529.5 "/>
<text text-anchor="start" x="62" y="-514.3" font-family="Times,serif" font-size="14.00">create</text>
<text text-anchor="start" x="62" y="-499.3" font-family="Times,serif" font-size="14.00">destroy</text>
<text text-anchor="start" x="62" y="-484.3" font-family="Times,serif" font-size="14.00">edit</text>
<text text-anchor="start" x="62" y="-469.3" font-family="Times,serif" font-size="14.00">index</text>
<text text-anchor="start" x="62" y="-454.3" font-family="Times,serif" font-size="14.00">new</text>
<text text-anchor="start" x="62" y="-439.3" font-family="Times,serif" font-size="14.00">show</text>
<text text-anchor="start" x="62" y="-424.3" font-family="Times,serif" font-size="14.00">update</text>
<polyline fill="none" stroke="black" points="54,-416.5 161,-416.5 "/>
<polyline fill="none" stroke="black" points="54,-392.5 161,-392.5 "/>
<text text-anchor="start" x="62" y="-377.3" font-family="Times,serif" font-size="14.00">_layout</text>
<text text-anchor="start" x="62" y="-362.3" font-family="Times,serif" font-size="14.00">book_params</text>
<text text-anchor="start" x="62" y="-347.3" font-family="Times,serif" font-size="14.00">set_book</text>
<text text-anchor="start" x="62" y="-332.3" font-family="Times,serif" font-size="14.00">set_enums</text>
</g>
<!-- ImportController -->
<g id="node8" class="node"><title>ImportController</title>
<path fill="none" stroke="black" d="M300,-720.5C300,-720.5 409,-720.5 409,-720.5 415,-720.5 421,-726.5 421,-732.5 421,-732.5 421,-861.5 421,-861.5 421,-867.5 415,-873.5 409,-873.5 409,-873.5 300,-873.5 300,-873.5 294,-873.5 288,-867.5 288,-861.5 288,-861.5 288,-732.5 288,-732.5 288,-726.5 294,-720.5 300,-720.5"/>
<text text-anchor="middle" x="354.5" y="-858.3" font-family="Times,serif" font-size="14.00">ImportController</text>
<polyline fill="none" stroke="black" points="288,-850.5 421,-850.5 "/>
<text text-anchor="start" x="296" y="-835.3" font-family="Times,serif" font-size="14.00">import_from_file</text>
<text text-anchor="start" x="296" y="-820.3" font-family="Times,serif" font-size="14.00">import_from_storage</text>
<text text-anchor="start" x="296" y="-805.3" font-family="Times,serif" font-size="14.00">import_from_text</text>
<text text-anchor="start" x="296" y="-790.3" font-family="Times,serif" font-size="14.00">import_from_url</text>
<text text-anchor="start" x="296" y="-775.3" font-family="Times,serif" font-size="14.00">index</text>
<polyline fill="none" stroke="black" points="288,-767.5 421,-767.5 "/>
<polyline fill="none" stroke="black" points="288,-743.5 421,-743.5 "/>
<text text-anchor="start" x="296" y="-728.3" font-family="Times,serif" font-size="14.00">_layout</text>
</g>
<!-- PublishersController -->
<g id="node9" class="node"><title>PublishersController</title>
<path fill="none" stroke="black" d="M408,-252.5C408,-252.5 512,-252.5 512,-252.5 518,-252.5 524,-258.5 524,-264.5 524,-264.5 524,-468.5 524,-468.5 524,-474.5 518,-480.5 512,-480.5 512,-480.5 408,-480.5 408,-480.5 402,-480.5 396,-474.5 396,-468.5 396,-468.5 396,-264.5 396,-264.5 396,-258.5 402,-252.5 408,-252.5"/>
<text text-anchor="middle" x="460" y="-465.3" font-family="Times,serif" font-size="14.00">PublishersController</text>
<polyline fill="none" stroke="black" points="396,-457.5 524,-457.5 "/>
<text text-anchor="start" x="404" y="-442.3" font-family="Times,serif" font-size="14.00">create</text>
<text text-anchor="start" x="404" y="-427.3" font-family="Times,serif" font-size="14.00">destroy</text>
<text text-anchor="start" x="404" y="-412.3" font-family="Times,serif" font-size="14.00">edit</text>
<text text-anchor="start" x="404" y="-397.3" font-family="Times,serif" font-size="14.00">index</text>
<text text-anchor="start" x="404" y="-382.3" font-family="Times,serif" font-size="14.00">new</text>
<text text-anchor="start" x="404" y="-367.3" font-family="Times,serif" font-size="14.00">search</text>
<text text-anchor="start" x="404" y="-352.3" font-family="Times,serif" font-size="14.00">show</text>
<text text-anchor="start" x="404" y="-337.3" font-family="Times,serif" font-size="14.00">update</text>
<polyline fill="none" stroke="black" points="396,-329.5 524,-329.5 "/>
<polyline fill="none" stroke="black" points="396,-305.5 524,-305.5 "/>
<text text-anchor="start" x="404" y="-290.3" font-family="Times,serif" font-size="14.00">_layout</text>
<text text-anchor="start" x="404" y="-275.3" font-family="Times,serif" font-size="14.00">publisher_params</text>
<text text-anchor="start" x="404" y="-260.3" font-family="Times,serif" font-size="14.00">set_publisher</text>
</g>
<!-- CategoriesController -->
<g id="node10" class="node"><title>CategoriesController</title>
<path fill="none" stroke="black" d="M246,-468.5C246,-468.5 352,-468.5 352,-468.5 358,-468.5 364,-474.5 364,-480.5 364,-480.5 364,-669.5 364,-669.5 364,-675.5 358,-681.5 352,-681.5 352,-681.5 246,-681.5 246,-681.5 240,-681.5 234,-675.5 234,-669.5 234,-669.5 234,-480.5 234,-480.5 234,-474.5 240,-468.5 246,-468.5"/>
<text text-anchor="middle" x="299" y="-666.3" font-family="Times,serif" font-size="14.00">CategoriesController</text>
<polyline fill="none" stroke="black" points="234,-658.5 364,-658.5 "/>
<text text-anchor="start" x="242" y="-643.3" font-family="Times,serif" font-size="14.00">create</text>
<text text-anchor="start" x="242" y="-628.3" font-family="Times,serif" font-size="14.00">destroy</text>
<text text-anchor="start" x="242" y="-613.3" font-family="Times,serif" font-size="14.00">edit</text>
<text text-anchor="start" x="242" y="-598.3" font-family="Times,serif" font-size="14.00">index</text>
<text text-anchor="start" x="242" y="-583.3" font-family="Times,serif" font-size="14.00">new</text>
<text text-anchor="start" x="242" y="-568.3" font-family="Times,serif" font-size="14.00">show</text>
<text text-anchor="start" x="242" y="-553.3" font-family="Times,serif" font-size="14.00">update</text>
<polyline fill="none" stroke="black" points="234,-545.5 364,-545.5 "/>
<polyline fill="none" stroke="black" points="234,-521.5 364,-521.5 "/>
<text text-anchor="start" x="242" y="-506.3" font-family="Times,serif" font-size="14.00">_layout</text>
<text text-anchor="start" x="242" y="-491.3" font-family="Times,serif" font-size="14.00">category_params</text>
<text text-anchor="start" x="242" y="-476.3" font-family="Times,serif" font-size="14.00">set_category</text>
</g>
<!-- ShelvesController -->
<g id="node11" class="node"><title>ShelvesController</title>
<path fill="none" stroke="black" d="M462,-522.5C462,-522.5 552,-522.5 552,-522.5 558,-522.5 564,-528.5 564,-534.5 564,-534.5 564,-738.5 564,-738.5 564,-744.5 558,-750.5 552,-750.5 552,-750.5 462,-750.5 462,-750.5 456,-750.5 450,-744.5 450,-738.5 450,-738.5 450,-534.5 450,-534.5 450,-528.5 456,-522.5 462,-522.5"/>
<text text-anchor="middle" x="507" y="-735.3" font-family="Times,serif" font-size="14.00">ShelvesController</text>
<polyline fill="none" stroke="black" points="450,-727.5 564,-727.5 "/>
<text text-anchor="start" x="458" y="-712.3" font-family="Times,serif" font-size="14.00">create</text>
<text text-anchor="start" x="458" y="-697.3" font-family="Times,serif" font-size="14.00">destroy</text>
<text text-anchor="start" x="458" y="-682.3" font-family="Times,serif" font-size="14.00">edit</text>
<text text-anchor="start" x="458" y="-667.3" font-family="Times,serif" font-size="14.00">index</text>
<text text-anchor="start" x="458" y="-652.3" font-family="Times,serif" font-size="14.00">new</text>
<text text-anchor="start" x="458" y="-637.3" font-family="Times,serif" font-size="14.00">show</text>
<text text-anchor="start" x="458" y="-622.3" font-family="Times,serif" font-size="14.00">update</text>
<polyline fill="none" stroke="black" points="450,-614.5 564,-614.5 "/>
<polyline fill="none" stroke="black" points="450,-590.5 564,-590.5 "/>
<text text-anchor="start" x="458" y="-575.3" font-family="Times,serif" font-size="14.00">_layout</text>
<text text-anchor="start" x="458" y="-560.3" font-family="Times,serif" font-size="14.00">set_enum</text>
<text text-anchor="start" x="458" y="-545.3" font-family="Times,serif" font-size="14.00">set_shelf</text>
<text text-anchor="start" x="458" y="-530.3" font-family="Times,serif" font-size="14.00">shelf_params</text>
</g>
<!-- AwardsController -->
<g id="node12" class="node"><title>AwardsController</title>
<path fill="none" stroke="black" d="M570,-90.5C570,-90.5 660,-90.5 660,-90.5 666,-90.5 672,-96.5 672,-102.5 672,-102.5 672,-291.5 672,-291.5 672,-297.5 666,-303.5 660,-303.5 660,-303.5 570,-303.5 570,-303.5 564,-303.5 558,-297.5 558,-291.5 558,-291.5 558,-102.5 558,-102.5 558,-96.5 564,-90.5 570,-90.5"/>
<text text-anchor="middle" x="615" y="-288.3" font-family="Times,serif" font-size="14.00">AwardsController</text>
<polyline fill="none" stroke="black" points="558,-280.5 672,-280.5 "/>
<text text-anchor="start" x="566" y="-265.3" font-family="Times,serif" font-size="14.00">create</text>
<text text-anchor="start" x="566" y="-250.3" font-family="Times,serif" font-size="14.00">destroy</text>
<text text-anchor="start" x="566" y="-235.3" font-family="Times,serif" font-size="14.00">edit</text>
<text text-anchor="start" x="566" y="-220.3" font-family="Times,serif" font-size="14.00">index</text>
<text text-anchor="start" x="566" y="-205.3" font-family="Times,serif" font-size="14.00">show</text>
<text text-anchor="start" x="566" y="-190.3" font-family="Times,serif" font-size="14.00">update</text>
<polyline fill="none" stroke="black" points="558,-182.5 672,-182.5 "/>
<polyline fill="none" stroke="black" points="558,-158.5 672,-158.5 "/>
<text text-anchor="start" x="566" y="-143.3" font-family="Times,serif" font-size="14.00">_layout</text>
<text text-anchor="start" x="566" y="-128.3" font-family="Times,serif" font-size="14.00">award_params</text>
<text text-anchor="start" x="566" y="-113.3" font-family="Times,serif" font-size="14.00">load_awardable</text>
<text text-anchor="start" x="566" y="-98.3" font-family="Times,serif" font-size="14.00">set_award</text>
</g>
<!-- AuthorsController -->
<g id="node13" class="node"><title>AuthorsController</title>
<path fill="none" stroke="black" d="M12,-72.5C12,-72.5 104,-72.5 104,-72.5 110,-72.5 116,-78.5 116,-84.5 116,-84.5 116,-273.5 116,-273.5 116,-279.5 110,-285.5 104,-285.5 104,-285.5 12,-285.5 12,-285.5 6,-285.5 0,-279.5 0,-273.5 0,-273.5 0,-84.5 0,-84.5 0,-78.5 6,-72.5 12,-72.5"/>
<text text-anchor="middle" x="58" y="-270.3" font-family="Times,serif" font-size="14.00">AuthorsController</text>
<polyline fill="none" stroke="black" points="0,-262.5 116,-262.5 "/>
<text text-anchor="start" x="8" y="-247.3" font-family="Times,serif" font-size="14.00">create</text>
<text text-anchor="start" x="8" y="-232.3" font-family="Times,serif" font-size="14.00">destroy</text>
<text text-anchor="start" x="8" y="-217.3" font-family="Times,serif" font-size="14.00">edit</text>
<text text-anchor="start" x="8" y="-202.3" font-family="Times,serif" font-size="14.00">index</text>
<text text-anchor="start" x="8" y="-187.3" font-family="Times,serif" font-size="14.00">new</text>
<text text-anchor="start" x="8" y="-172.3" font-family="Times,serif" font-size="14.00">show</text>
<text text-anchor="start" x="8" y="-157.3" font-family="Times,serif" font-size="14.00">update</text>
<polyline fill="none" stroke="black" points="0,-149.5 116,-149.5 "/>
<polyline fill="none" stroke="black" points="0,-125.5 116,-125.5 "/>
<text text-anchor="start" x="8" y="-110.3" font-family="Times,serif" font-size="14.00">_layout</text>
<text text-anchor="start" x="8" y="-95.3" font-family="Times,serif" font-size="14.00">author_params</text>
<text text-anchor="start" x="8" y="-80.3" font-family="Times,serif" font-size="14.00">set_author</text>
</g>
<!-- ContributionsController -->
<g id="node14" class="node"><title>ContributionsController</title>
<path fill="none" stroke="black" d="M66,-594.5C66,-594.5 188,-594.5 188,-594.5 194,-594.5 200,-600.5 200,-606.5 200,-606.5 200,-795.5 200,-795.5 200,-801.5 194,-807.5 188,-807.5 188,-807.5 66,-807.5 66,-807.5 60,-807.5 54,-801.5 54,-795.5 54,-795.5 54,-606.5 54,-606.5 54,-600.5 60,-594.5 66,-594.5"/>
<text text-anchor="middle" x="127" y="-792.3" font-family="Times,serif" font-size="14.00">ContributionsController</text>
<polyline fill="none" stroke="black" points="54,-784.5 200,-784.5 "/>
<text text-anchor="start" x="62" y="-769.3" font-family="Times,serif" font-size="14.00">create</text>
<text text-anchor="start" x="62" y="-754.3" font-family="Times,serif" font-size="14.00">destroy</text>
<text text-anchor="start" x="62" y="-739.3" font-family="Times,serif" font-size="14.00">edit</text>
<text text-anchor="start" x="62" y="-724.3" font-family="Times,serif" font-size="14.00">index</text>
<text text-anchor="start" x="62" y="-709.3" font-family="Times,serif" font-size="14.00">new</text>
<text text-anchor="start" x="62" y="-694.3" font-family="Times,serif" font-size="14.00">show</text>
<text text-anchor="start" x="62" y="-679.3" font-family="Times,serif" font-size="14.00">update</text>
<polyline fill="none" stroke="black" points="54,-671.5 200,-671.5 "/>
<polyline fill="none" stroke="black" points="54,-647.5 200,-647.5 "/>
<text text-anchor="start" x="62" y="-632.3" font-family="Times,serif" font-size="14.00">_layout</text>
<text text-anchor="start" x="62" y="-617.3" font-family="Times,serif" font-size="14.00">contribution_params</text>
<text text-anchor="start" x="62" y="-602.3" font-family="Times,serif" font-size="14.00">set_contribution</text>
</g>
</g>
</svg>
