<?xml version="1.0" encoding="UTF-8" standalone="no"?>
<!DOCTYPE svg PUBLIC "-//W3C//DTD SVG 1.1//EN"
 "http://www.w3.org/Graphics/SVG/1.1/DTD/svg11.dtd">
<!-- Generated by graphviz version 2.36.0 (20140111.2315)
 -->
<!-- Title: controllers_diagram Pages: 1 -->
<svg width="1008pt" height="960pt"
 viewBox="0.00 0.00 1008.00 960.00" xmlns="http://www.w3.org/2000/svg" xmlns:xlink="http://www.w3.org/1999/xlink">
<g id="graph0" class="graph" transform="scale(1 1) rotate(0) translate(4 956)">
<title>controllers_diagram</title>
<polygon fill="white" stroke="none" points="-4,4 -4,-956 1004,-956 1004,4 -4,4"/>
<!-- _diagram_info -->
<g id="node1" class="node"><title>_diagram_info</title>
<text text-anchor="start" x="440" y="-243.6" font-family="Times,serif" font-size="13.00">Controllers diagram</text>
<text text-anchor="start" x="440" y="-229.6" font-family="Times,serif" font-size="13.00">Date: Jun 20 2015 &#45; 15:17</text>
<text text-anchor="start" x="440" y="-215.6" font-family="Times,serif" font-size="13.00">Migration version: 20150619193344</text>
<text text-anchor="start" x="440" y="-201.6" font-family="Times,serif" font-size="13.00">Generated by RailRoady 1.3.0</text>
<text text-anchor="start" x="440" y="-187.6" font-family="Times,serif" font-size="13.00">http://railroady.prestonlee.com</text>
</g>
<!-- HomeController -->
<g id="node2" class="node"><title>HomeController</title>
<path fill="none" stroke="black" d="M12,-306.5C12,-306.5 94,-306.5 94,-306.5 100,-306.5 106,-312.5 106,-318.5 106,-318.5 106,-402.5 106,-402.5 106,-408.5 100,-414.5 94,-414.5 94,-414.5 12,-414.5 12,-414.5 6,-414.5 0,-408.5 0,-402.5 0,-402.5 0,-318.5 0,-318.5 0,-312.5 6,-306.5 12,-306.5"/>
<text text-anchor="middle" x="53" y="-399.3" font-family="Times,serif" font-size="14.00">HomeController</text>
<polyline fill="none" stroke="black" points="0,-391.5 106,-391.5 "/>
<text text-anchor="start" x="8" y="-376.3" font-family="Times,serif" font-size="14.00">autocomplete</text>
<text text-anchor="start" x="8" y="-361.3" font-family="Times,serif" font-size="14.00">index</text>
<polyline fill="none" stroke="black" points="0,-353.5 106,-353.5 "/>
<polyline fill="none" stroke="black" points="0,-329.5 106,-329.5 "/>
<text text-anchor="start" x="8" y="-314.3" font-family="Times,serif" font-size="14.00">_layout</text>
</g>
<!-- ApplicationController -->
<g id="node3" class="node"><title>ApplicationController</title>
<path fill="none" stroke="black" d="M876,-0.5C876,-0.5 988,-0.5 988,-0.5 994,-0.5 1000,-6.5 1000,-12.5 1000,-12.5 1000,-111.5 1000,-111.5 1000,-117.5 994,-123.5 988,-123.5 988,-123.5 876,-123.5 876,-123.5 870,-123.5 864,-117.5 864,-111.5 864,-111.5 864,-12.5 864,-12.5 864,-6.5 870,-0.5 876,-0.5"/>
<text text-anchor="middle" x="932" y="-108.3" font-family="Times,serif" font-size="14.00">ApplicationController</text>
<polyline fill="none" stroke="black" points="864,-100.5 1000,-100.5 "/>
<polyline fill="none" stroke="black" points="864,-76.5 1000,-76.5 "/>
<text text-anchor="start" x="872" y="-61.3" font-family="Times,serif" font-size="14.00">not_found</text>
<text text-anchor="start" x="872" y="-46.3" font-family="Times,serif" font-size="14.00">set_json_format</text>
<polyline fill="none" stroke="black" points="864,-38.5 1000,-38.5 "/>
<text text-anchor="start" x="872" y="-23.3" font-family="Times,serif" font-size="14.00">_layout</text>
<text text-anchor="start" x="872" y="-8.3" font-family="Times,serif" font-size="14.00">user_not_authorized</text>
</g>
<!-- PrizesController -->
<g id="node4" class="node"><title>PrizesController</title>
<path fill="none" stroke="black" d="M768,-414.5C768,-414.5 849,-414.5 849,-414.5 855,-414.5 861,-420.5 861,-426.5 861,-426.5 861,-615.5 861,-615.5 861,-621.5 855,-627.5 849,-627.5 849,-627.5 768,-627.5 768,-627.5 762,-627.5 756,-621.5 756,-615.5 756,-615.5 756,-426.5 756,-426.5 756,-420.5 762,-414.5 768,-414.5"/>
<text text-anchor="middle" x="808.5" y="-612.3" font-family="Times,serif" font-size="14.00">PrizesController</text>
<polyline fill="none" stroke="black" points="756,-604.5 861,-604.5 "/>
<text text-anchor="start" x="764" y="-589.3" font-family="Times,serif" font-size="14.00">create</text>
<text text-anchor="start" x="764" y="-574.3" font-family="Times,serif" font-size="14.00">destroy</text>
<text text-anchor="start" x="764" y="-559.3" font-family="Times,serif" font-size="14.00">edit</text>
<text text-anchor="start" x="764" y="-544.3" font-family="Times,serif" font-size="14.00">index</text>
<text text-anchor="start" x="764" y="-529.3" font-family="Times,serif" font-size="14.00">new</text>
<text text-anchor="start" x="764" y="-514.3" font-family="Times,serif" font-size="14.00">show</text>
<text text-anchor="start" x="764" y="-499.3" font-family="Times,serif" font-size="14.00">update</text>
<polyline fill="none" stroke="black" points="756,-491.5 861,-491.5 "/>
<polyline fill="none" stroke="black" points="756,-467.5 861,-467.5 "/>
<text text-anchor="start" x="764" y="-452.3" font-family="Times,serif" font-size="14.00">_layout</text>
<text text-anchor="start" x="764" y="-437.3" font-family="Times,serif" font-size="14.00">prize_params</text>
<text text-anchor="start" x="764" y="-422.3" font-family="Times,serif" font-size="14.00">set_prize</text>
</g>
<!-- ProfilesController -->
<g id="node5" class="node"><title>ProfilesController</title>
<path fill="none" stroke="black" d="M534,-360.5C534,-360.5 664,-360.5 664,-360.5 670,-360.5 676,-366.5 676,-372.5 676,-372.5 676,-561.5 676,-561.5 676,-567.5 670,-573.5 664,-573.5 664,-573.5 534,-573.5 534,-573.5 528,-573.5 522,-567.5 522,-561.5 522,-561.5 522,-372.5 522,-372.5 522,-366.5 528,-360.5 534,-360.5"/>
<text text-anchor="middle" x="599" y="-558.3" font-family="Times,serif" font-size="14.00">ProfilesController</text>
<polyline fill="none" stroke="black" points="522,-550.5 676,-550.5 "/>
<text text-anchor="start" x="530" y="-535.3" font-family="Times,serif" font-size="14.00">edit</text>
<text text-anchor="start" x="530" y="-520.3" font-family="Times,serif" font-size="14.00">follow</text>
<text text-anchor="start" x="530" y="-505.3" font-family="Times,serif" font-size="14.00">show</text>
<text text-anchor="start" x="530" y="-490.3" font-family="Times,serif" font-size="14.00">update</text>
<polyline fill="none" stroke="black" points="522,-482.5 676,-482.5 "/>
<polyline fill="none" stroke="black" points="522,-458.5 676,-458.5 "/>
<text text-anchor="start" x="530" y="-443.3" font-family="Times,serif" font-size="14.00">_layout</text>
<text text-anchor="start" x="530" y="-428.3" font-family="Times,serif" font-size="14.00">profile_params</text>
<text text-anchor="start" x="530" y="-413.3" font-family="Times,serif" font-size="14.00">set_current_users_profile</text>
<text text-anchor="start" x="530" y="-398.3" font-family="Times,serif" font-size="14.00">set_enums</text>
<text text-anchor="start" x="530" y="-383.3" font-family="Times,serif" font-size="14.00">set_json_format</text>
<text text-anchor="start" x="530" y="-368.3" font-family="Times,serif" font-size="14.00">set_public_profile</text>
</g>
<!-- PlacesController -->
<g id="node6" class="node"><title>PlacesController</title>
<path fill="none" stroke="black" d="M768,-666.5C768,-666.5 851,-666.5 851,-666.5 857,-666.5 863,-672.5 863,-678.5 863,-678.5 863,-867.5 863,-867.5 863,-873.5 857,-879.5 851,-879.5 851,-879.5 768,-879.5 768,-879.5 762,-879.5 756,-873.5 756,-867.5 756,-867.5 756,-678.5 756,-678.5 756,-672.5 762,-666.5 768,-666.5"/>
<text text-anchor="middle" x="809.5" y="-864.3" font-family="Times,serif" font-size="14.00">PlacesController</text>
<polyline fill="none" stroke="black" points="756,-856.5 863,-856.5 "/>
<text text-anchor="start" x="764" y="-841.3" font-family="Times,serif" font-size="14.00">create</text>
<text text-anchor="start" x="764" y="-826.3" font-family="Times,serif" font-size="14.00">destroy</text>
<text text-anchor="start" x="764" y="-811.3" font-family="Times,serif" font-size="14.00">edit</text>
<text text-anchor="start" x="764" y="-796.3" font-family="Times,serif" font-size="14.00">index</text>
<text text-anchor="start" x="764" y="-781.3" font-family="Times,serif" font-size="14.00">show</text>
<text text-anchor="start" x="764" y="-766.3" font-family="Times,serif" font-size="14.00">update</text>
<polyline fill="none" stroke="black" points="756,-758.5 863,-758.5 "/>
<polyline fill="none" stroke="black" points="756,-734.5 863,-734.5 "/>
<text text-anchor="start" x="764" y="-719.3" font-family="Times,serif" font-size="14.00">_layout</text>
<text text-anchor="start" x="764" y="-704.3" font-family="Times,serif" font-size="14.00">load_placeable</text>
<text text-anchor="start" x="764" y="-689.3" font-family="Times,serif" font-size="14.00">place_params</text>
<text text-anchor="start" x="764" y="-674.3" font-family="Times,serif" font-size="14.00">set_place</text>
</g>
<!-- BooksController -->
<g id="node7" class="node"><title>BooksController</title>
<path fill="none" stroke="black" d="M372,-288.5C372,-288.5 473,-288.5 473,-288.5 479,-288.5 485,-294.5 485,-300.5 485,-300.5 485,-579.5 485,-579.5 485,-585.5 479,-591.5 473,-591.5 473,-591.5 372,-591.5 372,-591.5 366,-591.5 360,-585.5 360,-579.5 360,-579.5 360,-300.5 360,-300.5 360,-294.5 366,-288.5 372,-288.5"/>
<text text-anchor="middle" x="422.5" y="-576.3" font-family="Times,serif" font-size="14.00">BooksController</text>
<polyline fill="none" stroke="black" points="360,-568.5 485,-568.5 "/>
<text text-anchor="start" x="368" y="-553.3" font-family="Times,serif" font-size="14.00">collections</text>
<text text-anchor="start" x="368" y="-538.3" font-family="Times,serif" font-size="14.00">create</text>
<text text-anchor="start" x="368" y="-523.3" font-family="Times,serif" font-size="14.00">destroy</text>
<text text-anchor="start" x="368" y="-508.3" font-family="Times,serif" font-size="14.00">dislike</text>
<text text-anchor="start" x="368" y="-493.3" font-family="Times,serif" font-size="14.00">edit</text>
<text text-anchor="start" x="368" y="-478.3" font-family="Times,serif" font-size="14.00">index</text>
<text text-anchor="start" x="368" y="-463.3" font-family="Times,serif" font-size="14.00">like</text>
<text text-anchor="start" x="368" y="-448.3" font-family="Times,serif" font-size="14.00">manage_collections</text>
<text text-anchor="start" x="368" y="-433.3" font-family="Times,serif" font-size="14.00">my</text>
<text text-anchor="start" x="368" y="-418.3" font-family="Times,serif" font-size="14.00">new</text>
<text text-anchor="start" x="368" y="-403.3" font-family="Times,serif" font-size="14.00">show</text>
<text text-anchor="start" x="368" y="-388.3" font-family="Times,serif" font-size="14.00">update</text>
<polyline fill="none" stroke="black" points="360,-380.5 485,-380.5 "/>
<polyline fill="none" stroke="black" points="360,-356.5 485,-356.5 "/>
<text text-anchor="start" x="368" y="-341.3" font-family="Times,serif" font-size="14.00">_layout</text>
<text text-anchor="start" x="368" y="-326.3" font-family="Times,serif" font-size="14.00">book_params</text>
<text text-anchor="start" x="368" y="-311.3" font-family="Times,serif" font-size="14.00">set_book</text>
<text text-anchor="start" x="368" y="-296.3" font-family="Times,serif" font-size="14.00">set_enums</text>
</g>
<!-- ImportController -->
<g id="node8" class="node"><title>ImportController</title>
<path fill="none" stroke="black" d="M156,-162.5C156,-162.5 265,-162.5 265,-162.5 271,-162.5 277,-168.5 277,-174.5 277,-174.5 277,-303.5 277,-303.5 277,-309.5 271,-315.5 265,-315.5 265,-315.5 156,-315.5 156,-315.5 150,-315.5 144,-309.5 144,-303.5 144,-303.5 144,-174.5 144,-174.5 144,-168.5 150,-162.5 156,-162.5"/>
<text text-anchor="middle" x="210.5" y="-300.3" font-family="Times,serif" font-size="14.00">ImportController</text>
<polyline fill="none" stroke="black" points="144,-292.5 277,-292.5 "/>
<text text-anchor="start" x="152" y="-277.3" font-family="Times,serif" font-size="14.00">import_from_file</text>
<text text-anchor="start" x="152" y="-262.3" font-family="Times,serif" font-size="14.00">import_from_storage</text>
<text text-anchor="start" x="152" y="-247.3" font-family="Times,serif" font-size="14.00">import_from_text</text>
<text text-anchor="start" x="152" y="-232.3" font-family="Times,serif" font-size="14.00">import_from_url</text>
<text text-anchor="start" x="152" y="-217.3" font-family="Times,serif" font-size="14.00">index</text>
<polyline fill="none" stroke="black" points="144,-209.5 277,-209.5 "/>
<polyline fill="none" stroke="black" points="144,-185.5 277,-185.5 "/>
<text text-anchor="start" x="152" y="-170.3" font-family="Times,serif" font-size="14.00">_layout</text>
</g>
<!-- PublishersController -->
<g id="node9" class="node"><title>PublishersController</title>
<path fill="none" stroke="black" d="M444,-630.5C444,-630.5 548,-630.5 548,-630.5 554,-630.5 560,-636.5 560,-642.5 560,-642.5 560,-846.5 560,-846.5 560,-852.5 554,-858.5 548,-858.5 548,-858.5 444,-858.5 444,-858.5 438,-858.5 432,-852.5 432,-846.5 432,-846.5 432,-642.5 432,-642.5 432,-636.5 438,-630.5 444,-630.5"/>
<text text-anchor="middle" x="496" y="-843.3" font-family="Times,serif" font-size="14.00">PublishersController</text>
<polyline fill="none" stroke="black" points="432,-835.5 560,-835.5 "/>
<text text-anchor="start" x="440" y="-820.3" font-family="Times,serif" font-size="14.00">create</text>
<text text-anchor="start" x="440" y="-805.3" font-family="Times,serif" font-size="14.00">destroy</text>
<text text-anchor="start" x="440" y="-790.3" font-family="Times,serif" font-size="14.00">edit</text>
<text text-anchor="start" x="440" y="-775.3" font-family="Times,serif" font-size="14.00">index</text>
<text text-anchor="start" x="440" y="-760.3" font-family="Times,serif" font-size="14.00">new</text>
<text text-anchor="start" x="440" y="-745.3" font-family="Times,serif" font-size="14.00">search</text>
<text text-anchor="start" x="440" y="-730.3" font-family="Times,serif" font-size="14.00">show</text>
<text text-anchor="start" x="440" y="-715.3" font-family="Times,serif" font-size="14.00">update</text>
<polyline fill="none" stroke="black" points="432,-707.5 560,-707.5 "/>
<polyline fill="none" stroke="black" points="432,-683.5 560,-683.5 "/>
<text text-anchor="start" x="440" y="-668.3" font-family="Times,serif" font-size="14.00">_layout</text>
<text text-anchor="start" x="440" y="-653.3" font-family="Times,serif" font-size="14.00">publisher_params</text>
<text text-anchor="start" x="440" y="-638.3" font-family="Times,serif" font-size="14.00">set_publisher</text>
</g>
<!-- CategoriesController -->
<g id="node10" class="node"><title>CategoriesController</title>
<path fill="none" stroke="black" d="M606,-612.5C606,-612.5 712,-612.5 712,-612.5 718,-612.5 724,-618.5 724,-624.5 724,-624.5 724,-828.5 724,-828.5 724,-834.5 718,-840.5 712,-840.5 712,-840.5 606,-840.5 606,-840.5 600,-840.5 594,-834.5 594,-828.5 594,-828.5 594,-624.5 594,-624.5 594,-618.5 600,-612.5 606,-612.5"/>
<text text-anchor="middle" x="659" y="-825.3" font-family="Times,serif" font-size="14.00">CategoriesController</text>
<polyline fill="none" stroke="black" points="594,-817.5 724,-817.5 "/>
<text text-anchor="start" x="602" y="-802.3" font-family="Times,serif" font-size="14.00">create</text>
<text text-anchor="start" x="602" y="-787.3" font-family="Times,serif" font-size="14.00">destroy</text>
<text text-anchor="start" x="602" y="-772.3" font-family="Times,serif" font-size="14.00">edit</text>
<text text-anchor="start" x="602" y="-757.3" font-family="Times,serif" font-size="14.00">favourite</text>
<text text-anchor="start" x="602" y="-742.3" font-family="Times,serif" font-size="14.00">index</text>
<text text-anchor="start" x="602" y="-727.3" font-family="Times,serif" font-size="14.00">new</text>
<text text-anchor="start" x="602" y="-712.3" font-family="Times,serif" font-size="14.00">show</text>
<text text-anchor="start" x="602" y="-697.3" font-family="Times,serif" font-size="14.00">update</text>
<polyline fill="none" stroke="black" points="594,-689.5 724,-689.5 "/>
<polyline fill="none" stroke="black" points="594,-665.5 724,-665.5 "/>
<text text-anchor="start" x="602" y="-650.3" font-family="Times,serif" font-size="14.00">_layout</text>
<text text-anchor="start" x="602" y="-635.3" font-family="Times,serif" font-size="14.00">category_params</text>
<text text-anchor="start" x="602" y="-620.3" font-family="Times,serif" font-size="14.00">set_category</text>
</g>
<!-- ShelvesController -->
<g id="node11" class="node"><title>ShelvesController</title>
<path fill="none" stroke="black" d="M300,-630.5C300,-630.5 390,-630.5 390,-630.5 396,-630.5 402,-636.5 402,-642.5 402,-642.5 402,-846.5 402,-846.5 402,-852.5 396,-858.5 390,-858.5 390,-858.5 300,-858.5 300,-858.5 294,-858.5 288,-852.5 288,-846.5 288,-846.5 288,-642.5 288,-642.5 288,-636.5 294,-630.5 300,-630.5"/>
<text text-anchor="middle" x="345" y="-843.3" font-family="Times,serif" font-size="14.00">ShelvesController</text>
<polyline fill="none" stroke="black" points="288,-835.5 402,-835.5 "/>
<text text-anchor="start" x="296" y="-820.3" font-family="Times,serif" font-size="14.00">create</text>
<text text-anchor="start" x="296" y="-805.3" font-family="Times,serif" font-size="14.00">destroy</text>
<text text-anchor="start" x="296" y="-790.3" font-family="Times,serif" font-size="14.00">edit</text>
<text text-anchor="start" x="296" y="-775.3" font-family="Times,serif" font-size="14.00">index</text>
<text text-anchor="start" x="296" y="-760.3" font-family="Times,serif" font-size="14.00">new</text>
<text text-anchor="start" x="296" y="-745.3" font-family="Times,serif" font-size="14.00">show</text>
<text text-anchor="start" x="296" y="-730.3" font-family="Times,serif" font-size="14.00">update</text>
<polyline fill="none" stroke="black" points="288,-722.5 402,-722.5 "/>
<polyline fill="none" stroke="black" points="288,-698.5 402,-698.5 "/>
<text text-anchor="start" x="296" y="-683.3" font-family="Times,serif" font-size="14.00">_layout</text>
<text text-anchor="start" x="296" y="-668.3" font-family="Times,serif" font-size="14.00">set_enum</text>
<text text-anchor="start" x="296" y="-653.3" font-family="Times,serif" font-size="14.00">set_shelf</text>
<text text-anchor="start" x="296" y="-638.3" font-family="Times,serif" font-size="14.00">shelf_params</text>
</g>
<!-- AwardsController -->
<g id="node12" class="node"><title>AwardsController</title>
<path fill="none" stroke="black" d="M156,-738.5C156,-738.5 246,-738.5 246,-738.5 252,-738.5 258,-744.5 258,-750.5 258,-750.5 258,-939.5 258,-939.5 258,-945.5 252,-951.5 246,-951.5 246,-951.5 156,-951.5 156,-951.5 150,-951.5 144,-945.5 144,-939.5 144,-939.5 144,-750.5 144,-750.5 144,-744.5 150,-738.5 156,-738.5"/>
<text text-anchor="middle" x="201" y="-936.3" font-family="Times,serif" font-size="14.00">AwardsController</text>
<polyline fill="none" stroke="black" points="144,-928.5 258,-928.5 "/>
<text text-anchor="start" x="152" y="-913.3" font-family="Times,serif" font-size="14.00">create</text>
<text text-anchor="start" x="152" y="-898.3" font-family="Times,serif" font-size="14.00">destroy</text>
<text text-anchor="start" x="152" y="-883.3" font-family="Times,serif" font-size="14.00">edit</text>
<text text-anchor="start" x="152" y="-868.3" font-family="Times,serif" font-size="14.00">index</text>
<text text-anchor="start" x="152" y="-853.3" font-family="Times,serif" font-size="14.00">show</text>
<text text-anchor="start" x="152" y="-838.3" font-family="Times,serif" font-size="14.00">update</text>
<polyline fill="none" stroke="black" points="144,-830.5 258,-830.5 "/>
<polyline fill="none" stroke="black" points="144,-806.5 258,-806.5 "/>
<text text-anchor="start" x="152" y="-791.3" font-family="Times,serif" font-size="14.00">_layout</text>
<text text-anchor="start" x="152" y="-776.3" font-family="Times,serif" font-size="14.00">award_params</text>
<text text-anchor="start" x="152" y="-761.3" font-family="Times,serif" font-size="14.00">load_awardable</text>
<text text-anchor="start" x="152" y="-746.3" font-family="Times,serif" font-size="14.00">set_award</text>
</g>
<!-- AuthorsController -->
<g id="node13" class="node"><title>AuthorsController</title>
<path fill="none" stroke="black" d="M228,-360.5C228,-360.5 320,-360.5 320,-360.5 326,-360.5 332,-366.5 332,-372.5 332,-372.5 332,-576.5 332,-576.5 332,-582.5 326,-588.5 320,-588.5 320,-588.5 228,-588.5 228,-588.5 222,-588.5 216,-582.5 216,-576.5 216,-576.5 216,-372.5 216,-372.5 216,-366.5 222,-360.5 228,-360.5"/>
<text text-anchor="middle" x="274" y="-573.3" font-family="Times,serif" font-size="14.00">AuthorsController</text>
<polyline fill="none" stroke="black" points="216,-565.5 332,-565.5 "/>
<text text-anchor="start" x="224" y="-550.3" font-family="Times,serif" font-size="14.00">create</text>
<text text-anchor="start" x="224" y="-535.3" font-family="Times,serif" font-size="14.00">destroy</text>
<text text-anchor="start" x="224" y="-520.3" font-family="Times,serif" font-size="14.00">edit</text>
<text text-anchor="start" x="224" y="-505.3" font-family="Times,serif" font-size="14.00">favourite</text>
<text text-anchor="start" x="224" y="-490.3" font-family="Times,serif" font-size="14.00">index</text>
<text text-anchor="start" x="224" y="-475.3" font-family="Times,serif" font-size="14.00">new</text>
<text text-anchor="start" x="224" y="-460.3" font-family="Times,serif" font-size="14.00">show</text>
<text text-anchor="start" x="224" y="-445.3" font-family="Times,serif" font-size="14.00">update</text>
<polyline fill="none" stroke="black" points="216,-437.5 332,-437.5 "/>
<polyline fill="none" stroke="black" points="216,-413.5 332,-413.5 "/>
<text text-anchor="start" x="224" y="-398.3" font-family="Times,serif" font-size="14.00">_layout</text>
<text text-anchor="start" x="224" y="-383.3" font-family="Times,serif" font-size="14.00">author_params</text>
<text text-anchor="start" x="224" y="-368.3" font-family="Times,serif" font-size="14.00">set_author</text>
</g>
<!-- ContributionsController -->
<g id="node14" class="node"><title>ContributionsController</title>
<path fill="none" stroke="black" d="M732,-162.5C732,-162.5 854,-162.5 854,-162.5 860,-162.5 866,-168.5 866,-174.5 866,-174.5 866,-363.5 866,-363.5 866,-369.5 860,-375.5 854,-375.5 854,-375.5 732,-375.5 732,-375.5 726,-375.5 720,-369.5 720,-363.5 720,-363.5 720,-174.5 720,-174.5 720,-168.5 726,-162.5 732,-162.5"/>
<text text-anchor="middle" x="793" y="-360.3" font-family="Times,serif" font-size="14.00">ContributionsController</text>
<polyline fill="none" stroke="black" points="720,-352.5 866,-352.5 "/>
<text text-anchor="start" x="728" y="-337.3" font-family="Times,serif" font-size="14.00">create</text>
<text text-anchor="start" x="728" y="-322.3" font-family="Times,serif" font-size="14.00">destroy</text>
<text text-anchor="start" x="728" y="-307.3" font-family="Times,serif" font-size="14.00">edit</text>
<text text-anchor="start" x="728" y="-292.3" font-family="Times,serif" font-size="14.00">index</text>
<text text-anchor="start" x="728" y="-277.3" font-family="Times,serif" font-size="14.00">new</text>
<text text-anchor="start" x="728" y="-262.3" font-family="Times,serif" font-size="14.00">show</text>
<text text-anchor="start" x="728" y="-247.3" font-family="Times,serif" font-size="14.00">update</text>
<polyline fill="none" stroke="black" points="720,-239.5 866,-239.5 "/>
<polyline fill="none" stroke="black" points="720,-215.5 866,-215.5 "/>
<text text-anchor="start" x="728" y="-200.3" font-family="Times,serif" font-size="14.00">_layout</text>
<text text-anchor="start" x="728" y="-185.3" font-family="Times,serif" font-size="14.00">contribution_params</text>
<text text-anchor="start" x="728" y="-170.3" font-family="Times,serif" font-size="14.00">set_contribution</text>
</g>
<!-- Api::V1::BooksController -->
<g id="node15" class="node"><title>Api::V1::BooksController</title>
<path fill="none" stroke="black" d="M30,-36.5C30,-36.5 164,-36.5 164,-36.5 170,-36.5 176,-42.5 176,-48.5 176,-48.5 176,-117.5 176,-117.5 176,-123.5 170,-129.5 164,-129.5 164,-129.5 30,-129.5 30,-129.5 24,-129.5 18,-123.5 18,-117.5 18,-117.5 18,-48.5 18,-48.5 18,-42.5 24,-36.5 30,-36.5"/>
<text text-anchor="middle" x="97" y="-114.3" font-family="Times,serif" font-size="14.00">Api::V1::BooksController</text>
<polyline fill="none" stroke="black" points="18,-106.5 176,-106.5 "/>
<text text-anchor="start" x="26" y="-91.3" font-family="Times,serif" font-size="14.00">show</text>
<polyline fill="none" stroke="black" points="18,-83.5 176,-83.5 "/>
<polyline fill="none" stroke="black" points="18,-59.5 176,-59.5 "/>
<text text-anchor="start" x="26" y="-44.3" font-family="Times,serif" font-size="14.00">_layout</text>
</g>
<!-- Api::V1::PublishersController -->
<g id="node16" class="node"><title>Api::V1::PublishersController</title>
<path fill="none" stroke="black" d="M444,-54.5C444,-54.5 600,-54.5 600,-54.5 606,-54.5 612,-60.5 612,-66.5 612,-66.5 612,-135.5 612,-135.5 612,-141.5 606,-147.5 600,-147.5 600,-147.5 444,-147.5 444,-147.5 438,-147.5 432,-141.5 432,-135.5 432,-135.5 432,-66.5 432,-66.5 432,-60.5 438,-54.5 444,-54.5"/>
<text text-anchor="middle" x="522" y="-132.3" font-family="Times,serif" font-size="14.00">Api::V1::PublishersController</text>
<polyline fill="none" stroke="black" points="432,-124.5 612,-124.5 "/>
<text text-anchor="start" x="440" y="-109.3" font-family="Times,serif" font-size="14.00">show</text>
<polyline fill="none" stroke="black" points="432,-101.5 612,-101.5 "/>
<polyline fill="none" stroke="black" points="432,-77.5 612,-77.5 "/>
<text text-anchor="start" x="440" y="-62.3" font-family="Times,serif" font-size="14.00">_layout</text>
</g>
<!-- Api::V1::CategoriesController -->
<g id="node17" class="node"><title>Api::V1::CategoriesController</title>
<path fill="none" stroke="black" d="M660,-36.5C660,-36.5 818,-36.5 818,-36.5 824,-36.5 830,-42.5 830,-48.5 830,-48.5 830,-117.5 830,-117.5 830,-123.5 824,-129.5 818,-129.5 818,-129.5 660,-129.5 660,-129.5 654,-129.5 648,-123.5 648,-117.5 648,-117.5 648,-48.5 648,-48.5 648,-42.5 654,-36.5 660,-36.5"/>
<text text-anchor="middle" x="739" y="-114.3" font-family="Times,serif" font-size="14.00">Api::V1::CategoriesController</text>
<polyline fill="none" stroke="black" points="648,-106.5 830,-106.5 "/>
<text text-anchor="start" x="656" y="-91.3" font-family="Times,serif" font-size="14.00">show</text>
<polyline fill="none" stroke="black" points="648,-83.5 830,-83.5 "/>
<polyline fill="none" stroke="black" points="648,-59.5 830,-59.5 "/>
<text text-anchor="start" x="656" y="-44.3" font-family="Times,serif" font-size="14.00">_layout</text>
</g>
<!-- Api::V1::AuthorsController -->
<g id="node18" class="node"><title>Api::V1::AuthorsController</title>
<path fill="none" stroke="black" d="M30,-612.5C30,-612.5 173,-612.5 173,-612.5 179,-612.5 185,-618.5 185,-624.5 185,-624.5 185,-693.5 185,-693.5 185,-699.5 179,-705.5 173,-705.5 173,-705.5 30,-705.5 30,-705.5 24,-705.5 18,-699.5 18,-693.5 18,-693.5 18,-624.5 18,-624.5 18,-618.5 24,-612.5 30,-612.5"/>
<text text-anchor="middle" x="101.5" y="-690.3" font-family="Times,serif" font-size="14.00">Api::V1::AuthorsController</text>
<polyline fill="none" stroke="black" points="18,-682.5 185,-682.5 "/>
<text text-anchor="start" x="26" y="-667.3" font-family="Times,serif" font-size="14.00">show</text>
<polyline fill="none" stroke="black" points="18,-659.5 185,-659.5 "/>
<polyline fill="none" stroke="black" points="18,-635.5 185,-635.5 "/>
<text text-anchor="start" x="26" y="-620.3" font-family="Times,serif" font-size="14.00">_layout</text>
</g>
<!-- Api::V1::BaseController -->
<g id="node19" class="node"><title>Api::V1::BaseController</title>
<path fill="none" stroke="black" d="M48,-450.5C48,-450.5 174,-450.5 174,-450.5 180,-450.5 186,-456.5 186,-462.5 186,-462.5 186,-561.5 186,-561.5 186,-567.5 180,-573.5 174,-573.5 174,-573.5 48,-573.5 48,-573.5 42,-573.5 36,-567.5 36,-561.5 36,-561.5 36,-462.5 36,-462.5 36,-456.5 42,-450.5 48,-450.5"/>
<text text-anchor="middle" x="111" y="-558.3" font-family="Times,serif" font-size="14.00">Api::V1::BaseController</text>
<polyline fill="none" stroke="black" points="36,-550.5 186,-550.5 "/>
<text text-anchor="start" x="44" y="-535.3" font-family="Times,serif" font-size="14.00">apply_format</text>
<text text-anchor="start" x="44" y="-520.3" font-family="Times,serif" font-size="14.00">destroy_session</text>
<text text-anchor="start" x="44" y="-505.3" font-family="Times,serif" font-size="14.00">not_found</text>
<polyline fill="none" stroke="black" points="36,-497.5 186,-497.5 "/>
<polyline fill="none" stroke="black" points="36,-473.5 186,-473.5 "/>
<text text-anchor="start" x="44" y="-458.3" font-family="Times,serif" font-size="14.00">_layout</text>
</g>
</g>
</svg>
