<?xml version="1.0" encoding="UTF-8" standalone="no"?>
<!DOCTYPE svg PUBLIC "-//W3C//DTD SVG 1.1//EN"
 "http://www.w3.org/Graphics/SVG/1.1/DTD/svg11.dtd">
<!-- Generated by graphviz version 2.44.1 (20200629.0846)
 -->
<!-- Title: controllers_diagram Pages: 1 -->
<svg width="1182pt" height="1097pt"
 viewBox="0.00 0.00 1182.00 1097.00" xmlns="http://www.w3.org/2000/svg" xmlns:xlink="http://www.w3.org/1999/xlink">
<g id="graph0" class="graph" transform="scale(1 1) rotate(0) translate(4 1093)">
<title>controllers_diagram</title>
<polygon fill="transparent" stroke="transparent" points="-4,4 -4,-1093 1178,-1093 1178,4 -4,4"/>
<!-- _diagram_info -->
<g id="node1" class="node">
<title>_diagram_info</title>
<text text-anchor="start" x="749" y="-1051.6" font-family="Times,serif" font-size="13.00">Controllers diagram</text>
<text text-anchor="start" x="749" y="-1037.6" font-family="Times,serif" font-size="13.00">Date: Jan 04 2021 &#45; 00:10</text>
<text text-anchor="start" x="749" y="-1023.6" font-family="Times,serif" font-size="13.00">Migration version: 20201127215147</text>
<text text-anchor="start" x="749" y="-1009.6" font-family="Times,serif" font-size="13.00">Generated by RailRoady 1.5.3</text>
<text text-anchor="start" x="749" y="-995.6" font-family="Times,serif" font-size="13.00">http://railroady.prestonlee.com</text>
</g>
<!-- ApplicationController -->
<g id="node2" class="node">
<title>ApplicationController</title>
<path fill="none" stroke="black" d="M69,-950.5C69,-950.5 181,-950.5 181,-950.5 187,-950.5 193,-956.5 193,-962.5 193,-962.5 193,-1076.5 193,-1076.5 193,-1082.5 187,-1088.5 181,-1088.5 181,-1088.5 69,-1088.5 69,-1088.5 63,-1088.5 57,-1082.5 57,-1076.5 57,-1076.5 57,-962.5 57,-962.5 57,-956.5 63,-950.5 69,-950.5"/>
<text text-anchor="middle" x="125" y="-1073.3" font-family="Times,serif" font-size="14.00">ApplicationController</text>
<polyline fill="none" stroke="black" points="57,-1065.5 193,-1065.5 "/>
<polyline fill="none" stroke="black" points="57,-1041.5 193,-1041.5 "/>
<text text-anchor="start" x="65" y="-1026.3" font-family="Times,serif" font-size="14.00">not_found</text>
<text text-anchor="start" x="65" y="-1011.3" font-family="Times,serif" font-size="14.00">prepare_meta_tags</text>
<text text-anchor="start" x="65" y="-996.3" font-family="Times,serif" font-size="14.00">set_json_format</text>
<polyline fill="none" stroke="black" points="57,-988.5 193,-988.5 "/>
<text text-anchor="start" x="65" y="-973.3" font-family="Times,serif" font-size="14.00">_layout</text>
<text text-anchor="start" x="65" y="-958.3" font-family="Times,serif" font-size="14.00">user_not_authorized</text>
</g>
<!-- CategoriesController -->
<g id="node3" class="node">
<title>CategoriesController</title>
<path fill="none" stroke="black" d="M221,-190.5C221,-190.5 327,-190.5 327,-190.5 333,-190.5 339,-196.5 339,-202.5 339,-202.5 339,-436.5 339,-436.5 339,-442.5 333,-448.5 327,-448.5 327,-448.5 221,-448.5 221,-448.5 215,-448.5 209,-442.5 209,-436.5 209,-436.5 209,-202.5 209,-202.5 209,-196.5 215,-190.5 221,-190.5"/>
<text text-anchor="middle" x="274" y="-433.3" font-family="Times,serif" font-size="14.00">CategoriesController</text>
<polyline fill="none" stroke="black" points="209,-425.5 339,-425.5 "/>
<text text-anchor="start" x="217" y="-410.3" font-family="Times,serif" font-size="14.00">update</text>
<text text-anchor="start" x="217" y="-395.3" font-family="Times,serif" font-size="14.00">destroy</text>
<text text-anchor="start" x="217" y="-380.3" font-family="Times,serif" font-size="14.00">edit</text>
<text text-anchor="start" x="217" y="-365.3" font-family="Times,serif" font-size="14.00">favourite</text>
<text text-anchor="start" x="217" y="-350.3" font-family="Times,serif" font-size="14.00">index</text>
<text text-anchor="start" x="217" y="-335.3" font-family="Times,serif" font-size="14.00">new</text>
<text text-anchor="start" x="217" y="-320.3" font-family="Times,serif" font-size="14.00">show</text>
<text text-anchor="start" x="217" y="-305.3" font-family="Times,serif" font-size="14.00">create</text>
<polyline fill="none" stroke="black" points="209,-297.5 339,-297.5 "/>
<polyline fill="none" stroke="black" points="209,-273.5 339,-273.5 "/>
<text text-anchor="start" x="217" y="-258.3" font-family="Times,serif" font-size="14.00">_layout</text>
<text text-anchor="start" x="217" y="-243.3" font-family="Times,serif" font-size="14.00">category_params</text>
<text text-anchor="start" x="217" y="-228.3" font-family="Times,serif" font-size="14.00">set_category</text>
<text text-anchor="start" x="217" y="-213.3" font-family="Times,serif" font-size="14.00">set_owned_ids</text>
<text text-anchor="start" x="217" y="-198.3" font-family="Times,serif" font-size="14.00">set_rated_ids</text>
</g>
<!-- TasksController -->
<g id="node4" class="node">
<title>TasksController</title>
<path fill="none" stroke="black" d="M848,-418.5C848,-418.5 1042,-418.5 1042,-418.5 1048,-418.5 1054,-424.5 1054,-430.5 1054,-430.5 1054,-529.5 1054,-529.5 1054,-535.5 1048,-541.5 1042,-541.5 1042,-541.5 848,-541.5 848,-541.5 842,-541.5 836,-535.5 836,-529.5 836,-529.5 836,-430.5 836,-430.5 836,-424.5 842,-418.5 848,-418.5"/>
<text text-anchor="middle" x="945" y="-526.3" font-family="Times,serif" font-size="14.00">TasksController</text>
<polyline fill="none" stroke="black" points="836,-518.5 1054,-518.5 "/>
<text text-anchor="start" x="844" y="-503.3" font-family="Times,serif" font-size="14.00">import_book_of_the_day_candidates</text>
<text text-anchor="start" x="844" y="-488.3" font-family="Times,serif" font-size="14.00">index</text>
<text text-anchor="start" x="844" y="-473.3" font-family="Times,serif" font-size="14.00">update_content</text>
<polyline fill="none" stroke="black" points="836,-465.5 1054,-465.5 "/>
<polyline fill="none" stroke="black" points="836,-441.5 1054,-441.5 "/>
<text text-anchor="start" x="844" y="-426.3" font-family="Times,serif" font-size="14.00">_layout</text>
</g>
<!-- AwardsController -->
<g id="node5" class="node">
<title>AwardsController</title>
<path fill="none" stroke="black" d="M886,-722.5C886,-722.5 976,-722.5 976,-722.5 982,-722.5 988,-728.5 988,-734.5 988,-734.5 988,-923.5 988,-923.5 988,-929.5 982,-935.5 976,-935.5 976,-935.5 886,-935.5 886,-935.5 880,-935.5 874,-929.5 874,-923.5 874,-923.5 874,-734.5 874,-734.5 874,-728.5 880,-722.5 886,-722.5"/>
<text text-anchor="middle" x="931" y="-920.3" font-family="Times,serif" font-size="14.00">AwardsController</text>
<polyline fill="none" stroke="black" points="874,-912.5 988,-912.5 "/>
<text text-anchor="start" x="882" y="-897.3" font-family="Times,serif" font-size="14.00">create</text>
<text text-anchor="start" x="882" y="-882.3" font-family="Times,serif" font-size="14.00">destroy</text>
<text text-anchor="start" x="882" y="-867.3" font-family="Times,serif" font-size="14.00">edit</text>
<text text-anchor="start" x="882" y="-852.3" font-family="Times,serif" font-size="14.00">index</text>
<text text-anchor="start" x="882" y="-837.3" font-family="Times,serif" font-size="14.00">show</text>
<text text-anchor="start" x="882" y="-822.3" font-family="Times,serif" font-size="14.00">update</text>
<polyline fill="none" stroke="black" points="874,-814.5 988,-814.5 "/>
<polyline fill="none" stroke="black" points="874,-790.5 988,-790.5 "/>
<text text-anchor="start" x="882" y="-775.3" font-family="Times,serif" font-size="14.00">_layout</text>
<text text-anchor="start" x="882" y="-760.3" font-family="Times,serif" font-size="14.00">award_params</text>
<text text-anchor="start" x="882" y="-745.3" font-family="Times,serif" font-size="14.00">load_awardable</text>
<text text-anchor="start" x="882" y="-730.3" font-family="Times,serif" font-size="14.00">set_award</text>
</g>
<!-- SeriesController -->
<g id="node6" class="node">
<title>SeriesController</title>
<path fill="none" stroke="black" d="M12,-494.5C12,-494.5 93,-494.5 93,-494.5 99,-494.5 105,-500.5 105,-506.5 105,-506.5 105,-590.5 105,-590.5 105,-596.5 99,-602.5 93,-602.5 93,-602.5 12,-602.5 12,-602.5 6,-602.5 0,-596.5 0,-590.5 0,-590.5 0,-506.5 0,-506.5 0,-500.5 6,-494.5 12,-494.5"/>
<text text-anchor="middle" x="52.5" y="-587.3" font-family="Times,serif" font-size="14.00">SeriesController</text>
<polyline fill="none" stroke="black" points="0,-579.5 105,-579.5 "/>
<text text-anchor="start" x="8" y="-564.3" font-family="Times,serif" font-size="14.00">index</text>
<polyline fill="none" stroke="black" points="0,-556.5 105,-556.5 "/>
<polyline fill="none" stroke="black" points="0,-532.5 105,-532.5 "/>
<text text-anchor="start" x="8" y="-517.3" font-family="Times,serif" font-size="14.00">_layout</text>
<text text-anchor="start" x="8" y="-502.3" font-family="Times,serif" font-size="14.00">series_params</text>
</g>
<!-- PagesController -->
<g id="node7" class="node">
<title>PagesController</title>
<path fill="none" stroke="black" d="M88,-209.5C88,-209.5 168,-209.5 168,-209.5 174,-209.5 180,-215.5 180,-221.5 180,-221.5 180,-320.5 180,-320.5 180,-326.5 174,-332.5 168,-332.5 168,-332.5 88,-332.5 88,-332.5 82,-332.5 76,-326.5 76,-320.5 76,-320.5 76,-221.5 76,-221.5 76,-215.5 82,-209.5 88,-209.5"/>
<text text-anchor="middle" x="128" y="-317.3" font-family="Times,serif" font-size="14.00">PagesController</text>
<polyline fill="none" stroke="black" points="76,-309.5 180,-309.5 "/>
<text text-anchor="start" x="84" y="-294.3" font-family="Times,serif" font-size="14.00">about</text>
<text text-anchor="start" x="84" y="-279.3" font-family="Times,serif" font-size="14.00">privacy_policy</text>
<text text-anchor="start" x="84" y="-264.3" font-family="Times,serif" font-size="14.00">welcome_guide</text>
<polyline fill="none" stroke="black" points="76,-256.5 180,-256.5 "/>
<polyline fill="none" stroke="black" points="76,-232.5 180,-232.5 "/>
<text text-anchor="start" x="84" y="-217.3" font-family="Times,serif" font-size="14.00">_layout</text>
</g>
<!-- ContributionsController -->
<g id="node8" class="node">
<title>ContributionsController</title>
<path fill="none" stroke="black" d="M848,-171.5C848,-171.5 970,-171.5 970,-171.5 976,-171.5 982,-177.5 982,-183.5 982,-183.5 982,-372.5 982,-372.5 982,-378.5 976,-384.5 970,-384.5 970,-384.5 848,-384.5 848,-384.5 842,-384.5 836,-378.5 836,-372.5 836,-372.5 836,-183.5 836,-183.5 836,-177.5 842,-171.5 848,-171.5"/>
<text text-anchor="middle" x="909" y="-369.3" font-family="Times,serif" font-size="14.00">ContributionsController</text>
<polyline fill="none" stroke="black" points="836,-361.5 982,-361.5 "/>
<text text-anchor="start" x="844" y="-346.3" font-family="Times,serif" font-size="14.00">create</text>
<text text-anchor="start" x="844" y="-331.3" font-family="Times,serif" font-size="14.00">destroy</text>
<text text-anchor="start" x="844" y="-316.3" font-family="Times,serif" font-size="14.00">edit</text>
<text text-anchor="start" x="844" y="-301.3" font-family="Times,serif" font-size="14.00">index</text>
<text text-anchor="start" x="844" y="-286.3" font-family="Times,serif" font-size="14.00">new</text>
<text text-anchor="start" x="844" y="-271.3" font-family="Times,serif" font-size="14.00">show</text>
<text text-anchor="start" x="844" y="-256.3" font-family="Times,serif" font-size="14.00">update</text>
<polyline fill="none" stroke="black" points="836,-248.5 982,-248.5 "/>
<polyline fill="none" stroke="black" points="836,-224.5 982,-224.5 "/>
<text text-anchor="start" x="844" y="-209.3" font-family="Times,serif" font-size="14.00">_layout</text>
<text text-anchor="start" x="844" y="-194.3" font-family="Times,serif" font-size="14.00">contribution_params</text>
<text text-anchor="start" x="844" y="-179.3" font-family="Times,serif" font-size="14.00">set_contribution</text>
</g>
<!-- ProfilesController -->
<g id="node9" class="node">
<title>ProfilesController</title>
<path fill="none" stroke="black" d="M525,-722.5C525,-722.5 654,-722.5 654,-722.5 660,-722.5 666,-728.5 666,-734.5 666,-734.5 666,-953.5 666,-953.5 666,-959.5 660,-965.5 654,-965.5 654,-965.5 525,-965.5 525,-965.5 519,-965.5 513,-959.5 513,-953.5 513,-953.5 513,-734.5 513,-734.5 513,-728.5 519,-722.5 525,-722.5"/>
<text text-anchor="middle" x="589.5" y="-950.3" font-family="Times,serif" font-size="14.00">ProfilesController</text>
<polyline fill="none" stroke="black" points="513,-942.5 666,-942.5 "/>
<text text-anchor="start" x="521" y="-927.3" font-family="Times,serif" font-size="14.00">edit</text>
<text text-anchor="start" x="521" y="-912.3" font-family="Times,serif" font-size="14.00">follow</text>
<text text-anchor="start" x="521" y="-897.3" font-family="Times,serif" font-size="14.00">show</text>
<text text-anchor="start" x="521" y="-882.3" font-family="Times,serif" font-size="14.00">update</text>
<polyline fill="none" stroke="black" points="513,-874.5 666,-874.5 "/>
<polyline fill="none" stroke="black" points="513,-850.5 666,-850.5 "/>
<text text-anchor="start" x="521" y="-835.3" font-family="Times,serif" font-size="14.00">set_rated_ids</text>
<text text-anchor="start" x="521" y="-820.3" font-family="Times,serif" font-size="14.00">profile_params</text>
<text text-anchor="start" x="521" y="-805.3" font-family="Times,serif" font-size="14.00">set_current_users_profile</text>
<text text-anchor="start" x="521" y="-790.3" font-family="Times,serif" font-size="14.00">set_enums</text>
<text text-anchor="start" x="521" y="-775.3" font-family="Times,serif" font-size="14.00">set_json_format</text>
<text text-anchor="start" x="521" y="-760.3" font-family="Times,serif" font-size="14.00">set_owned_ids</text>
<text text-anchor="start" x="521" y="-745.3" font-family="Times,serif" font-size="14.00">set_public_profile</text>
<text text-anchor="start" x="521" y="-730.3" font-family="Times,serif" font-size="14.00">_layout</text>
</g>
<!-- PlacesController -->
<g id="node10" class="node">
<title>PlacesController</title>
<path fill="none" stroke="black" d="M145,-494.5C145,-494.5 228,-494.5 228,-494.5 234,-494.5 240,-500.5 240,-506.5 240,-506.5 240,-695.5 240,-695.5 240,-701.5 234,-707.5 228,-707.5 228,-707.5 145,-707.5 145,-707.5 139,-707.5 133,-701.5 133,-695.5 133,-695.5 133,-506.5 133,-506.5 133,-500.5 139,-494.5 145,-494.5"/>
<text text-anchor="middle" x="186.5" y="-692.3" font-family="Times,serif" font-size="14.00">PlacesController</text>
<polyline fill="none" stroke="black" points="133,-684.5 240,-684.5 "/>
<text text-anchor="start" x="141" y="-669.3" font-family="Times,serif" font-size="14.00">create</text>
<text text-anchor="start" x="141" y="-654.3" font-family="Times,serif" font-size="14.00">destroy</text>
<text text-anchor="start" x="141" y="-639.3" font-family="Times,serif" font-size="14.00">edit</text>
<text text-anchor="start" x="141" y="-624.3" font-family="Times,serif" font-size="14.00">index</text>
<text text-anchor="start" x="141" y="-609.3" font-family="Times,serif" font-size="14.00">show</text>
<text text-anchor="start" x="141" y="-594.3" font-family="Times,serif" font-size="14.00">update</text>
<polyline fill="none" stroke="black" points="133,-586.5 240,-586.5 "/>
<polyline fill="none" stroke="black" points="133,-562.5 240,-562.5 "/>
<text text-anchor="start" x="141" y="-547.3" font-family="Times,serif" font-size="14.00">_layout</text>
<text text-anchor="start" x="141" y="-532.3" font-family="Times,serif" font-size="14.00">load_placeable</text>
<text text-anchor="start" x="141" y="-517.3" font-family="Times,serif" font-size="14.00">place_params</text>
<text text-anchor="start" x="141" y="-502.3" font-family="Times,serif" font-size="14.00">set_place</text>
</g>
<!-- HomeController -->
<g id="node11" class="node">
<title>HomeController</title>
<path fill="none" stroke="black" d="M1038,-152.5C1038,-152.5 1120,-152.5 1120,-152.5 1126,-152.5 1132,-158.5 1132,-164.5 1132,-164.5 1132,-293.5 1132,-293.5 1132,-299.5 1126,-305.5 1120,-305.5 1120,-305.5 1038,-305.5 1038,-305.5 1032,-305.5 1026,-299.5 1026,-293.5 1026,-293.5 1026,-164.5 1026,-164.5 1026,-158.5 1032,-152.5 1038,-152.5"/>
<text text-anchor="middle" x="1079" y="-290.3" font-family="Times,serif" font-size="14.00">HomeController</text>
<polyline fill="none" stroke="black" points="1026,-282.5 1132,-282.5 "/>
<text text-anchor="start" x="1034" y="-267.3" font-family="Times,serif" font-size="14.00">autocomplete</text>
<text text-anchor="start" x="1034" y="-252.3" font-family="Times,serif" font-size="14.00">index</text>
<text text-anchor="start" x="1034" y="-237.3" font-family="Times,serif" font-size="14.00">search</text>
<polyline fill="none" stroke="black" points="1026,-229.5 1132,-229.5 "/>
<polyline fill="none" stroke="black" points="1026,-205.5 1132,-205.5 "/>
<text text-anchor="start" x="1034" y="-190.3" font-family="Times,serif" font-size="14.00">_layout</text>
<text text-anchor="start" x="1034" y="-175.3" font-family="Times,serif" font-size="14.00">set_owned_ids</text>
<text text-anchor="start" x="1034" y="-160.3" font-family="Times,serif" font-size="14.00">set_rated_ids</text>
</g>
<!-- Users::OmniauthCallbacksController -->
<g id="node12" class="node">
<title>Users::OmniauthCallbacksController</title>
<path fill="none" stroke="black" d="M886,-570.5C886,-570.5 1080,-570.5 1080,-570.5 1086,-570.5 1092,-576.5 1092,-582.5 1092,-582.5 1092,-681.5 1092,-681.5 1092,-687.5 1086,-693.5 1080,-693.5 1080,-693.5 886,-693.5 886,-693.5 880,-693.5 874,-687.5 874,-681.5 874,-681.5 874,-582.5 874,-582.5 874,-576.5 880,-570.5 886,-570.5"/>
<text text-anchor="middle" x="983" y="-678.3" font-family="Times,serif" font-size="14.00">Users::OmniauthCallbacksController</text>
<polyline fill="none" stroke="black" points="874,-670.5 1092,-670.5 "/>
<text text-anchor="start" x="882" y="-655.3" font-family="Times,serif" font-size="14.00">facebook</text>
<text text-anchor="start" x="882" y="-640.3" font-family="Times,serif" font-size="14.00">failure</text>
<text text-anchor="start" x="882" y="-625.3" font-family="Times,serif" font-size="14.00">google_oauth2</text>
<polyline fill="none" stroke="black" points="874,-617.5 1092,-617.5 "/>
<polyline fill="none" stroke="black" points="874,-593.5 1092,-593.5 "/>
<text text-anchor="start" x="882" y="-578.3" font-family="Times,serif" font-size="14.00">_layout</text>
</g>
<!-- Users::RegistrationsController -->
<g id="node13" class="node">
<title>Users::RegistrationsController</title>
<path fill="none" stroke="black" d="M69,-38.5C69,-38.5 227,-38.5 227,-38.5 233,-38.5 239,-44.5 239,-50.5 239,-50.5 239,-134.5 239,-134.5 239,-140.5 233,-146.5 227,-146.5 227,-146.5 69,-146.5 69,-146.5 63,-146.5 57,-140.5 57,-134.5 57,-134.5 57,-50.5 57,-50.5 57,-44.5 63,-38.5 69,-38.5"/>
<text text-anchor="middle" x="148" y="-131.3" font-family="Times,serif" font-size="14.00">Users::RegistrationsController</text>
<polyline fill="none" stroke="black" points="57,-123.5 239,-123.5 "/>
<text text-anchor="start" x="65" y="-108.3" font-family="Times,serif" font-size="14.00">after_sign_up_path_for</text>
<text text-anchor="start" x="65" y="-93.3" font-family="Times,serif" font-size="14.00">update_resource</text>
<polyline fill="none" stroke="black" points="57,-85.5 239,-85.5 "/>
<polyline fill="none" stroke="black" points="57,-61.5 239,-61.5 "/>
<text text-anchor="start" x="65" y="-46.3" font-family="Times,serif" font-size="14.00">_layout</text>
</g>
<!-- PublishersController -->
<g id="node14" class="node">
<title>PublishersController</title>
<path fill="none" stroke="black" d="M715,-684.5C715,-684.5 819,-684.5 819,-684.5 825,-684.5 831,-690.5 831,-696.5 831,-696.5 831,-930.5 831,-930.5 831,-936.5 825,-942.5 819,-942.5 819,-942.5 715,-942.5 715,-942.5 709,-942.5 703,-936.5 703,-930.5 703,-930.5 703,-696.5 703,-696.5 703,-690.5 709,-684.5 715,-684.5"/>
<text text-anchor="middle" x="767" y="-927.3" font-family="Times,serif" font-size="14.00">PublishersController</text>
<polyline fill="none" stroke="black" points="703,-919.5 831,-919.5 "/>
<text text-anchor="start" x="711" y="-904.3" font-family="Times,serif" font-size="14.00">update</text>
<text text-anchor="start" x="711" y="-889.3" font-family="Times,serif" font-size="14.00">destroy</text>
<text text-anchor="start" x="711" y="-874.3" font-family="Times,serif" font-size="14.00">edit</text>
<text text-anchor="start" x="711" y="-859.3" font-family="Times,serif" font-size="14.00">index</text>
<text text-anchor="start" x="711" y="-844.3" font-family="Times,serif" font-size="14.00">new</text>
<text text-anchor="start" x="711" y="-829.3" font-family="Times,serif" font-size="14.00">search</text>
<text text-anchor="start" x="711" y="-814.3" font-family="Times,serif" font-size="14.00">show</text>
<text text-anchor="start" x="711" y="-799.3" font-family="Times,serif" font-size="14.00">create</text>
<polyline fill="none" stroke="black" points="703,-791.5 831,-791.5 "/>
<polyline fill="none" stroke="black" points="703,-767.5 831,-767.5 "/>
<text text-anchor="start" x="711" y="-752.3" font-family="Times,serif" font-size="14.00">_layout</text>
<text text-anchor="start" x="711" y="-737.3" font-family="Times,serif" font-size="14.00">publisher_params</text>
<text text-anchor="start" x="711" y="-722.3" font-family="Times,serif" font-size="14.00">set_owned_ids</text>
<text text-anchor="start" x="711" y="-707.3" font-family="Times,serif" font-size="14.00">set_publisher</text>
<text text-anchor="start" x="711" y="-692.3" font-family="Times,serif" font-size="14.00">set_rated_ids</text>
</g>
<!-- Api::V1::BaseController -->
<g id="node15" class="node">
<title>Api::V1::BaseController</title>
<path fill="none" stroke="black" d="M620,-399.5C620,-399.5 782,-399.5 782,-399.5 788,-399.5 794,-405.5 794,-411.5 794,-411.5 794,-630.5 794,-630.5 794,-636.5 788,-642.5 782,-642.5 782,-642.5 620,-642.5 620,-642.5 614,-642.5 608,-636.5 608,-630.5 608,-630.5 608,-411.5 608,-411.5 608,-405.5 614,-399.5 620,-399.5"/>
<text text-anchor="middle" x="701" y="-627.3" font-family="Times,serif" font-size="14.00">Api::V1::BaseController</text>
<polyline fill="none" stroke="black" points="608,-619.5 794,-619.5 "/>
<text text-anchor="start" x="616" y="-604.3" font-family="Times,serif" font-size="14.00">unauthorized!</text>
<text text-anchor="start" x="616" y="-589.3" font-family="Times,serif" font-size="14.00">apply_format</text>
<text text-anchor="start" x="616" y="-574.3" font-family="Times,serif" font-size="14.00">authenticate_user_from_token!</text>
<text text-anchor="start" x="616" y="-559.3" font-family="Times,serif" font-size="14.00">custom_pagination?</text>
<text text-anchor="start" x="616" y="-544.3" font-family="Times,serif" font-size="14.00">destroy_session</text>
<text text-anchor="start" x="616" y="-529.3" font-family="Times,serif" font-size="14.00">invalid_resource!</text>
<text text-anchor="start" x="616" y="-514.3" font-family="Times,serif" font-size="14.00">meta_attributes</text>
<text text-anchor="start" x="616" y="-499.3" font-family="Times,serif" font-size="14.00">not_found!</text>
<text text-anchor="start" x="616" y="-484.3" font-family="Times,serif" font-size="14.00">paginate</text>
<text text-anchor="start" x="616" y="-469.3" font-family="Times,serif" font-size="14.00">unauthenticated!</text>
<text text-anchor="start" x="616" y="-454.3" font-family="Times,serif" font-size="14.00">api_error</text>
<polyline fill="none" stroke="black" points="608,-446.5 794,-446.5 "/>
<polyline fill="none" stroke="black" points="608,-422.5 794,-422.5 "/>
<text text-anchor="start" x="616" y="-407.3" font-family="Times,serif" font-size="14.00">_layout</text>
</g>
<!-- Api::V1::CategoriesController -->
<g id="node16" class="node">
<title>Api::V1::CategoriesController</title>
<path fill="none" stroke="black" d="M582,-38.5C582,-38.5 740,-38.5 740,-38.5 746,-38.5 752,-44.5 752,-50.5 752,-50.5 752,-149.5 752,-149.5 752,-155.5 746,-161.5 740,-161.5 740,-161.5 582,-161.5 582,-161.5 576,-161.5 570,-155.5 570,-149.5 570,-149.5 570,-50.5 570,-50.5 570,-44.5 576,-38.5 582,-38.5"/>
<text text-anchor="middle" x="661" y="-146.3" font-family="Times,serif" font-size="14.00">Api::V1::CategoriesController</text>
<polyline fill="none" stroke="black" points="570,-138.5 752,-138.5 "/>
<text text-anchor="start" x="578" y="-123.3" font-family="Times,serif" font-size="14.00">index</text>
<text text-anchor="start" x="578" y="-108.3" font-family="Times,serif" font-size="14.00">liked_with_books</text>
<text text-anchor="start" x="578" y="-93.3" font-family="Times,serif" font-size="14.00">show</text>
<polyline fill="none" stroke="black" points="570,-85.5 752,-85.5 "/>
<polyline fill="none" stroke="black" points="570,-61.5 752,-61.5 "/>
<text text-anchor="start" x="578" y="-46.3" font-family="Times,serif" font-size="14.00">_layout</text>
</g>
<!-- Api::V1::CommentsController -->
<g id="node17" class="node">
<title>Api::V1::CommentsController</title>
<path fill="none" stroke="black" d="M620,-190.5C620,-190.5 780,-190.5 780,-190.5 786,-190.5 792,-196.5 792,-202.5 792,-202.5 792,-346.5 792,-346.5 792,-352.5 786,-358.5 780,-358.5 780,-358.5 620,-358.5 620,-358.5 614,-358.5 608,-352.5 608,-346.5 608,-346.5 608,-202.5 608,-202.5 608,-196.5 614,-190.5 620,-190.5"/>
<text text-anchor="middle" x="700" y="-343.3" font-family="Times,serif" font-size="14.00">Api::V1::CommentsController</text>
<polyline fill="none" stroke="black" points="608,-335.5 792,-335.5 "/>
<text text-anchor="start" x="616" y="-320.3" font-family="Times,serif" font-size="14.00">create</text>
<text text-anchor="start" x="616" y="-305.3" font-family="Times,serif" font-size="14.00">destroy</text>
<text text-anchor="start" x="616" y="-290.3" font-family="Times,serif" font-size="14.00">index</text>
<text text-anchor="start" x="616" y="-275.3" font-family="Times,serif" font-size="14.00">show</text>
<polyline fill="none" stroke="black" points="608,-267.5 792,-267.5 "/>
<polyline fill="none" stroke="black" points="608,-243.5 792,-243.5 "/>
<text text-anchor="start" x="616" y="-228.3" font-family="Times,serif" font-size="14.00">_layout</text>
<text text-anchor="start" x="616" y="-213.3" font-family="Times,serif" font-size="14.00">create_params</text>
<text text-anchor="start" x="616" y="-198.3" font-family="Times,serif" font-size="14.00">set_book</text>
</g>
<!-- Api::V1::SeriesController -->
<g id="node18" class="node">
<title>Api::V1::SeriesController</title>
<path fill="none" stroke="black" d="M31,-361.5C31,-361.5 164,-361.5 164,-361.5 170,-361.5 176,-367.5 176,-373.5 176,-373.5 176,-442.5 176,-442.5 176,-448.5 170,-454.5 164,-454.5 164,-454.5 31,-454.5 31,-454.5 25,-454.5 19,-448.5 19,-442.5 19,-442.5 19,-373.5 19,-373.5 19,-367.5 25,-361.5 31,-361.5"/>
<text text-anchor="middle" x="97.5" y="-439.3" font-family="Times,serif" font-size="14.00">Api::V1::SeriesController</text>
<polyline fill="none" stroke="black" points="19,-431.5 176,-431.5 "/>
<text text-anchor="start" x="27" y="-416.3" font-family="Times,serif" font-size="14.00">show</text>
<polyline fill="none" stroke="black" points="19,-408.5 176,-408.5 "/>
<polyline fill="none" stroke="black" points="19,-384.5 176,-384.5 "/>
<text text-anchor="start" x="27" y="-369.3" font-family="Times,serif" font-size="14.00">_layout</text>
</g>
<!-- Api::V1::SessionsController -->
<g id="node19" class="node">
<title>Api::V1::SessionsController</title>
<path fill="none" stroke="black" d="M1000,-969.5C1000,-969.5 1146,-969.5 1146,-969.5 1152,-969.5 1158,-975.5 1158,-981.5 1158,-981.5 1158,-1065.5 1158,-1065.5 1158,-1071.5 1152,-1077.5 1146,-1077.5 1146,-1077.5 1000,-1077.5 1000,-1077.5 994,-1077.5 988,-1071.5 988,-1065.5 988,-1065.5 988,-981.5 988,-981.5 988,-975.5 994,-969.5 1000,-969.5"/>
<text text-anchor="middle" x="1073" y="-1062.3" font-family="Times,serif" font-size="14.00">Api::V1::SessionsController</text>
<polyline fill="none" stroke="black" points="988,-1054.5 1158,-1054.5 "/>
<text text-anchor="start" x="996" y="-1039.3" font-family="Times,serif" font-size="14.00">create</text>
<polyline fill="none" stroke="black" points="988,-1031.5 1158,-1031.5 "/>
<polyline fill="none" stroke="black" points="988,-1007.5 1158,-1007.5 "/>
<text text-anchor="start" x="996" y="-992.3" font-family="Times,serif" font-size="14.00">_layout</text>
<text text-anchor="start" x="996" y="-977.3" font-family="Times,serif" font-size="14.00">create_params</text>
</g>
<!-- Api::V1::PublishersController -->
<g id="node20" class="node">
<title>Api::V1::PublishersController</title>
<path fill="none" stroke="black" d="M810,-38.5C810,-38.5 966,-38.5 966,-38.5 972,-38.5 978,-44.5 978,-50.5 978,-50.5 978,-119.5 978,-119.5 978,-125.5 972,-131.5 966,-131.5 966,-131.5 810,-131.5 810,-131.5 804,-131.5 798,-125.5 798,-119.5 798,-119.5 798,-50.5 798,-50.5 798,-44.5 804,-38.5 810,-38.5"/>
<text text-anchor="middle" x="888" y="-116.3" font-family="Times,serif" font-size="14.00">Api::V1::PublishersController</text>
<polyline fill="none" stroke="black" points="798,-108.5 978,-108.5 "/>
<text text-anchor="start" x="806" y="-93.3" font-family="Times,serif" font-size="14.00">show</text>
<polyline fill="none" stroke="black" points="798,-85.5 978,-85.5 "/>
<polyline fill="none" stroke="black" points="798,-61.5 978,-61.5 "/>
<text text-anchor="start" x="806" y="-46.3" font-family="Times,serif" font-size="14.00">_layout</text>
</g>
<!-- Api::V1::BooksController -->
<g id="node21" class="node">
<title>Api::V1::BooksController</title>
<path fill="none" stroke="black" d="M392,-114.5C392,-114.5 526,-114.5 526,-114.5 532,-114.5 538,-120.5 538,-126.5 538,-126.5 538,-240.5 538,-240.5 538,-246.5 532,-252.5 526,-252.5 526,-252.5 392,-252.5 392,-252.5 386,-252.5 380,-246.5 380,-240.5 380,-240.5 380,-126.5 380,-126.5 380,-120.5 386,-114.5 392,-114.5"/>
<text text-anchor="middle" x="459" y="-237.3" font-family="Times,serif" font-size="14.00">Api::V1::BooksController</text>
<polyline fill="none" stroke="black" points="380,-229.5 538,-229.5 "/>
<text text-anchor="start" x="388" y="-214.3" font-family="Times,serif" font-size="14.00">index</text>
<text text-anchor="start" x="388" y="-199.3" font-family="Times,serif" font-size="14.00">my</text>
<text text-anchor="start" x="388" y="-184.3" font-family="Times,serif" font-size="14.00">rated_ids</text>
<text text-anchor="start" x="388" y="-169.3" font-family="Times,serif" font-size="14.00">show</text>
<polyline fill="none" stroke="black" points="380,-161.5 538,-161.5 "/>
<polyline fill="none" stroke="black" points="380,-137.5 538,-137.5 "/>
<text text-anchor="start" x="388" y="-122.3" font-family="Times,serif" font-size="14.00">_layout</text>
</g>
<!-- Api::V1::AuthorsController -->
<g id="node22" class="node">
<title>Api::V1::AuthorsController</title>
<path fill="none" stroke="black" d="M1019,-0.5C1019,-0.5 1162,-0.5 1162,-0.5 1168,-0.5 1174,-6.5 1174,-12.5 1174,-12.5 1174,-96.5 1174,-96.5 1174,-102.5 1168,-108.5 1162,-108.5 1162,-108.5 1019,-108.5 1019,-108.5 1013,-108.5 1007,-102.5 1007,-96.5 1007,-96.5 1007,-12.5 1007,-12.5 1007,-6.5 1013,-0.5 1019,-0.5"/>
<text text-anchor="middle" x="1090.5" y="-93.3" font-family="Times,serif" font-size="14.00">Api::V1::AuthorsController</text>
<polyline fill="none" stroke="black" points="1007,-85.5 1174,-85.5 "/>
<text text-anchor="start" x="1015" y="-70.3" font-family="Times,serif" font-size="14.00">index</text>
<text text-anchor="start" x="1015" y="-55.3" font-family="Times,serif" font-size="14.00">show</text>
<polyline fill="none" stroke="black" points="1007,-47.5 1174,-47.5 "/>
<polyline fill="none" stroke="black" points="1007,-23.5 1174,-23.5 "/>
<text text-anchor="start" x="1015" y="-8.3" font-family="Times,serif" font-size="14.00">_layout</text>
</g>
<!-- BooksController -->
<g id="node23" class="node">
<title>BooksController</title>
<path fill="none" stroke="black" d="M449,-285.5C449,-285.5 550,-285.5 550,-285.5 556,-285.5 562,-291.5 562,-297.5 562,-297.5 562,-681.5 562,-681.5 562,-687.5 556,-693.5 550,-693.5 550,-693.5 449,-693.5 449,-693.5 443,-693.5 437,-687.5 437,-681.5 437,-681.5 437,-297.5 437,-297.5 437,-291.5 443,-285.5 449,-285.5"/>
<text text-anchor="middle" x="499.5" y="-678.3" font-family="Times,serif" font-size="14.00">BooksController</text>
<polyline fill="none" stroke="black" points="437,-670.5 562,-670.5 "/>
<text text-anchor="start" x="445" y="-655.3" font-family="Times,serif" font-size="14.00">update</text>
<text text-anchor="start" x="445" y="-640.3" font-family="Times,serif" font-size="14.00">collections</text>
<text text-anchor="start" x="445" y="-625.3" font-family="Times,serif" font-size="14.00">create</text>
<text text-anchor="start" x="445" y="-610.3" font-family="Times,serif" font-size="14.00">destroy</text>
<text text-anchor="start" x="445" y="-595.3" font-family="Times,serif" font-size="14.00">dislike</text>
<text text-anchor="start" x="445" y="-580.3" font-family="Times,serif" font-size="14.00">edit</text>
<text text-anchor="start" x="445" y="-565.3" font-family="Times,serif" font-size="14.00">featured</text>
<text text-anchor="start" x="445" y="-550.3" font-family="Times,serif" font-size="14.00">index</text>
<text text-anchor="start" x="445" y="-535.3" font-family="Times,serif" font-size="14.00">latest</text>
<text text-anchor="start" x="445" y="-520.3" font-family="Times,serif" font-size="14.00">like</text>
<text text-anchor="start" x="445" y="-505.3" font-family="Times,serif" font-size="14.00">manage_collections</text>
<text text-anchor="start" x="445" y="-490.3" font-family="Times,serif" font-size="14.00">my</text>
<text text-anchor="start" x="445" y="-475.3" font-family="Times,serif" font-size="14.00">new</text>
<text text-anchor="start" x="445" y="-460.3" font-family="Times,serif" font-size="14.00">show</text>
<text text-anchor="start" x="445" y="-445.3" font-family="Times,serif" font-size="14.00">trending</text>
<text text-anchor="start" x="445" y="-430.3" font-family="Times,serif" font-size="14.00">awarded</text>
<polyline fill="none" stroke="black" points="437,-422.5 562,-422.5 "/>
<polyline fill="none" stroke="black" points="437,-398.5 562,-398.5 "/>
<text text-anchor="start" x="445" y="-383.3" font-family="Times,serif" font-size="14.00">_layout</text>
<text text-anchor="start" x="445" y="-368.3" font-family="Times,serif" font-size="14.00">book_params</text>
<text text-anchor="start" x="445" y="-353.3" font-family="Times,serif" font-size="14.00">set_book</text>
<text text-anchor="start" x="445" y="-338.3" font-family="Times,serif" font-size="14.00">set_enums</text>
<text text-anchor="start" x="445" y="-323.3" font-family="Times,serif" font-size="14.00">set_owned_ids</text>
<text text-anchor="start" x="445" y="-308.3" font-family="Times,serif" font-size="14.00">set_rated_ids</text>
<text text-anchor="start" x="445" y="-293.3" font-family="Times,serif" font-size="14.00">set_shelves</text>
</g>
<!-- AuthorsController -->
<g id="node24" class="node">
<title>AuthorsController</title>
<path fill="none" stroke="black" d="M373,-798.5C373,-798.5 465,-798.5 465,-798.5 471,-798.5 477,-804.5 477,-810.5 477,-810.5 477,-1044.5 477,-1044.5 477,-1050.5 471,-1056.5 465,-1056.5 465,-1056.5 373,-1056.5 373,-1056.5 367,-1056.5 361,-1050.5 361,-1044.5 361,-1044.5 361,-810.5 361,-810.5 361,-804.5 367,-798.5 373,-798.5"/>
<text text-anchor="middle" x="419" y="-1041.3" font-family="Times,serif" font-size="14.00">AuthorsController</text>
<polyline fill="none" stroke="black" points="361,-1033.5 477,-1033.5 "/>
<text text-anchor="start" x="369" y="-1018.3" font-family="Times,serif" font-size="14.00">update</text>
<text text-anchor="start" x="369" y="-1003.3" font-family="Times,serif" font-size="14.00">destroy</text>
<text text-anchor="start" x="369" y="-988.3" font-family="Times,serif" font-size="14.00">edit</text>
<text text-anchor="start" x="369" y="-973.3" font-family="Times,serif" font-size="14.00">favourite</text>
<text text-anchor="start" x="369" y="-958.3" font-family="Times,serif" font-size="14.00">index</text>
<text text-anchor="start" x="369" y="-943.3" font-family="Times,serif" font-size="14.00">new</text>
<text text-anchor="start" x="369" y="-928.3" font-family="Times,serif" font-size="14.00">show</text>
<text text-anchor="start" x="369" y="-913.3" font-family="Times,serif" font-size="14.00">create</text>
<polyline fill="none" stroke="black" points="361,-905.5 477,-905.5 "/>
<polyline fill="none" stroke="black" points="361,-881.5 477,-881.5 "/>
<text text-anchor="start" x="369" y="-866.3" font-family="Times,serif" font-size="14.00">_layout</text>
<text text-anchor="start" x="369" y="-851.3" font-family="Times,serif" font-size="14.00">author_params</text>
<text text-anchor="start" x="369" y="-836.3" font-family="Times,serif" font-size="14.00">set_author</text>
<text text-anchor="start" x="369" y="-821.3" font-family="Times,serif" font-size="14.00">set_owned_ids</text>
<text text-anchor="start" x="369" y="-806.3" font-family="Times,serif" font-size="14.00">set_rated_ids</text>
</g>
<!-- ImportController -->
<g id="node25" class="node">
<title>ImportController</title>
<path fill="none" stroke="black" d="M69,-760.5C69,-760.5 178,-760.5 178,-760.5 184,-760.5 190,-766.5 190,-772.5 190,-772.5 190,-901.5 190,-901.5 190,-907.5 184,-913.5 178,-913.5 178,-913.5 69,-913.5 69,-913.5 63,-913.5 57,-907.5 57,-901.5 57,-901.5 57,-772.5 57,-772.5 57,-766.5 63,-760.5 69,-760.5"/>
<text text-anchor="middle" x="123.5" y="-898.3" font-family="Times,serif" font-size="14.00">ImportController</text>
<polyline fill="none" stroke="black" points="57,-890.5 190,-890.5 "/>
<text text-anchor="start" x="65" y="-875.3" font-family="Times,serif" font-size="14.00">import_from_file</text>
<text text-anchor="start" x="65" y="-860.3" font-family="Times,serif" font-size="14.00">import_from_storage</text>
<text text-anchor="start" x="65" y="-845.3" font-family="Times,serif" font-size="14.00">import_from_text</text>
<text text-anchor="start" x="65" y="-830.3" font-family="Times,serif" font-size="14.00">import_from_url</text>
<text text-anchor="start" x="65" y="-815.3" font-family="Times,serif" font-size="14.00">index</text>
<polyline fill="none" stroke="black" points="57,-807.5 190,-807.5 "/>
<polyline fill="none" stroke="black" points="57,-783.5 190,-783.5 "/>
<text text-anchor="start" x="65" y="-768.3" font-family="Times,serif" font-size="14.00">_layout</text>
</g>
<!-- ShelvesController -->
<g id="node26" class="node">
<title>ShelvesController</title>
<path fill="none" stroke="black" d="M297,-494.5C297,-494.5 387,-494.5 387,-494.5 393,-494.5 399,-500.5 399,-506.5 399,-506.5 399,-755.5 399,-755.5 399,-761.5 393,-767.5 387,-767.5 387,-767.5 297,-767.5 297,-767.5 291,-767.5 285,-761.5 285,-755.5 285,-755.5 285,-506.5 285,-506.5 285,-500.5 291,-494.5 297,-494.5"/>
<text text-anchor="middle" x="342" y="-752.3" font-family="Times,serif" font-size="14.00">ShelvesController</text>
<polyline fill="none" stroke="black" points="285,-744.5 399,-744.5 "/>
<text text-anchor="start" x="293" y="-729.3" font-family="Times,serif" font-size="14.00">update</text>
<text text-anchor="start" x="293" y="-714.3" font-family="Times,serif" font-size="14.00">destroy</text>
<text text-anchor="start" x="293" y="-699.3" font-family="Times,serif" font-size="14.00">edit</text>
<text text-anchor="start" x="293" y="-684.3" font-family="Times,serif" font-size="14.00">index</text>
<text text-anchor="start" x="293" y="-669.3" font-family="Times,serif" font-size="14.00">new</text>
<text text-anchor="start" x="293" y="-654.3" font-family="Times,serif" font-size="14.00">public_shelves</text>
<text text-anchor="start" x="293" y="-639.3" font-family="Times,serif" font-size="14.00">show</text>
<text text-anchor="start" x="293" y="-624.3" font-family="Times,serif" font-size="14.00">create</text>
<polyline fill="none" stroke="black" points="285,-616.5 399,-616.5 "/>
<polyline fill="none" stroke="black" points="285,-592.5 399,-592.5 "/>
<text text-anchor="start" x="293" y="-577.3" font-family="Times,serif" font-size="14.00">_layout</text>
<text text-anchor="start" x="293" y="-562.3" font-family="Times,serif" font-size="14.00">set_enum</text>
<text text-anchor="start" x="293" y="-547.3" font-family="Times,serif" font-size="14.00">set_owned_ids</text>
<text text-anchor="start" x="293" y="-532.3" font-family="Times,serif" font-size="14.00">set_rated_ids</text>
<text text-anchor="start" x="293" y="-517.3" font-family="Times,serif" font-size="14.00">set_shelf</text>
<text text-anchor="start" x="293" y="-502.3" font-family="Times,serif" font-size="14.00">shelf_params</text>
</g>
<!-- PrizesController -->
<g id="node27" class="node">
<title>PrizesController</title>
<path fill="none" stroke="black" d="M240,-798.5C240,-798.5 321,-798.5 321,-798.5 327,-798.5 333,-804.5 333,-810.5 333,-810.5 333,-999.5 333,-999.5 333,-1005.5 327,-1011.5 321,-1011.5 321,-1011.5 240,-1011.5 240,-1011.5 234,-1011.5 228,-1005.5 228,-999.5 228,-999.5 228,-810.5 228,-810.5 228,-804.5 234,-798.5 240,-798.5"/>
<text text-anchor="middle" x="280.5" y="-996.3" font-family="Times,serif" font-size="14.00">PrizesController</text>
<polyline fill="none" stroke="black" points="228,-988.5 333,-988.5 "/>
<text text-anchor="start" x="236" y="-973.3" font-family="Times,serif" font-size="14.00">create</text>
<text text-anchor="start" x="236" y="-958.3" font-family="Times,serif" font-size="14.00">destroy</text>
<text text-anchor="start" x="236" y="-943.3" font-family="Times,serif" font-size="14.00">edit</text>
<text text-anchor="start" x="236" y="-928.3" font-family="Times,serif" font-size="14.00">index</text>
<text text-anchor="start" x="236" y="-913.3" font-family="Times,serif" font-size="14.00">new</text>
<text text-anchor="start" x="236" y="-898.3" font-family="Times,serif" font-size="14.00">show</text>
<text text-anchor="start" x="236" y="-883.3" font-family="Times,serif" font-size="14.00">update</text>
<polyline fill="none" stroke="black" points="228,-875.5 333,-875.5 "/>
<polyline fill="none" stroke="black" points="228,-851.5 333,-851.5 "/>
<text text-anchor="start" x="236" y="-836.3" font-family="Times,serif" font-size="14.00">_layout</text>
<text text-anchor="start" x="236" y="-821.3" font-family="Times,serif" font-size="14.00">prize_params</text>
<text text-anchor="start" x="236" y="-806.3" font-family="Times,serif" font-size="14.00">set_prize</text>
</g>
</g>
</svg>
