<?xml version="1.0" encoding="UTF-8" standalone="no"?>
<!DOCTYPE svg PUBLIC "-//W3C//DTD SVG 1.1//EN"
 "http://www.w3.org/Graphics/SVG/1.1/DTD/svg11.dtd">
<!-- Generated by graphviz version 2.36.0 (20140111.2315)
 -->
<!-- Title: models_diagram Pages: 1 -->
<svg width="1022pt" height="350pt"
 viewBox="0.00 0.00 1022.00 350.00" xmlns="http://www.w3.org/2000/svg" xmlns:xlink="http://www.w3.org/1999/xlink">
<g id="graph0" class="graph" transform="scale(1 1) rotate(0) translate(4 346)">
<title>models_diagram</title>
<polygon fill="white" stroke="none" points="-4,4 -4,-346 1018,-346 1018,4 -4,4"/>
<!-- _diagram_info -->
<g id="node1" class="node"><title>_diagram_info</title>
<text text-anchor="start" x="21" y="-327.6" font-family="Times,serif" font-size="13.00">Models diagram</text>
<text text-anchor="start" x="21" y="-313.6" font-family="Times,serif" font-size="13.00">Date: Jun 20 2015 &#45; 15:17</text>
<text text-anchor="start" x="21" y="-299.6" font-family="Times,serif" font-size="13.00">Migration version: 20150619193344</text>
<text text-anchor="start" x="21" y="-285.6" font-family="Times,serif" font-size="13.00">Generated by RailRoady 1.3.0</text>
<text text-anchor="start" x="21" y="-271.6" font-family="Times,serif" font-size="13.00">http://railroady.prestonlee.com</text>
</g>
<!-- Profile -->
<g id="node2" class="node"><title>Profile</title>
<ellipse fill="none" stroke="black" cx="980" cy="-194" rx="34.1708" ry="18"/>
<text text-anchor="middle" x="980" y="-190.3" font-family="Times,serif" font-size="14.00">Profile</text>
</g>
<!-- Award -->
<g id="node3" class="node"><title>Award</title>
<ellipse fill="none" stroke="black" cx="34" cy="-18" rx="34.1708" ry="18"/>
<text text-anchor="middle" x="34" y="-14.3" font-family="Times,serif" font-size="14.00">Award</text>
</g>
<!-- Follow -->
<g id="node4" class="node"><title>Follow</title>
<ellipse fill="none" stroke="black" cx="520" cy="-194" rx="35.6194" ry="18"/>
<text text-anchor="middle" x="520" y="-190.3" font-family="Times,serif" font-size="14.00">Follow</text>
</g>
<!-- Category -->
<g id="node5" class="node"><title>Category</title>
<ellipse fill="none" stroke="black" cx="394" cy="-303" rx="42.3456" ry="18"/>
<text text-anchor="middle" x="394" y="-299.3" font-family="Times,serif" font-size="14.00">Category</text>
</g>
<!-- Category&#45;&gt;Category -->
<g id="edge1" class="edge"><title>Category&#45;&gt;Category</title>
<path fill="none" stroke="#11dd04" d="M434.433,-314.924C445.528,-314.338 454,-310.363 454,-303 454,-296.132 446.63,-292.212 436.636,-291.24"/>
<ellipse fill="none" stroke="#11dd04" cx="430.404" cy="-314.856" rx="4" ry="4"/>
<polygon fill="#11dd04" stroke="#11dd04" points="436.405,-291.24 426.417,-286.712 431.405,-291.226 426.405,-291.212 426.405,-291.212 426.405,-291.212 431.405,-291.226 426.392,-295.712 436.405,-291.24 436.405,-291.24"/>
<text text-anchor="middle" x="476.5" y="-299.3" font-family="Times,serif" font-size="14.00">children</text>
</g>
<!-- Book -->
<g id="node10" class="node"><title>Book</title>
<ellipse fill="none" stroke="black" cx="314" cy="-194" rx="29.3479" ry="18"/>
<text text-anchor="middle" x="314" y="-190.3" font-family="Times,serif" font-size="14.00">Book</text>
</g>
<!-- Category&#45;&gt;Book -->
<g id="edge2" class="edge"><title>Category&#45;&gt;Book</title>
<path fill="none" stroke="#ed2393" d="M375.688,-277.507C362.497,-259.865 344.797,-236.19 331.739,-218.726"/>
<polygon fill="#ed2393" stroke="#ed2393" points="375.862,-277.74 378.246,-288.444 378.856,-281.745 381.85,-285.749 381.85,-285.749 381.85,-285.749 378.856,-281.745 385.454,-283.054 375.862,-277.74 375.862,-277.74"/>
<polygon fill="#ed2393" stroke="#ed2393" points="331.731,-218.715 329.347,-208.011 328.737,-214.71 325.743,-210.706 325.743,-210.706 325.743,-210.706 328.737,-214.71 322.138,-213.4 331.731,-218.715 331.731,-218.715"/>
</g>
<!-- Contribution -->
<g id="node6" class="node"><title>Contribution</title>
<ellipse fill="none" stroke="black" cx="142" cy="-18" rx="55.3436" ry="18"/>
<text text-anchor="middle" x="142" y="-14.3" font-family="Times,serif" font-size="14.00">Contribution</text>
</g>
<!-- Publisher -->
<g id="node7" class="node"><title>Publisher</title>
<ellipse fill="none" stroke="black" cx="289" cy="-303" rx="44.2946" ry="18"/>
<text text-anchor="middle" x="289" y="-299.3" font-family="Times,serif" font-size="14.00">Publisher</text>
</g>
<!-- Impression -->
<g id="node8" class="node"><title>Impression</title>
<ellipse fill="none" stroke="black" cx="456" cy="-18" rx="50.0684" ry="18"/>
<text text-anchor="middle" x="456" y="-14.3" font-family="Times,serif" font-size="14.00">Impression</text>
</g>
<!-- Publisher&#45;&gt;Impression -->
<g id="edge5" class="edge"><title>Publisher&#45;&gt;Impression</title>
<path fill="none" stroke="#12d2d2" d="M315.406,-281.944C323.745,-275.919 333.106,-269.462 342,-264 384.686,-237.783 414.47,-253.851 442,-212 475.317,-161.352 468.62,-86.2084 461.766,-46.2697"/>
<ellipse fill="none" stroke="#12d2d2" cx="311.902" cy="-284.51" rx="4.00002" ry="4.00002"/>
<polygon fill="#12d2d2" stroke="#12d2d2" points="461.726,-46.0516 464.333,-35.4 460.817,-41.1349 459.908,-36.2182 459.908,-36.2182 459.908,-36.2182 460.817,-41.1349 455.483,-37.0364 461.726,-46.0516 461.726,-46.0516"/>
</g>
<!-- Publisher&#45;&gt;Book -->
<g id="edge4" class="edge"><title>Publisher&#45;&gt;Book</title>
<path fill="none" stroke="#b9c9af" d="M294.894,-276.772C298.748,-260.278 303.777,-238.755 307.708,-221.93"/>
<ellipse fill="none" stroke="#b9c9af" cx="293.927" cy="-280.914" rx="4.00001" ry="4.00001"/>
<polygon fill="#b9c9af" stroke="#b9c9af" points="307.718,-221.886 314.375,-213.173 308.856,-217.018 309.993,-212.149 309.993,-212.149 309.993,-212.149 308.856,-217.018 305.611,-211.125 307.718,-221.886 307.718,-221.886"/>
</g>
<!-- Place -->
<g id="node11" class="node"><title>Place</title>
<ellipse fill="none" stroke="black" cx="236" cy="-194" rx="29.3479" ry="18"/>
<text text-anchor="middle" x="236" y="-190.3" font-family="Times,serif" font-size="14.00">Place</text>
</g>
<!-- Publisher&#45;&gt;Place -->
<g id="edge3" class="edge"><title>Publisher&#45;&gt;Place</title>
<path fill="none" stroke="#44d076" d="M277.098,-277.972C268.649,-260.915 257.323,-238.048 248.7,-220.64"/>
<ellipse fill="none" stroke="#44d076" cx="278.943" cy="-281.697" rx="4.00002" ry="4.00002"/>
<polygon fill="#44d076" stroke="#44d076" points="248.662,-220.562 248.256,-209.604 246.442,-216.082 244.223,-211.601 244.223,-211.601 244.223,-211.601 246.442,-216.082 240.191,-213.599 248.662,-220.562 248.662,-220.562"/>
</g>
<!-- User -->
<g id="node9" class="node"><title>User</title>
<ellipse fill="none" stroke="black" cx="586" cy="-303" rx="26.949" ry="18"/>
<text text-anchor="middle" x="586" y="-299.3" font-family="Times,serif" font-size="14.00">User</text>
</g>
<!-- User&#45;&gt;Profile -->
<g id="edge8" class="edge"><title>User&#45;&gt;Profile</title>
<path fill="none" stroke="#f55bd4" d="M620.629,-297.269C673.329,-289.553 776.465,-272.418 861,-246 891.587,-236.441 925.014,-221.712 948.63,-210.535"/>
<ellipse fill="none" stroke="#f55bd4" cx="616.573" cy="-297.855" rx="4.00001" ry="4.00001"/>
<ellipse fill="#f55bd4" stroke="#f55bd4" cx="952.328" cy="-208.767" rx="4.00002" ry="4.00002"/>
</g>
<!-- User&#45;&gt;Follow -->
<g id="edge13" class="edge"><title>User&#45;&gt;Follow</title>
<path fill="none" stroke="#f6e065" d="M553.866,-291.787C532.739,-283.207 506.728,-268.648 494,-246 489.034,-237.163 492.152,-227.271 497.702,-218.569"/>
<ellipse fill="none" stroke="#f6e065" cx="557.661" cy="-293.246" rx="4.00001" ry="4.00001"/>
<polygon fill="#f6e065" stroke="#f6e065" points="497.863,-218.353 507.456,-213.041 500.857,-214.349 503.852,-210.345 503.852,-210.345 503.852,-210.345 500.857,-214.349 500.249,-207.65 497.863,-218.353 497.863,-218.353"/>
</g>
<!-- User&#45;&gt;Follow -->
<g id="edge14" class="edge"><title>User&#45;&gt;Follow</title>
<path fill="none" stroke="#4efe76" d="M557.126,-287.923C541.247,-278.473 522.99,-264.381 514,-246 510.365,-238.567 510.154,-229.82 511.362,-221.689"/>
<ellipse fill="none" stroke="#4efe76" cx="560.733" cy="-289.966" rx="4.00002" ry="4.00002"/>
<polygon fill="#4efe76" stroke="#4efe76" points="511.374,-221.635 517.898,-212.822 512.438,-216.75 513.501,-211.864 513.501,-211.864 513.501,-211.864 512.438,-216.75 509.104,-210.907 511.374,-221.635 511.374,-221.635"/>
<text text-anchor="middle" x="543" y="-234.3" font-family="Times,serif" font-size="14.00">followings</text>
</g>
<!-- User&#45;&gt;Book -->
<g id="edge11" class="edge"><title>User&#45;&gt;Book</title>
<path fill="none" stroke="#4256b9" d="M557.093,-285.97C542.676,-278.484 524.774,-269.935 508,-264 474.46,-252.133 463.766,-257.209 430,-246 400.587,-236.236 368.418,-221.774 345.433,-210.742"/>
<polygon fill="#4256b9" stroke="#4256b9" points="557.18,-286.017 563.91,-294.675 561.598,-288.358 566.017,-290.698 566.017,-290.698 566.017,-290.698 561.598,-288.358 568.123,-286.722 557.18,-286.017 557.18,-286.017"/>
<polygon fill="#4256b9" stroke="#4256b9" points="345.175,-210.616 338.146,-202.199 340.677,-208.432 336.18,-206.247 336.18,-206.247 336.18,-206.247 340.677,-208.432 334.214,-210.295 345.175,-210.616 345.175,-210.616"/>
</g>
<!-- Shelf -->
<g id="node12" class="node"><title>Shelf</title>
<ellipse fill="none" stroke="black" cx="577" cy="-106" rx="29.3722" ry="18"/>
<text text-anchor="middle" x="577" y="-102.3" font-family="Times,serif" font-size="14.00">Shelf</text>
</g>
<!-- User&#45;&gt;Shelf -->
<g id="edge9" class="edge"><title>User&#45;&gt;Shelf</title>
<path fill="none" stroke="#6c049a" d="M584.832,-276.698C583.141,-240.045 580.02,-172.431 578.272,-134.555"/>
<ellipse fill="none" stroke="#6c049a" cx="585.017" cy="-280.699" rx="4" ry="4"/>
<polygon fill="#6c049a" stroke="#6c049a" points="578.258,-134.256 582.292,-124.059 578.027,-129.261 577.797,-124.266 577.797,-124.266 577.797,-124.266 578.027,-129.261 573.302,-124.474 578.258,-134.256 578.258,-134.256"/>
</g>
<!-- Bookshelf -->
<g id="node13" class="node"><title>Bookshelf</title>
<ellipse fill="none" stroke="black" cx="577" cy="-18" rx="46.1964" ry="18"/>
<text text-anchor="middle" x="577" y="-14.3" font-family="Times,serif" font-size="14.00">Bookshelf</text>
</g>
<!-- User&#45;&gt;Bookshelf -->
<g id="edge10" class="edge"><title>User&#45;&gt;Bookshelf</title>
<path fill="none" stroke="#69b5fc" d="M621.368,-294.751C683.274,-280.186 801.819,-242.902 770,-176 738.065,-108.854 661.812,-61.0212 615.281,-36.8884"/>
<polygon fill="#69b5fc" stroke="#69b5fc" points="621.342,-294.757 610.593,-292.586 616.467,-295.865 611.591,-296.974 611.591,-296.974 611.591,-296.974 616.467,-295.865 612.588,-301.362 621.342,-294.757 621.342,-294.757"/>
<polygon fill="#69b5fc" stroke="#69b5fc" points="615.031,-36.7615 608.147,-28.2258 610.571,-34.5005 606.112,-32.2395 606.112,-32.2395 606.112,-32.2395 610.571,-34.5005 604.077,-36.2531 615.031,-36.7615 615.031,-36.7615"/>
</g>
<!-- Author -->
<g id="node15" class="node"><title>Author</title>
<ellipse fill="none" stroke="black" cx="225" cy="-106" rx="35.6194" ry="18"/>
<text text-anchor="middle" x="225" y="-102.3" font-family="Times,serif" font-size="14.00">Author</text>
</g>
<!-- User&#45;&gt;Author -->
<g id="edge12" class="edge"><title>User&#45;&gt;Author</title>
<path fill="none" stroke="#ce3d84" d="M556.704,-285.953C537.065,-275.027 510.736,-260.052 488,-246 464.827,-231.678 458.418,-228.835 437,-212 400.896,-183.621 401.342,-163.94 361,-142 332.512,-126.507 296.915,-117.665 269.285,-112.745"/>
<polygon fill="#ce3d84" stroke="#ce3d84" points="556.742,-285.974 563.31,-294.756 561.116,-288.397 565.49,-290.82 565.49,-290.82 565.49,-290.82 561.116,-288.397 567.67,-286.883 556.742,-285.974 556.742,-285.974"/>
<polygon fill="#ce3d84" stroke="#ce3d84" points="268.98,-112.694 259.859,-106.608 264.049,-111.87 259.117,-111.046 259.117,-111.046 259.117,-111.046 264.049,-111.87 258.375,-115.484 268.98,-112.694 268.98,-112.694"/>
<text text-anchor="middle" x="456" y="-190.3" font-family="Times,serif" font-size="14.00">writers</text>
</g>
<!-- Royce::Connector -->
<g id="node16" class="node"><title>Royce::Connector</title>
<ellipse fill="none" stroke="black" cx="687" cy="-194" rx="74.6146" ry="18"/>
<text text-anchor="middle" x="687" y="-190.3" font-family="Times,serif" font-size="14.00">Royce::Connector</text>
</g>
<!-- User&#45;&gt;Royce::Connector -->
<g id="edge6" class="edge"><title>User&#45;&gt;Royce::Connector</title>
<path fill="none" stroke="#2939e2" d="M605.639,-281.194C622.344,-263.496 646.356,-238.058 663.965,-219.403"/>
<ellipse fill="none" stroke="#2939e2" cx="602.789" cy="-284.213" rx="4.00002" ry="4.00002"/>
<polygon fill="#2939e2" stroke="#2939e2" points="664.216,-219.138 674.352,-214.955 667.648,-215.502 671.08,-211.866 671.08,-211.866 671.08,-211.866 667.648,-215.502 667.807,-208.777 664.216,-219.138 664.216,-219.138"/>
<text text-anchor="middle" x="695.5" y="-234.3" font-family="Times,serif" font-size="14.00">role_connectors</text>
</g>
<!-- Royce::Role -->
<g id="node17" class="node"><title>Royce::Role</title>
<ellipse fill="none" stroke="black" cx="873" cy="-194" rx="54.3924" ry="18"/>
<text text-anchor="middle" x="873" y="-190.3" font-family="Times,serif" font-size="14.00">Royce::Role</text>
</g>
<!-- User&#45;&gt;Royce::Role -->
<g id="edge7" class="edge"><title>User&#45;&gt;Royce::Role</title>
<path fill="none" stroke="#c19c27" d="M622.697,-296.99C667.252,-289.928 743.89,-274.591 804,-246 819.411,-238.67 834.847,-227.687 847.2,-217.788"/>
<polygon fill="#c19c27" stroke="#c19c27" points="622.509,-297.018 611.944,-294.083 617.567,-297.775 612.625,-298.531 612.625,-298.531 612.625,-298.531 617.567,-297.775 613.305,-302.98 622.509,-297.018 622.509,-297.018"/>
<polygon fill="#c19c27" stroke="#c19c27" points="847.509,-217.533 858.085,-214.637 851.365,-214.35 855.22,-211.167 855.22,-211.167 855.22,-211.167 851.365,-214.35 852.356,-207.697 847.509,-217.533 847.509,-217.533"/>
<text text-anchor="middle" x="843.5" y="-234.3" font-family="Times,serif" font-size="14.00">roles</text>
</g>
<!-- Book&#45;&gt;Award -->
<g id="edge17" class="edge"><title>Book&#45;&gt;Award</title>
<path fill="none" stroke="#f45e5a" d="M283.36,-179.267C280.229,-178.078 277.071,-176.964 274,-176 236.741,-164.307 222.811,-175.695 188,-158 131.413,-129.235 79.7475,-74.1922 53.0492,-42.6893"/>
<ellipse fill="none" stroke="#f45e5a" cx="287.308" cy="-180.844" rx="4.00001" ry="4.00001"/>
<polygon fill="#f45e5a" stroke="#f45e5a" points="52.91,-42.5224 49.9598,-31.9608 49.7071,-38.6829 46.5042,-34.8434 46.5042,-34.8434 46.5042,-34.8434 49.7071,-38.6829 43.0487,-37.726 52.91,-42.5224 52.91,-42.5224"/>
</g>
<!-- Book&#45;&gt;Contribution -->
<g id="edge15" class="edge"><title>Book&#45;&gt;Contribution</title>
<path fill="none" stroke="#06e6c1" d="M283.284,-179.496C280.168,-178.261 277.034,-177.074 274,-176 246.547,-166.286 235.751,-173.343 211,-158 171.534,-133.536 153.934,-79.0111 146.646,-45.9896"/>
<ellipse fill="none" stroke="#06e6c1" cx="287.222" cy="-181.106" rx="4.00001" ry="4.00001"/>
<polygon fill="#06e6c1" stroke="#06e6c1" points="146.625,-45.8876 149.036,-35.1901 145.626,-40.9884 144.627,-36.0892 144.627,-36.0892 144.627,-36.0892 145.626,-40.9884 140.218,-36.9883 146.625,-45.8876 146.625,-45.8876"/>
</g>
<!-- Book&#45;&gt;Impression -->
<g id="edge22" class="edge"><title>Book&#45;&gt;Impression</title>
<path fill="none" stroke="#d646c4" d="M340.962,-175.646C347.938,-170.454 355.13,-164.419 361,-158 385.641,-131.056 383.434,-118.169 404,-88 414.327,-72.8511 426.647,-56.4388 436.702,-43.4229"/>
<ellipse fill="none" stroke="#d646c4" cx="337.37" cy="-178.214" rx="4.00002" ry="4.00002"/>
<polygon fill="#d646c4" stroke="#d646c4" points="436.798,-43.2996 446.49,-38.1709 439.868,-39.3535 442.939,-35.4074 442.939,-35.4074 442.939,-35.4074 439.868,-39.3535 439.387,-32.6438 436.798,-43.2996 436.798,-43.2996"/>
</g>
<!-- Book&#45;&gt;Shelf -->
<g id="edge21" class="edge"><title>Book&#45;&gt;Shelf</title>
<path fill="none" stroke="#006b4d" d="M349.495,-181.393C399.887,-164.915 491.61,-134.922 541.826,-118.502"/>
<polygon fill="#006b4d" stroke="#006b4d" points="349.201,-181.489 338.298,-180.32 344.449,-183.043 339.696,-184.597 339.696,-184.597 339.696,-184.597 344.449,-183.043 341.095,-188.875 349.201,-181.489 349.201,-181.489"/>
<polygon fill="#006b4d" stroke="#006b4d" points="542.082,-118.418 552.985,-119.587 546.834,-116.864 551.586,-115.31 551.586,-115.31 551.586,-115.31 546.834,-116.864 550.188,-111.033 542.082,-118.418 542.082,-118.418"/>
</g>
<!-- Book&#45;&gt;Bookshelf -->
<g id="edge20" class="edge"><title>Book&#45;&gt;Bookshelf</title>
<path fill="none" stroke="#202203" d="M344.021,-178.717C356.043,-172.697 369.888,-165.381 382,-158 443.954,-120.245 512.056,-69.3719 549.135,-40.81"/>
<ellipse fill="none" stroke="#202203" cx="340.388" cy="-180.513" rx="4.00002" ry="4.00002"/>
<polygon fill="#202203" stroke="#202203" points="549.526,-40.5077 560.189,-37.9484 553.481,-37.4484 557.436,-34.389 557.436,-34.389 557.436,-34.389 553.481,-37.4484 554.682,-30.8297 549.526,-40.5077 549.526,-40.5077"/>
</g>
<!-- Book&#45;&gt;Author -->
<g id="edge16" class="edge"><title>Book&#45;&gt;Author</title>
<path fill="none" stroke="#2e239c" d="M281.375,-178.865C278.889,-177.871 276.411,-176.905 274,-176 249.92,-166.962 234.096,-178.824 219,-158 213.941,-151.021 213.559,-142.039 215.043,-133.562"/>
<polygon fill="#2e239c" stroke="#2e239c" points="281.622,-178.966 289.156,-186.934 286.246,-180.869 290.869,-182.773 290.869,-182.773 290.869,-182.773 286.246,-180.869 292.582,-178.611 281.622,-178.966 281.622,-178.966"/>
<polygon fill="#2e239c" stroke="#2e239c" points="215.103,-133.327 221.949,-124.761 216.347,-128.484 217.59,-123.642 217.59,-123.642 217.59,-123.642 216.347,-128.484 213.231,-122.523 215.103,-133.327 215.103,-133.327"/>
</g>
<!-- Book&#45;&gt;Author -->
<g id="edge18" class="edge"><title>Book&#45;&gt;Author</title>
<path fill="none" stroke="#dce4c4" d="M281.324,-178.492C261.843,-169.72 240.583,-159.875 239,-158 233.358,-151.316 229.976,-142.544 227.954,-134.164"/>
<polygon fill="#dce4c4" stroke="#dce4c4" points="281.525,-178.583 288.809,-186.779 286.088,-180.628 290.65,-182.673 290.65,-182.673 290.65,-182.673 286.088,-180.628 292.491,-178.567 281.525,-178.583 281.525,-178.583"/>
<polygon fill="#dce4c4" stroke="#dce4c4" points="227.948,-134.13 230.524,-123.471 227.025,-129.216 226.101,-124.302 226.101,-124.302 226.101,-124.302 227.025,-129.216 221.679,-125.134 227.948,-134.13 227.948,-134.13"/>
<text text-anchor="middle" x="258" y="-146.3" font-family="Times,serif" font-size="14.00">writers</text>
</g>
<!-- Book&#45;&gt;Author -->
<g id="edge19" class="edge"><title>Book&#45;&gt;Author</title>
<path fill="none" stroke="#4263a7" d="M298.655,-168.251C292.532,-159.42 285.027,-149.75 277,-142 270.89,-136.101 263.672,-130.546 256.59,-125.673"/>
<polygon fill="#4263a7" stroke="#4263a7" points="298.74,-168.378 300.543,-179.195 301.514,-172.538 304.287,-176.699 304.287,-176.699 304.287,-176.699 301.514,-172.538 308.032,-174.203 298.74,-168.378 298.74,-168.378"/>
<polygon fill="#4263a7" stroke="#4263a7" points="256.144,-125.38 250.255,-116.13 251.965,-122.636 247.785,-119.891 247.785,-119.891 247.785,-119.891 251.965,-122.636 245.315,-123.653 256.144,-125.38 256.144,-125.38"/>
<text text-anchor="middle" x="324" y="-146.3" font-family="Times,serif" font-size="14.00">contributors</text>
</g>
<!-- Shelf&#45;&gt;Bookshelf -->
<g id="edge23" class="edge"><title>Shelf&#45;&gt;Bookshelf</title>
<path fill="none" stroke="#a01652" d="M577,-79.3391C577,-68.8546 577,-56.7182 577,-46.091"/>
<ellipse fill="none" stroke="#a01652" cx="577" cy="-83.5966" rx="4" ry="4"/>
<polygon fill="#a01652" stroke="#a01652" points="577,-46.084 581.5,-36.084 577,-41.084 577,-36.084 577,-36.084 577,-36.084 577,-41.084 572.5,-36.0841 577,-46.084 577,-46.084"/>
</g>
<!-- Prize -->
<g id="node14" class="node"><title>Prize</title>
<ellipse fill="none" stroke="black" cx="105" cy="-194" rx="28.3955" ry="18"/>
<text text-anchor="middle" x="105" y="-190.3" font-family="Times,serif" font-size="14.00">Prize</text>
</g>
<!-- Prize&#45;&gt;Award -->
<g id="edge24" class="edge"><title>Prize&#45;&gt;Award</title>
<path fill="none" stroke="#2368da" d="M84.2147,-172.538C80.4187,-168.022 76.7844,-163.066 74,-158 54.2666,-122.095 43.439,-75.4962 38.1809,-46.419"/>
<ellipse fill="none" stroke="#2368da" cx="87.1458" cy="-175.817" rx="4.00002" ry="4.00002"/>
<polygon fill="#2368da" stroke="#2368da" points="38.1175,-46.0484 40.8669,-35.4328 37.2744,-41.12 36.4313,-36.1916 36.4313,-36.1916 36.4313,-36.1916 37.2744,-41.12 31.9958,-36.9504 38.1175,-46.0484 38.1175,-46.0484"/>
</g>
<!-- Prize&#45;&gt;Author -->
<g id="edge25" class="edge"><title>Prize&#45;&gt;Author</title>
<path fill="none" stroke="#1b2698" d="M131.591,-173.943C151.041,-160.004 177.367,-141.137 197.114,-126.985"/>
<polygon fill="#1b2698" stroke="#1b2698" points="131.354,-174.113 120.604,-176.281 127.29,-177.026 123.225,-179.938 123.225,-179.938 123.225,-179.938 127.29,-177.026 125.847,-183.596 131.354,-174.113 131.354,-174.113"/>
<polygon fill="#1b2698" stroke="#1b2698" points="197.277,-126.869 208.026,-124.701 201.341,-123.956 205.405,-121.043 205.405,-121.043 205.405,-121.043 201.341,-123.956 202.783,-117.386 197.277,-126.869 197.277,-126.869"/>
</g>
<!-- Author&#45;&gt;Award -->
<g id="edge27" class="edge"><title>Author&#45;&gt;Award</title>
<path fill="none" stroke="#fb2ea2" d="M191.535,-89.9318C156.96,-74.3642 103.263,-50.1864 68.362,-34.4719"/>
<ellipse fill="none" stroke="#fb2ea2" cx="195.594" cy="-91.7594" rx="4.00002" ry="4.00002"/>
<polygon fill="#fb2ea2" stroke="#fb2ea2" points="68.1664,-34.3839 60.8957,-26.175 63.6073,-32.331 59.0481,-30.2782 59.0481,-30.2782 59.0481,-30.2782 63.6073,-32.331 57.2005,-34.3815 68.1664,-34.3839 68.1664,-34.3839"/>
</g>
<!-- Author&#45;&gt;Contribution -->
<g id="edge26" class="edge"><title>Author&#45;&gt;Contribution</title>
<path fill="none" stroke="#2c7bdc" d="M205.334,-83.1342C197.013,-74.0206 187.145,-63.3926 178,-54 174.294,-50.1941 170.313,-46.2169 166.397,-42.3657"/>
<ellipse fill="none" stroke="#2c7bdc" cx="208.129" cy="-86.2084" rx="4.00002" ry="4.00002"/>
<polygon fill="#2c7bdc" stroke="#2c7bdc" points="166.199,-42.1725 162.179,-31.9703 162.619,-38.6827 159.038,-35.1929 159.038,-35.1929 159.038,-35.1929 162.619,-38.6827 155.897,-38.4156 166.199,-42.1725 166.199,-42.1725"/>
</g>
<!-- Author&#45;&gt;Impression -->
<g id="edge28" class="edge"><title>Author&#45;&gt;Impression</title>
<path fill="none" stroke="#16f7f0" d="M264.355,-95.6335C287.435,-89.5518 316.898,-80.7586 342,-70 355.174,-64.3538 357.112,-60.2708 370,-54 383.779,-47.2957 399.184,-40.7443 413.106,-35.1568"/>
<ellipse fill="none" stroke="#16f7f0" cx="260.347" cy="-96.6693" rx="4.00001" ry="4.00001"/>
<polygon fill="#16f7f0" stroke="#16f7f0" points="413.171,-35.1311 424.126,-35.6368 417.821,-33.2917 422.47,-31.4524 422.47,-31.4524 422.47,-31.4524 417.821,-33.2917 420.815,-27.2679 413.171,-35.1311 413.171,-35.1311"/>
</g>
<!-- PgSearch::Document -->
<g id="node18" class="node"><title>PgSearch::Document</title>
<ellipse fill="none" stroke="black" cx="302" cy="-18" rx="85.19" ry="18"/>
<text text-anchor="middle" x="302" y="-14.3" font-family="Times,serif" font-size="14.00">PgSearch::Document</text>
</g>
<!-- Author&#45;&gt;PgSearch::Document -->
<g id="edge29" class="edge"><title>Author&#45;&gt;PgSearch::Document</title>
<path fill="none" stroke="#03d47f" d="M220.276,-79.9252C219.901,-71.1048 221.076,-61.5251 226,-54 230.593,-46.9802 236.982,-41.3465 244.122,-36.8306"/>
<ellipse fill="none" stroke="#03d47f" cx="220.665" cy="-84.0748" rx="4" ry="4"/>
<ellipse fill="#03d47f" stroke="#03d47f" cx="247.991" cy="-34.6449" rx="4.00002" ry="4.00002"/>
<text text-anchor="middle" x="284" y="-58.3" font-family="Times,serif" font-size="14.00">pg_search_document</text>
</g>
</g>
</svg>
