<?xml version="1.0" encoding="UTF-8" standalone="no"?>
<!DOCTYPE svg PUBLIC "-//W3C//DTD SVG 1.1//EN"
 "http://www.w3.org/Graphics/SVG/1.1/DTD/svg11.dtd">
<!-- Generated by graphviz version 2.44.1 (20200629.0846)
 -->
<!-- Title: models_diagram Pages: 1 -->
<svg width="1655pt" height="406pt"
 viewBox="0.00 0.00 1655.00 406.00" xmlns="http://www.w3.org/2000/svg" xmlns:xlink="http://www.w3.org/1999/xlink">
<g id="graph0" class="graph" transform="scale(1 1) rotate(0) translate(4 402)">
<title>models_diagram</title>
<polygon fill="transparent" stroke="transparent" points="-4,4 -4,-402 1651,-402 1651,4 -4,4"/>
<!-- _diagram_info -->
<g id="node1" class="node">
<title>_diagram_info</title>
<text text-anchor="start" x="8" y="-383.6" font-family="Times,serif" font-size="13.00">Models diagram</text>
<text text-anchor="start" x="8" y="-369.6" font-family="Times,serif" font-size="13.00">Date: Jan 04 2021 &#45; 00:10</text>
<text text-anchor="start" x="8" y="-355.6" font-family="Times,serif" font-size="13.00">Migration version: 20201127215147</text>
<text text-anchor="start" x="8" y="-341.6" font-family="Times,serif" font-size="13.00">Generated by RailRoady 1.5.3</text>
<text text-anchor="start" x="8" y="-327.6" font-family="Times,serif" font-size="13.00">http://railroady.prestonlee.com</text>
</g>
<!-- Genre -->
<g id="node2" class="node">
<title>Genre</title>
<ellipse fill="none" stroke="black" cx="621" cy="-359" rx="32.49" ry="18"/>
<text text-anchor="middle" x="621" y="-355.3" font-family="Times,serif" font-size="14.00">Genre</text>
</g>
<!-- Book -->
<g id="node7" class="node">
<title>Book</title>
<ellipse fill="none" stroke="black" cx="714" cy="-251" rx="29.8" ry="18"/>
<text text-anchor="middle" x="714" y="-247.3" font-family="Times,serif" font-size="14.00">Book</text>
</g>
<!-- Genre&#45;&gt;Book -->
<g id="edge1" class="edge">
<title>Genre&#45;&gt;Book</title>
<path fill="none" stroke="#763e13" d="M640.01,-336.33C655.63,-318.53 677.7,-293.38 693.66,-275.18"/>
<ellipse fill="none" stroke="#763e13" cx="637.36" cy="-339.35" rx="4" ry="4"/>
<polygon fill="#763e13" stroke="#763e13" points="693.93,-274.88 703.91,-270.33 697.23,-271.12 700.52,-267.36 700.52,-267.36 700.52,-267.36 697.23,-271.12 697.14,-264.39 693.93,-274.88 693.93,-274.88"/>
</g>
<!-- Award -->
<g id="node3" class="node">
<title>Award</title>
<ellipse fill="none" stroke="black" cx="706" cy="-18" rx="34.39" ry="18"/>
<text text-anchor="middle" x="706" y="-14.3" font-family="Times,serif" font-size="14.00">Award</text>
</g>
<!-- Category -->
<g id="node4" class="node">
<title>Category</title>
<ellipse fill="none" stroke="black" cx="714" cy="-359" rx="42.79" ry="18"/>
<text text-anchor="middle" x="714" y="-355.3" font-family="Times,serif" font-size="14.00">Category</text>
</g>
<!-- Category&#45;&gt;Category -->
<g id="edge2" class="edge">
<title>Category&#45;&gt;Category</title>
<path fill="none" stroke="#18333b" d="M754.8,-370.94C766.18,-370.39 774.9,-366.41 774.9,-359 774.9,-352.01 767.16,-348.08 756.74,-347.19"/>
<ellipse fill="none" stroke="#18333b" cx="750.58" cy="-370.85" rx="4" ry="4"/>
<polygon fill="#18333b" stroke="#18333b" points="756.58,-347.19 746.56,-342.74 751.58,-347.22 746.58,-347.24 746.58,-347.24 746.58,-347.24 751.58,-347.22 746.6,-351.74 756.58,-347.19 756.58,-347.19"/>
<text text-anchor="middle" x="797.4" y="-355.3" font-family="Times,serif" font-size="14.00">children</text>
</g>
<!-- Category&#45;&gt;Book -->
<g id="edge3" class="edge">
<title>Category&#45;&gt;Book</title>
<path fill="none" stroke="#ae4fba" d="M714,-330.93C714,-315.19 714,-295.39 714,-279.57"/>
<polygon fill="#ae4fba" stroke="#ae4fba" points="714,-330.97 709.5,-340.97 714,-335.97 714,-340.97 714,-340.97 714,-340.97 714,-335.97 718.5,-340.97 714,-330.97 714,-330.97"/>
<polygon fill="#ae4fba" stroke="#ae4fba" points="714,-279.34 718.5,-269.34 714,-274.34 714,-269.34 714,-269.34 714,-269.34 714,-274.34 709.5,-269.34 714,-279.34 714,-279.34"/>
</g>
<!-- Rating -->
<g id="node10" class="node">
<title>Rating</title>
<ellipse fill="none" stroke="black" cx="1107" cy="-91" rx="34.39" ry="18"/>
<text text-anchor="middle" x="1107" y="-87.3" font-family="Times,serif" font-size="14.00">Rating</text>
</g>
<!-- Category&#45;&gt;Rating -->
<g id="edge4" class="edge">
<title>Category&#45;&gt;Rating</title>
<path fill="none" stroke="#4dbf07" d="M755.04,-344.46C819.67,-322.26 947.99,-274.57 1047,-215 1067.04,-202.94 1075.76,-201.93 1088,-182 1099.65,-163.03 1104.24,-138.03 1106.01,-119.19"/>
<ellipse fill="none" stroke="#4dbf07" cx="750.89" cy="-345.88" rx="4" ry="4"/>
<polygon fill="#4dbf07" stroke="#4dbf07" points="1106.02,-119.15 1111.24,-109.5 1106.38,-114.16 1106.75,-109.17 1106.75,-109.17 1106.75,-109.17 1106.38,-114.16 1102.26,-108.84 1106.02,-119.15 1106.02,-119.15"/>
</g>
<!-- Impression -->
<g id="node16" class="node">
<title>Impression</title>
<ellipse fill="none" stroke="black" cx="330" cy="-91" rx="50.09" ry="18"/>
<text text-anchor="middle" x="330" y="-87.3" font-family="Times,serif" font-size="14.00">Impression</text>
</g>
<!-- Category&#45;&gt;Impression -->
<g id="edge5" class="edge">
<title>Category&#45;&gt;Impression</title>
<path fill="none" stroke="#f9c851" d="M688.94,-337.54C680.67,-331.39 671.23,-324.97 662,-320 544.23,-256.62 489.48,-291.81 380,-215 364.25,-203.95 360.74,-199.13 352,-182 341.92,-162.24 336.31,-137.64 333.29,-119.16"/>
<ellipse fill="none" stroke="#f9c851" cx="692.39" cy="-340.18" rx="4" ry="4"/>
<polygon fill="#f9c851" stroke="#f9c851" points="333.26,-118.96 336.24,-108.41 332.53,-114.02 331.79,-109.07 331.79,-109.07 331.79,-109.07 332.53,-114.02 327.34,-109.73 333.26,-118.96 333.26,-118.96"/>
</g>
<!-- Publisher -->
<g id="node5" class="node">
<title>Publisher</title>
<ellipse fill="none" stroke="black" cx="274" cy="-359" rx="44.39" ry="18"/>
<text text-anchor="middle" x="274" y="-355.3" font-family="Times,serif" font-size="14.00">Publisher</text>
</g>
<!-- Publisher&#45;&gt;Book -->
<g id="edge7" class="edge">
<title>Publisher&#45;&gt;Book</title>
<path fill="none" stroke="#b60dd6" d="M319.06,-347.15C406.11,-326.17 595.91,-280.45 676.55,-261.02"/>
<ellipse fill="none" stroke="#b60dd6" cx="315.02" cy="-348.12" rx="4" ry="4"/>
<polygon fill="#b60dd6" stroke="#b60dd6" points="677.01,-260.91 687.79,-262.94 681.87,-259.74 686.73,-258.57 686.73,-258.57 686.73,-258.57 681.87,-259.74 685.68,-254.19 677.01,-260.91 677.01,-260.91"/>
</g>
<!-- Publisher&#45;&gt;Impression -->
<g id="edge8" class="edge">
<title>Publisher&#45;&gt;Impression</title>
<path fill="none" stroke="#111789" d="M257.99,-334.49C242.93,-309.38 224.18,-268.42 235,-233 249.07,-186.95 283.78,-142.34 307.12,-116.03"/>
<ellipse fill="none" stroke="#111789" cx="260.2" cy="-338.04" rx="4" ry="4"/>
<polygon fill="#111789" stroke="#111789" points="307.25,-115.88 317.29,-111.49 310.6,-112.17 313.96,-108.47 313.96,-108.47 313.96,-108.47 310.6,-112.17 310.62,-105.45 307.25,-115.88 307.25,-115.88"/>
</g>
<!-- Place -->
<g id="node21" class="node">
<title>Place</title>
<ellipse fill="none" stroke="black" cx="274" cy="-251" rx="29.8" ry="18"/>
<text text-anchor="middle" x="274" y="-247.3" font-family="Times,serif" font-size="14.00">Place</text>
</g>
<!-- Publisher&#45;&gt;Place -->
<g id="edge6" class="edge">
<title>Publisher&#45;&gt;Place</title>
<path fill="none" stroke="#1b35fe" d="M274,-332.79C274,-316.74 274,-295.93 274,-279.45"/>
<ellipse fill="none" stroke="#1b35fe" cx="274" cy="-336.97" rx="4" ry="4"/>
<polygon fill="#1b35fe" stroke="#1b35fe" points="274,-279.34 278.5,-269.34 274,-274.34 274,-269.34 274,-269.34 274,-269.34 274,-274.34 269.5,-269.34 274,-279.34 274,-279.34"/>
</g>
<!-- Contribution -->
<g id="node6" class="node">
<title>Contribution</title>
<ellipse fill="none" stroke="black" cx="604" cy="-91" rx="55.79" ry="18"/>
<text text-anchor="middle" x="604" y="-87.3" font-family="Times,serif" font-size="14.00">Contribution</text>
</g>
<!-- Book&#45;&gt;Award -->
<g id="edge12" class="edge">
<title>Book&#45;&gt;Award</title>
<path fill="none" stroke="#e05656" d="M676.02,-247.25C604.39,-241.13 454.09,-223.52 427,-182 365.61,-87.92 570.96,-41.29 663.32,-25.44"/>
<ellipse fill="none" stroke="#e05656" cx="680.36" cy="-247.61" rx="4" ry="4"/>
<polygon fill="#e05656" stroke="#e05656" points="663.35,-25.44 673.96,-28.23 668.28,-24.61 673.22,-23.79 673.22,-23.79 673.22,-23.79 668.28,-24.61 672.47,-19.35 663.35,-25.44 663.35,-25.44"/>
</g>
<!-- Book&#45;&gt;Contribution -->
<g id="edge10" class="edge">
<title>Book&#45;&gt;Contribution</title>
<path fill="none" stroke="#78d96f" d="M676.12,-247.42C632.21,-243.55 563.82,-234.5 548,-215 526.39,-188.36 581.06,-187.04 585,-182 598.93,-164.16 603.26,-138.48 604.35,-119.12"/>
<ellipse fill="none" stroke="#78d96f" cx="680.3" cy="-247.77" rx="4" ry="4"/>
<polygon fill="#78d96f" stroke="#78d96f" points="604.35,-119.09 609.16,-109.24 604.51,-114.09 604.66,-109.1 604.66,-109.1 604.66,-109.1 604.51,-114.09 600.16,-108.96 604.35,-119.09 604.35,-119.09"/>
</g>
<!-- Author -->
<g id="node9" class="node">
<title>Author</title>
<ellipse fill="none" stroke="black" cx="714" cy="-164" rx="36" ry="18"/>
<text text-anchor="middle" x="714" y="-160.3" font-family="Times,serif" font-size="14.00">Author</text>
</g>
<!-- Book&#45;&gt;Author -->
<g id="edge11" class="edge">
<title>Book&#45;&gt;Author</title>
<path fill="none" stroke="#3571ef" d="M754.23,-247.18C776.32,-243.34 802.01,-234.6 816,-215 833.58,-190.39 793.49,-177.32 758.52,-170.8"/>
<polygon fill="#3571ef" stroke="#3571ef" points="753.96,-247.22 743.42,-244.21 749.01,-247.94 744.07,-248.67 744.07,-248.67 744.07,-248.67 749.01,-247.94 744.72,-253.12 753.96,-247.22 753.96,-247.22"/>
<polygon fill="#3571ef" stroke="#3571ef" points="758.23,-170.75 749.13,-164.62 753.3,-169.9 748.37,-169.05 748.37,-169.05 748.37,-169.05 753.3,-169.9 747.61,-173.49 758.23,-170.75 758.23,-170.75"/>
</g>
<!-- Book&#45;&gt;Author -->
<g id="edge13" class="edge">
<title>Book&#45;&gt;Author</title>
<path fill="none" stroke="#438028" d="M754.33,-249.8C781.29,-247.28 815,-239.05 833,-215 854.7,-185.99 801.54,-173.68 759.41,-168.55"/>
<polygon fill="#438028" stroke="#438028" points="753.98,-249.82 743.69,-246.03 748.99,-250.17 744,-250.52 744,-250.52 744,-250.52 748.99,-250.17 744.32,-255.01 753.98,-249.82 753.98,-249.82"/>
<polygon fill="#438028" stroke="#438028" points="759.2,-168.52 749.76,-162.95 754.23,-167.97 749.26,-167.42 749.26,-167.42 749.26,-167.42 754.23,-167.97 748.76,-171.89 759.2,-168.52 759.2,-168.52"/>
<text text-anchor="middle" x="858" y="-203.8" font-family="Times,serif" font-size="14.00">writers</text>
</g>
<!-- Book&#45;&gt;Author -->
<g id="edge14" class="edge">
<title>Book&#45;&gt;Author</title>
<path fill="none" stroke="#f3f4a9" d="M674.04,-250C617.83,-248.61 525.71,-240.34 558,-200 561.61,-195.49 626.45,-182.06 671.38,-173.2"/>
<polygon fill="#f3f4a9" stroke="#f3f4a9" points="674.08,-250 683.99,-254.69 679.08,-250.1 684.07,-250.19 684.07,-250.19 684.07,-250.19 679.08,-250.1 684.16,-245.69 674.08,-250 674.08,-250"/>
<polygon fill="#f3f4a9" stroke="#f3f4a9" points="671.39,-173.2 682.07,-175.69 676.3,-172.24 681.2,-171.28 681.2,-171.28 681.2,-171.28 676.3,-172.24 680.34,-166.86 671.39,-173.2 671.39,-173.2"/>
<text text-anchor="middle" x="591" y="-203.8" font-family="Times,serif" font-size="14.00">contributors</text>
</g>
<!-- Book&#45;&gt;Rating -->
<g id="edge18" class="edge">
<title>Book&#45;&gt;Rating</title>
<path fill="none" stroke="#0cb60c" d="M751.11,-246.03C793.96,-240.81 861.1,-230.44 881,-215 908.01,-194.05 888.71,-167.86 915,-146 957.06,-111.03 1020.33,-98.66 1062.61,-94.31"/>
<ellipse fill="none" stroke="#0cb60c" cx="747.12" cy="-246.51" rx="4" ry="4"/>
<polygon fill="#0cb60c" stroke="#0cb60c" points="1062.66,-94.3 1073.03,-97.87 1067.64,-93.85 1072.61,-93.39 1072.61,-93.39 1072.61,-93.39 1067.64,-93.85 1072.2,-88.91 1062.66,-94.3 1062.66,-94.3"/>
</g>
<!-- Bookshelf -->
<g id="node11" class="node">
<title>Bookshelf</title>
<ellipse fill="none" stroke="black" cx="1221" cy="-91" rx="46.59" ry="18"/>
<text text-anchor="middle" x="1221" y="-87.3" font-family="Times,serif" font-size="14.00">Bookshelf</text>
</g>
<!-- Book&#45;&gt;Bookshelf -->
<g id="edge15" class="edge">
<title>Book&#45;&gt;Bookshelf</title>
<path fill="none" stroke="#b39ad4" d="M752,-248.56C819.09,-245.54 962.75,-236.9 1082,-215 1136.4,-205.01 1164.08,-222.27 1202,-182 1217.61,-165.42 1221.72,-139.39 1222.31,-119.58"/>
<ellipse fill="none" stroke="#b39ad4" cx="747.81" cy="-248.74" rx="4" ry="4"/>
<polygon fill="#b39ad4" stroke="#b39ad4" points="1222.31,-119.31 1226.82,-109.31 1222.31,-114.31 1222.32,-109.31 1222.32,-109.31 1222.32,-109.31 1222.31,-114.31 1217.82,-109.31 1222.31,-119.31 1222.31,-119.31"/>
</g>
<!-- Comment -->
<g id="node13" class="node">
<title>Comment</title>
<ellipse fill="none" stroke="black" cx="970" cy="-164" rx="46.29" ry="18"/>
<text text-anchor="middle" x="970" y="-160.3" font-family="Times,serif" font-size="14.00">Comment</text>
</g>
<!-- Book&#45;&gt;Comment -->
<g id="edge9" class="edge">
<title>Book&#45;&gt;Comment</title>
<path fill="none" stroke="#88585b" d="M751.5,-246.93C804.36,-242.09 897.61,-231.5 927,-215 937.7,-208.99 946.98,-199.25 954.15,-189.95"/>
<ellipse fill="none" stroke="#88585b" cx="747.37" cy="-247.3" rx="4" ry="4"/>
<polygon fill="#88585b" stroke="#88585b" points="954.28,-189.77 963.77,-184.29 957.2,-185.72 960.12,-181.66 960.12,-181.66 960.12,-181.66 957.2,-185.72 956.47,-179.03 954.28,-189.77 954.28,-189.77"/>
<text text-anchor="middle" x="994" y="-203.8" font-family="Times,serif" font-size="14.00">comment_threads</text>
</g>
<!-- Book&#45;&gt;Impression -->
<g id="edge19" class="edge">
<title>Book&#45;&gt;Impression</title>
<path fill="none" stroke="#c5fea4" d="M675.8,-250.23C601.08,-249.97 438.97,-245.76 394,-215 385.23,-209 358.11,-152.76 342.13,-118.44"/>
<ellipse fill="none" stroke="#c5fea4" cx="680.03" cy="-250.23" rx="4" ry="4"/>
<polygon fill="#c5fea4" stroke="#c5fea4" points="341.95,-118.06 341.83,-107.1 339.85,-113.53 337.75,-108.99 337.75,-108.99 337.75,-108.99 339.85,-113.53 333.66,-110.88 341.95,-118.06 341.95,-118.06"/>
</g>
<!-- Shelf -->
<g id="node18" class="node">
<title>Shelf</title>
<ellipse fill="none" stroke="black" cx="1164" cy="-164" rx="29.5" ry="18"/>
<text text-anchor="middle" x="1164" y="-160.3" font-family="Times,serif" font-size="14.00">Shelf</text>
</g>
<!-- Book&#45;&gt;Shelf -->
<g id="edge16" class="edge">
<title>Book&#45;&gt;Shelf</title>
<path fill="none" stroke="#fa1ab1" d="M754.27,-249.62C817.58,-248.17 943.82,-241.82 1047,-215 1077.63,-207.04 1110.62,-192.33 1133.73,-180.92"/>
<polygon fill="#fa1ab1" stroke="#fa1ab1" points="753.93,-249.63 743.84,-245.33 748.93,-249.73 743.93,-249.83 743.93,-249.83 743.93,-249.83 748.93,-249.73 744.02,-254.33 753.93,-249.63 753.93,-249.63"/>
<polygon fill="#fa1ab1" stroke="#fa1ab1" points="1133.76,-180.91 1144.71,-180.44 1138.23,-178.66 1142.69,-176.42 1142.69,-176.42 1142.69,-176.42 1138.23,-178.66 1140.67,-172.39 1133.76,-180.91 1133.76,-180.91"/>
</g>
<!-- DailySuggestion -->
<g id="node19" class="node">
<title>DailySuggestion</title>
<ellipse fill="none" stroke="black" cx="506" cy="-164" rx="69.59" ry="18"/>
<text text-anchor="middle" x="506" y="-160.3" font-family="Times,serif" font-size="14.00">DailySuggestion</text>
</g>
<!-- Book&#45;&gt;DailySuggestion -->
<g id="edge17" class="edge">
<title>Book&#45;&gt;DailySuggestion</title>
<path fill="none" stroke="#0aaf83" d="M675.98,-248.57C624.09,-245.78 534.99,-237.73 513,-215 506.72,-208.51 504.36,-199.14 503.79,-190.26"/>
<ellipse fill="none" stroke="#0aaf83" cx="680.29" cy="-248.79" rx="4" ry="4"/>
<ellipse fill="#0aaf83" stroke="#0aaf83" cx="503.75" cy="-186.01" rx="4" ry="4"/>
</g>
<!-- Series -->
<g id="node8" class="node">
<title>Series</title>
<ellipse fill="none" stroke="black" cx="870" cy="-359" rx="32.49" ry="18"/>
<text text-anchor="middle" x="870" y="-355.3" font-family="Times,serif" font-size="14.00">Series</text>
</g>
<!-- Series&#45;&gt;Book -->
<g id="edge20" class="edge">
<title>Series&#45;&gt;Book</title>
<path fill="none" stroke="#2d43b5" d="M849.16,-337.08C842.91,-331.26 835.89,-325.13 829,-320 802.08,-299.93 768.83,-280.81 745.01,-267.99"/>
<ellipse fill="none" stroke="#2d43b5" cx="852.21" cy="-339.99" rx="4" ry="4"/>
<polygon fill="#2d43b5" stroke="#2d43b5" points="744.89,-267.92 738.18,-259.25 740.48,-265.57 736.07,-263.22 736.07,-263.22 736.07,-263.22 740.48,-265.57 733.95,-267.2 744.89,-267.92 744.89,-267.92"/>
</g>
<!-- Author&#45;&gt;Award -->
<g id="edge24" class="edge">
<title>Author&#45;&gt;Award</title>
<path fill="none" stroke="#ed2d03" d="M730.19,-139.96C735.71,-130.77 741.2,-119.81 744,-109 748.01,-93.51 748.83,-88.25 744,-73 740.54,-62.07 733.98,-51.43 727.27,-42.53"/>
<ellipse fill="none" stroke="#ed2d03" cx="727.93" cy="-143.53" rx="4" ry="4"/>
<polygon fill="#ed2d03" stroke="#ed2d03" points="727.15,-42.38 724.41,-31.77 724.02,-38.48 720.9,-34.58 720.9,-34.58 720.9,-34.58 724.02,-38.48 717.38,-37.4 727.15,-42.38 727.15,-42.38"/>
</g>
<!-- Author&#45;&gt;Contribution -->
<g id="edge21" class="edge">
<title>Author&#45;&gt;Contribution</title>
<path fill="none" stroke="#0c1054" d="M685.93,-144.88C670.91,-135.18 652.32,-123.19 636.66,-113.08"/>
<ellipse fill="none" stroke="#0c1054" cx="689.43" cy="-147.14" rx="4" ry="4"/>
<polygon fill="#0c1054" stroke="#0c1054" points="636.22,-112.8 630.26,-103.59 632.02,-110.08 627.82,-107.37 627.82,-107.37 627.82,-107.37 632.02,-110.08 625.38,-111.15 636.22,-112.8 636.22,-112.8"/>
</g>
<!-- Author&#45;&gt;Book -->
<g id="edge22" class="edge">
<title>Author&#45;&gt;Book</title>
<path fill="none" stroke="#b1ccbe" d="M674.34,-177.62C654.75,-186.15 637.2,-198.82 647,-215 653.81,-226.25 665.56,-234.05 677.33,-239.39"/>
<polygon fill="#b1ccbe" stroke="#b1ccbe" points="674.42,-177.59 685.37,-178.05 679.06,-175.73 683.7,-173.87 683.7,-173.87 683.7,-173.87 679.06,-175.73 682.03,-169.7 674.42,-177.59 674.42,-177.59"/>
<polygon fill="#b1ccbe" stroke="#b1ccbe" points="677.41,-239.42 685.01,-247.33 682.05,-241.29 686.69,-243.15 686.69,-243.15 686.69,-243.15 682.05,-241.29 688.37,-238.98 677.41,-239.42 677.41,-239.42"/>
<text text-anchor="middle" x="669.5" y="-203.8" font-family="Times,serif" font-size="14.00">writings</text>
</g>
<!-- Author&#45;&gt;Book -->
<g id="edge23" class="edge">
<title>Author&#45;&gt;Book</title>
<path fill="none" stroke="#eb4334" d="M711.34,-192.33C710.91,-199.69 710.69,-207.64 711,-215 711.11,-217.56 711.26,-220.22 711.45,-222.88"/>
<polygon fill="#eb4334" stroke="#eb4334" points="711.36,-192.09 716.59,-182.45 711.73,-187.1 712.1,-182.12 712.1,-182.12 712.1,-182.12 711.73,-187.1 707.61,-181.78 711.36,-192.09 711.36,-192.09"/>
<polygon fill="#eb4334" stroke="#eb4334" points="711.45,-222.96 707.76,-233.28 711.85,-227.94 712.24,-232.93 712.24,-232.93 712.24,-232.93 711.85,-227.94 716.73,-232.57 711.45,-222.96 711.45,-222.96"/>
<text text-anchor="middle" x="761.5" y="-203.8" font-family="Times,serif" font-size="14.00">contributed_books</text>
</g>
<!-- Author&#45;&gt;Rating -->
<g id="edge26" class="edge">
<title>Author&#45;&gt;Rating</title>
<path fill="none" stroke="#c9f0a6" d="M753.63,-153.84C787.59,-146.16 837.87,-135.15 882,-127 945.11,-115.34 1018.67,-104.39 1064.04,-97.94"/>
<ellipse fill="none" stroke="#c9f0a6" cx="749.69" cy="-154.74" rx="4" ry="4"/>
<polygon fill="#c9f0a6" stroke="#c9f0a6" points="1064.21,-97.92 1074.74,-100.98 1069.16,-97.22 1074.11,-96.52 1074.11,-96.52 1074.11,-96.52 1069.16,-97.22 1073.48,-92.06 1064.21,-97.92 1064.21,-97.92"/>
</g>
<!-- Author&#45;&gt;Impression -->
<g id="edge27" class="edge">
<title>Author&#45;&gt;Impression</title>
<path fill="none" stroke="#f2e394" d="M672.84,-155.39C602.96,-142.47 461.14,-116.25 383.59,-101.91"/>
<ellipse fill="none" stroke="#f2e394" cx="676.99" cy="-156.16" rx="4" ry="4"/>
<polygon fill="#f2e394" stroke="#f2e394" points="383.38,-101.87 374.37,-95.63 378.47,-100.96 373.55,-100.05 373.55,-100.05 373.55,-100.05 378.47,-100.96 372.73,-104.48 383.38,-101.87 383.38,-101.87"/>
</g>
<!-- Prize -->
<g id="node17" class="node">
<title>Prize</title>
<ellipse fill="none" stroke="black" cx="706" cy="-91" rx="28.7" ry="18"/>
<text text-anchor="middle" x="706" y="-87.3" font-family="Times,serif" font-size="14.00">Prize</text>
</g>
<!-- Author&#45;&gt;Prize -->
<g id="edge25" class="edge">
<title>Author&#45;&gt;Prize</title>
<path fill="none" stroke="#9ffb4b" d="M710.93,-135.75C710.31,-130.28 709.66,-124.52 709.05,-119.05"/>
<polygon fill="#9ffb4b" stroke="#9ffb4b" points="710.94,-135.88 707.59,-146.32 711.5,-140.84 712.06,-145.81 712.06,-145.81 712.06,-145.81 711.5,-140.84 716.54,-145.31 710.94,-135.88 710.94,-135.88"/>
<polygon fill="#9ffb4b" stroke="#9ffb4b" points="709.04,-118.97 712.39,-108.52 708.48,-114 707.92,-109.03 707.92,-109.03 707.92,-109.03 708.48,-114 703.45,-109.53 709.04,-118.97 709.04,-118.97"/>
</g>
<!-- Profile -->
<g id="node12" class="node">
<title>Profile</title>
<ellipse fill="none" stroke="black" cx="1476" cy="-251" rx="34.39" ry="18"/>
<text text-anchor="middle" x="1476" y="-247.3" font-family="Times,serif" font-size="14.00">Profile</text>
</g>
<!-- Comment&#45;&gt;Comment -->
<g id="edge28" class="edge">
<title>Comment&#45;&gt;Comment</title>
<path fill="none" stroke="#f9886f" d="M1021.27,-170.13C1028.95,-169.18 1034.15,-167.14 1034.15,-164 1034.15,-161.12 1029.78,-159.17 1023.14,-158.13"/>
<ellipse fill="none" stroke="#f9886f" cx="1016.86" cy="-170.44" rx="4" ry="4"/>
<polygon fill="#f9886f" stroke="#f9886f" points="1022.83,-158.1 1013.24,-152.8 1017.85,-157.69 1012.87,-157.28 1012.87,-157.28 1012.87,-157.28 1017.85,-157.69 1012.5,-161.77 1022.83,-158.1 1022.83,-158.1"/>
<text text-anchor="middle" x="1056.65" y="-160.3" font-family="Times,serif" font-size="14.00">children</text>
</g>
<!-- Follow -->
<g id="node14" class="node">
<title>Follow</title>
<ellipse fill="none" stroke="black" cx="1602" cy="-251" rx="36" ry="18"/>
<text text-anchor="middle" x="1602" y="-247.3" font-family="Times,serif" font-size="14.00">Follow</text>
</g>
<!-- ApplicationRecord -->
<g id="node15" class="node">
<title>ApplicationRecord</title>
<ellipse fill="none" stroke="black" cx="1518" cy="-359" rx="77.19" ry="18"/>
<text text-anchor="middle" x="1518" y="-355.3" font-family="Times,serif" font-size="14.00">ApplicationRecord</text>
</g>
<!-- Prize&#45;&gt;Award -->
<g id="edge29" class="edge">
<title>Prize&#45;&gt;Award</title>
<path fill="none" stroke="#b51285" d="M706,-64.79C706,-58.83 706,-52.45 706,-46.4"/>
<ellipse fill="none" stroke="#b51285" cx="706" cy="-68.81" rx="4" ry="4"/>
<polygon fill="#b51285" stroke="#b51285" points="706,-46.03 710.5,-36.03 706,-41.03 706,-36.03 706,-36.03 706,-36.03 706,-41.03 701.5,-36.03 706,-46.03 706,-46.03"/>
</g>
<!-- Shelf&#45;&gt;Rating -->
<g id="edge31" class="edge">
<title>Shelf&#45;&gt;Rating</title>
<path fill="none" stroke="#c14e08" d="M1146.49,-141.19C1140.01,-133.12 1132.64,-123.94 1126.03,-115.7"/>
<ellipse fill="none" stroke="#c14e08" cx="1149.13" cy="-144.47" rx="4" ry="4"/>
<polygon fill="#c14e08" stroke="#c14e08" points="1126,-115.67 1123.25,-105.05 1122.87,-111.77 1119.74,-107.87 1119.74,-107.87 1119.74,-107.87 1122.87,-111.77 1116.23,-110.68 1126,-115.67 1126,-115.67"/>
</g>
<!-- Shelf&#45;&gt;Bookshelf -->
<g id="edge30" class="edge">
<title>Shelf&#45;&gt;Bookshelf</title>
<path fill="none" stroke="#fef8ce" d="M1181.43,-141.29C1187.75,-133.42 1194.92,-124.48 1201.41,-116.4"/>
<ellipse fill="none" stroke="#fef8ce" cx="1178.87" cy="-144.47" rx="4" ry="4"/>
<polygon fill="#fef8ce" stroke="#fef8ce" points="1201.6,-116.16 1211.37,-111.18 1204.73,-112.26 1207.86,-108.36 1207.86,-108.36 1207.86,-108.36 1204.73,-112.26 1204.35,-105.55 1201.6,-116.16 1201.6,-116.16"/>
</g>
<!-- User -->
<g id="node20" class="node">
<title>User</title>
<ellipse fill="none" stroke="black" cx="1395" cy="-359" rx="27.1" ry="18"/>
<text text-anchor="middle" x="1395" y="-355.3" font-family="Times,serif" font-size="14.00">User</text>
</g>
<!-- User&#45;&gt;Book -->
<g id="edge35" class="edge">
<title>User&#45;&gt;Book</title>
<path fill="none" stroke="#305f8a" d="M1358.51,-352.32C1241.04,-334.04 873.31,-276.8 752.72,-258.03"/>
<polygon fill="#305f8a" stroke="#305f8a" points="1358.84,-352.37 1368.03,-358.36 1363.78,-353.14 1368.72,-353.91 1368.72,-353.91 1368.72,-353.91 1363.78,-353.14 1369.41,-349.46 1358.84,-352.37 1358.84,-352.37"/>
<polygon fill="#305f8a" stroke="#305f8a" points="752.7,-258.02 743.51,-252.04 747.76,-257.25 742.82,-256.49 742.82,-256.49 742.82,-256.49 747.76,-257.25 742.13,-260.93 752.7,-258.02 752.7,-258.02"/>
</g>
<!-- User&#45;&gt;Author -->
<g id="edge36" class="edge">
<title>User&#45;&gt;Author</title>
<path fill="none" stroke="#f45140" d="M1359.99,-349.52C1316.81,-338.95 1241.25,-320.06 1177,-302 1128.68,-288.42 1104.7,-304.27 1069,-269 1046.1,-246.38 1071.96,-220.33 1047,-200 1041.47,-195.5 848.76,-177.33 759.08,-169.1"/>
<polygon fill="#f45140" stroke="#f45140" points="1360.01,-349.53 1368.66,-356.27 1364.87,-350.71 1369.73,-351.9 1369.73,-351.9 1369.73,-351.9 1364.87,-350.71 1370.79,-347.53 1360.01,-349.53 1360.01,-349.53"/>
<polygon fill="#f45140" stroke="#f45140" points="758.88,-169.08 749.34,-163.69 753.9,-168.62 748.93,-168.17 748.93,-168.17 748.93,-168.17 753.9,-168.62 748.51,-172.65 758.88,-169.08 758.88,-169.08"/>
<text text-anchor="middle" x="1088" y="-247.3" font-family="Times,serif" font-size="14.00">writers</text>
</g>
<!-- User&#45;&gt;Rating -->
<g id="edge39" class="edge">
<title>User&#45;&gt;Rating</title>
<path fill="none" stroke="#e57f8f" d="M1392.84,-332.53C1389.35,-305.27 1380.31,-262.05 1357,-233 1301.22,-163.48 1201.34,-122.28 1146.22,-103.75"/>
<ellipse fill="none" stroke="#e57f8f" cx="1393.33" cy="-336.8" rx="4" ry="4"/>
<polygon fill="#e57f8f" stroke="#e57f8f" points="1145.97,-103.67 1137.87,-96.28 1141.22,-102.12 1136.47,-100.56 1136.47,-100.56 1136.47,-100.56 1141.22,-102.12 1135.07,-104.83 1145.97,-103.67 1145.97,-103.67"/>
</g>
<!-- User&#45;&gt;Bookshelf -->
<g id="edge34" class="edge">
<title>User&#45;&gt;Bookshelf</title>
<path fill="none" stroke="#8638f9" d="M1415.07,-335.38C1420.32,-330.04 1426.16,-324.58 1432,-320 1467.28,-292.36 1496.72,-307.89 1519,-269 1526.95,-255.12 1525.84,-247.47 1519,-233 1487.29,-165.91 1456.95,-159.01 1390,-127 1354.48,-110.02 1310.9,-101.25 1276.89,-96.73"/>
<polygon fill="#8638f9" stroke="#8638f9" points="1414.74,-335.73 1404.6,-339.9 1411.3,-339.36 1407.87,-342.99 1407.87,-342.99 1407.87,-342.99 1411.3,-339.36 1411.13,-346.08 1414.74,-335.73 1414.74,-335.73"/>
<polygon fill="#8638f9" stroke="#8638f9" points="1276.58,-96.69 1267.21,-91 1271.62,-96.08 1266.66,-95.46 1266.66,-95.46 1266.66,-95.46 1271.62,-96.08 1266.1,-99.93 1276.58,-96.69 1276.58,-96.69"/>
</g>
<!-- User&#45;&gt;Profile -->
<g id="edge32" class="edge">
<title>User&#45;&gt;Profile</title>
<path fill="none" stroke="#55410c" d="M1411.91,-335.87C1425.57,-317.99 1444.73,-292.91 1458.54,-274.84"/>
<ellipse fill="none" stroke="#55410c" cx="1409.38" cy="-339.18" rx="4" ry="4"/>
<ellipse fill="#55410c" stroke="#55410c" cx="1461.3" cy="-271.23" rx="4" ry="4"/>
</g>
<!-- User&#45;&gt;Comment -->
<g id="edge37" class="edge">
<title>User&#45;&gt;Comment</title>
<path fill="none" stroke="#c3dac9" d="M1361.25,-350.74C1311.56,-339.01 1217.03,-312.7 1147,-269 1109.67,-245.71 1113.63,-222.81 1076,-200 1058.65,-189.48 1037.77,-181.71 1019.14,-176.2"/>
<ellipse fill="none" stroke="#c3dac9" cx="1365.23" cy="-351.66" rx="4" ry="4"/>
<polygon fill="#c3dac9" stroke="#c3dac9" points="1018.97,-176.16 1010.56,-169.12 1014.16,-174.8 1009.35,-173.45 1009.35,-173.45 1009.35,-173.45 1014.16,-174.8 1008.13,-177.78 1018.97,-176.16 1018.97,-176.16"/>
</g>
<!-- User&#45;&gt;Follow -->
<g id="edge40" class="edge">
<title>User&#45;&gt;Follow</title>
<path fill="none" stroke="#638aa7" d="M1411.63,-336.15C1417.41,-329.99 1424.38,-323.91 1432,-320 1479.99,-295.39 1503.85,-326.29 1552,-302 1564.16,-295.87 1575.17,-285.66 1583.74,-276.06"/>
<ellipse fill="none" stroke="#638aa7" cx="1408.9" cy="-339.26" rx="4" ry="4"/>
<polygon fill="#638aa7" stroke="#638aa7" points="1583.89,-275.88 1593.78,-271.15 1587.12,-272.06 1590.34,-268.24 1590.34,-268.24 1590.34,-268.24 1587.12,-272.06 1586.91,-265.34 1583.89,-275.88 1583.89,-275.88"/>
</g>
<!-- User&#45;&gt;Follow -->
<g id="edge41" class="edge">
<title>User&#45;&gt;Follow</title>
<path fill="none" stroke="#1390f2" d="M1411.57,-336.04C1417.35,-329.87 1424.33,-323.81 1432,-320 1489.75,-291.28 1523.05,-338.83 1576,-302 1584.14,-296.34 1589.91,-287.32 1593.91,-278.5"/>
<ellipse fill="none" stroke="#1390f2" cx="1408.85" cy="-339.16" rx="4" ry="4"/>
<polygon fill="#1390f2" stroke="#1390f2" points="1593.92,-278.47 1601.77,-270.81 1595.75,-273.81 1597.58,-269.16 1597.58,-269.16 1597.58,-269.16 1595.75,-273.81 1593.4,-267.51 1593.92,-278.47 1593.92,-278.47"/>
<text text-anchor="middle" x="1618" y="-290.8" font-family="Times,serif" font-size="14.00">followings</text>
</g>
<!-- User&#45;&gt;Shelf -->
<g id="edge33" class="edge">
<title>User&#45;&gt;Shelf</title>
<path fill="none" stroke="#eb4149" d="M1393.86,-332.52C1391.27,-304.6 1383.01,-260.17 1357,-233 1316.03,-190.21 1246.55,-174.31 1203.08,-168.43"/>
<ellipse fill="none" stroke="#eb4149" cx="1394.18" cy="-336.63" rx="4" ry="4"/>
<polygon fill="#eb4149" stroke="#eb4149" points="1202.81,-168.4 1193.44,-162.7 1197.85,-167.78 1192.89,-167.17 1192.89,-167.17 1192.89,-167.17 1197.85,-167.78 1192.34,-171.63 1202.81,-168.4 1202.81,-168.4"/>
</g>
<!-- PublicActivity::Activity -->
<g id="node22" class="node">
<title>PublicActivity::Activity</title>
<ellipse fill="none" stroke="black" cx="1252" cy="-251" rx="95.58" ry="18"/>
<text text-anchor="middle" x="1252" y="-247.3" font-family="Times,serif" font-size="14.00">PublicActivity::Activity</text>
</g>
<!-- User&#45;&gt;PublicActivity::Activity -->
<g id="edge38" class="edge">
<title>User&#45;&gt;PublicActivity::Activity</title>
<path fill="none" stroke="#425170" d="M1369.43,-341.37C1353.05,-330.52 1331.47,-315.84 1313,-302 1301.76,-293.58 1289.73,-283.88 1279.35,-275.28"/>
<ellipse fill="none" stroke="#425170" cx="1372.77" cy="-343.58" rx="4" ry="4"/>
<polygon fill="#425170" stroke="#425170" points="1279.11,-275.07 1274.32,-265.2 1275.27,-271.86 1271.43,-268.66 1271.43,-268.66 1271.43,-268.66 1275.27,-271.86 1268.55,-272.11 1279.11,-275.07 1279.11,-275.07"/>
<text text-anchor="middle" x="1337.5" y="-290.8" font-family="Times,serif" font-size="14.00">activities</text>
</g>
</g>
</svg>
