<?xml version="1.0" encoding="UTF-8" standalone="no"?>
<!DOCTYPE svg PUBLIC "-//W3C//DTD SVG 1.1//EN"
 "http://www.w3.org/Graphics/SVG/1.1/DTD/svg11.dtd">
<!-- Generated by graphviz version 2.36.0 (20140111.2315)
 -->
<!-- Title: models_diagram Pages: 1 -->
<svg width="1347pt" height="1388pt"
 viewBox="0.00 0.00 1347.00 1388.00" xmlns="http://www.w3.org/2000/svg" xmlns:xlink="http://www.w3.org/1999/xlink">
<g id="graph0" class="graph" transform="scale(1 1) rotate(0) translate(4 1384)">
<title>models_diagram</title>
<polygon fill="white" stroke="none" points="-4,4 -4,-1384 1343,-1384 1343,4 -4,4"/>
<!-- _diagram_info -->
<g id="node1" class="node"><title>_diagram_info</title>
<text text-anchor="start" x="8" y="-1283.6" font-family="Times,serif" font-size="13.00">Models diagram</text>
<text text-anchor="start" x="8" y="-1269.6" font-family="Times,serif" font-size="13.00">Date: Jun 20 2015 &#45; 15:17</text>
<text text-anchor="start" x="8" y="-1255.6" font-family="Times,serif" font-size="13.00">Migration version: 20150619193344</text>
<text text-anchor="start" x="8" y="-1241.6" font-family="Times,serif" font-size="13.00">Generated by RailRoady 1.3.0</text>
<text text-anchor="start" x="8" y="-1227.6" font-family="Times,serif" font-size="13.00">http://railroady.prestonlee.com</text>
</g>
<!-- Profile -->
<g id="node2" class="node"><title>Profile</title>
<path fill="none" stroke="black" d="M1158.5,-671.5C1158.5,-671.5 1327.5,-671.5 1327.5,-671.5 1333.5,-671.5 1339.5,-677.5 1339.5,-683.5 1339.5,-683.5 1339.5,-960.5 1339.5,-960.5 1339.5,-966.5 1333.5,-972.5 1327.5,-972.5 1327.5,-972.5 1158.5,-972.5 1158.5,-972.5 1152.5,-972.5 1146.5,-966.5 1146.5,-960.5 1146.5,-960.5 1146.5,-683.5 1146.5,-683.5 1146.5,-677.5 1152.5,-671.5 1158.5,-671.5"/>
<text text-anchor="middle" x="1243" y="-957.3" font-family="Times,serif" font-size="14.00">Profile</text>
<polyline fill="none" stroke="black" points="1146.5,-949.5 1339.5,-949.5 "/>
<text text-anchor="start" x="1154.5" y="-934.3" font-family="Times,serif" font-size="14.00">id :integer</text>
<text text-anchor="start" x="1154.5" y="-919.3" font-family="Times,serif" font-size="14.00">username :string</text>
<text text-anchor="start" x="1154.5" y="-904.3" font-family="Times,serif" font-size="14.00">name :string</text>
<text text-anchor="start" x="1154.5" y="-889.3" font-family="Times,serif" font-size="14.00">avatar :string</text>
<text text-anchor="start" x="1154.5" y="-874.3" font-family="Times,serif" font-size="14.00">cover :string</text>
<text text-anchor="start" x="1154.5" y="-859.3" font-family="Times,serif" font-size="14.00">about_me :text</text>
<text text-anchor="start" x="1154.5" y="-844.3" font-family="Times,serif" font-size="14.00">about_library :text</text>
<text text-anchor="start" x="1154.5" y="-829.3" font-family="Times,serif" font-size="14.00">account_type :integer</text>
<text text-anchor="start" x="1154.5" y="-814.3" font-family="Times,serif" font-size="14.00">privacy :integer</text>
<text text-anchor="start" x="1154.5" y="-799.3" font-family="Times,serif" font-size="14.00">language :integer</text>
<text text-anchor="start" x="1154.5" y="-784.3" font-family="Times,serif" font-size="14.00">allow_comments :boolean</text>
<text text-anchor="start" x="1154.5" y="-769.3" font-family="Times,serif" font-size="14.00">allow_friends :boolean</text>
<text text-anchor="start" x="1154.5" y="-754.3" font-family="Times,serif" font-size="14.00">email_privacy :integer</text>
<text text-anchor="start" x="1154.5" y="-739.3" font-family="Times,serif" font-size="14.00">discoverable_by_email :boolean</text>
<text text-anchor="start" x="1154.5" y="-724.3" font-family="Times,serif" font-size="14.00">receive_newsletters :boolean</text>
<text text-anchor="start" x="1154.5" y="-709.3" font-family="Times,serif" font-size="14.00">user_id :integer</text>
<text text-anchor="start" x="1154.5" y="-694.3" font-family="Times,serif" font-size="14.00">created_at :datetime</text>
<text text-anchor="start" x="1154.5" y="-679.3" font-family="Times,serif" font-size="14.00">updated_at :datetime</text>
</g>
<!-- Award -->
<g id="node3" class="node"><title>Award</title>
<path fill="none" stroke="black" d="M18,-53C18,-53 134,-53 134,-53 140,-53 146,-59 146,-65 146,-65 146,-177 146,-177 146,-183 140,-189 134,-189 134,-189 18,-189 18,-189 12,-189 6,-183 6,-177 6,-177 6,-65 6,-65 6,-59 12,-53 18,-53"/>
<text text-anchor="middle" x="76" y="-173.8" font-family="Times,serif" font-size="14.00">Award</text>
<polyline fill="none" stroke="black" points="6,-166 146,-166 "/>
<text text-anchor="start" x="14" y="-150.8" font-family="Times,serif" font-size="14.00">id :integer</text>
<text text-anchor="start" x="14" y="-135.8" font-family="Times,serif" font-size="14.00">prize_id :integer</text>
<text text-anchor="start" x="14" y="-120.8" font-family="Times,serif" font-size="14.00">year :integer</text>
<text text-anchor="start" x="14" y="-105.8" font-family="Times,serif" font-size="14.00">awardable_id :integer</text>
<text text-anchor="start" x="14" y="-90.8" font-family="Times,serif" font-size="14.00">awardable_type :string</text>
<text text-anchor="start" x="14" y="-75.8" font-family="Times,serif" font-size="14.00">created_at :datetime</text>
<text text-anchor="start" x="14" y="-60.8" font-family="Times,serif" font-size="14.00">updated_at :datetime</text>
</g>
<!-- Follow -->
<g id="node4" class="node"><title>Follow</title>
<path fill="none" stroke="black" d="M625.5,-746.5C625.5,-746.5 744.5,-746.5 744.5,-746.5 750.5,-746.5 756.5,-752.5 756.5,-758.5 756.5,-758.5 756.5,-885.5 756.5,-885.5 756.5,-891.5 750.5,-897.5 744.5,-897.5 744.5,-897.5 625.5,-897.5 625.5,-897.5 619.5,-897.5 613.5,-891.5 613.5,-885.5 613.5,-885.5 613.5,-758.5 613.5,-758.5 613.5,-752.5 619.5,-746.5 625.5,-746.5"/>
<text text-anchor="middle" x="685" y="-882.3" font-family="Times,serif" font-size="14.00">Follow</text>
<polyline fill="none" stroke="black" points="613.5,-874.5 756.5,-874.5 "/>
<text text-anchor="start" x="621.5" y="-859.3" font-family="Times,serif" font-size="14.00">id :integer</text>
<text text-anchor="start" x="621.5" y="-844.3" font-family="Times,serif" font-size="14.00">followable_id :integer</text>
<text text-anchor="start" x="621.5" y="-829.3" font-family="Times,serif" font-size="14.00">followable_type :string</text>
<text text-anchor="start" x="621.5" y="-814.3" font-family="Times,serif" font-size="14.00">follower_id :integer</text>
<text text-anchor="start" x="621.5" y="-799.3" font-family="Times,serif" font-size="14.00">follower_type :string</text>
<text text-anchor="start" x="621.5" y="-784.3" font-family="Times,serif" font-size="14.00">blocked :boolean</text>
<text text-anchor="start" x="621.5" y="-769.3" font-family="Times,serif" font-size="14.00">created_at :datetime</text>
<text text-anchor="start" x="621.5" y="-754.3" font-family="Times,serif" font-size="14.00">updated_at :datetime</text>
</g>
<!-- Category -->
<g id="node5" class="node"><title>Category</title>
<path fill="none" stroke="black" d="M426,-1161C426,-1161 566,-1161 566,-1161 572,-1161 578,-1167 578,-1173 578,-1173 578,-1345 578,-1345 578,-1351 572,-1357 566,-1357 566,-1357 426,-1357 426,-1357 420,-1357 414,-1351 414,-1345 414,-1345 414,-1173 414,-1173 414,-1167 420,-1161 426,-1161"/>
<text text-anchor="middle" x="496" y="-1341.8" font-family="Times,serif" font-size="14.00">Category</text>
<polyline fill="none" stroke="black" points="414,-1334 578,-1334 "/>
<text text-anchor="start" x="422" y="-1318.8" font-family="Times,serif" font-size="14.00">id :integer</text>
<text text-anchor="start" x="422" y="-1303.8" font-family="Times,serif" font-size="14.00">name :string</text>
<text text-anchor="start" x="422" y="-1288.8" font-family="Times,serif" font-size="14.00">ddc :string</text>
<text text-anchor="start" x="422" y="-1273.8" font-family="Times,serif" font-size="14.00">slug :string</text>
<text text-anchor="start" x="422" y="-1258.8" font-family="Times,serif" font-size="14.00">biblionet_id :integer</text>
<text text-anchor="start" x="422" y="-1243.8" font-family="Times,serif" font-size="14.00">parent_id :integer</text>
<text text-anchor="start" x="422" y="-1228.8" font-family="Times,serif" font-size="14.00">created_at :datetime</text>
<text text-anchor="start" x="422" y="-1213.8" font-family="Times,serif" font-size="14.00">updated_at :datetime</text>
<text text-anchor="start" x="422" y="-1198.8" font-family="Times,serif" font-size="14.00">impressions_count :integer</text>
<text text-anchor="start" x="422" y="-1183.8" font-family="Times,serif" font-size="14.00">featured :boolean</text>
<text text-anchor="start" x="422" y="-1168.8" font-family="Times,serif" font-size="14.00">tsearch_vector :tsvector</text>
</g>
<!-- Category&#45;&gt;Category -->
<g id="edge1" class="edge"><title>Category&#45;&gt;Category</title>
<path fill="none" stroke="#43b546" d="M585.612,-1279.15C592.058,-1274.59 596,-1267.88 596,-1259 596,-1250.86 592.688,-1244.54 587.171,-1240.03"/>
<ellipse fill="none" stroke="#43b546" cx="581.917" cy="-1281.11" rx="4.00002" ry="4.00002"/>
<polygon fill="#43b546" stroke="#43b546" points="587.065,-1239.97 580.618,-1231.1 582.725,-1237.49 578.385,-1235.01 578.385,-1235.01 578.385,-1235.01 582.725,-1237.49 576.151,-1238.91 587.065,-1239.97 587.065,-1239.97"/>
<text text-anchor="middle" x="618.5" y="-1255.3" font-family="Times,serif" font-size="14.00">children</text>
</g>
<!-- Book -->
<g id="node10" class="node"><title>Book</title>
<path fill="none" stroke="black" d="M326.5,-559C326.5,-559 471.5,-559 471.5,-559 477.5,-559 483.5,-565 483.5,-571 483.5,-571 483.5,-1073 483.5,-1073 483.5,-1079 477.5,-1085 471.5,-1085 471.5,-1085 326.5,-1085 326.5,-1085 320.5,-1085 314.5,-1079 314.5,-1073 314.5,-1073 314.5,-571 314.5,-571 314.5,-565 320.5,-559 326.5,-559"/>
<text text-anchor="middle" x="399" y="-1069.8" font-family="Times,serif" font-size="14.00">Book</text>
<polyline fill="none" stroke="black" points="314.5,-1062 483.5,-1062 "/>
<text text-anchor="start" x="322.5" y="-1046.8" font-family="Times,serif" font-size="14.00">id :integer</text>
<text text-anchor="start" x="322.5" y="-1031.8" font-family="Times,serif" font-size="14.00">title :string</text>
<text text-anchor="start" x="322.5" y="-1016.8" font-family="Times,serif" font-size="14.00">subtitle :string</text>
<text text-anchor="start" x="322.5" y="-1001.8" font-family="Times,serif" font-size="14.00">description :text</text>
<text text-anchor="start" x="322.5" y="-986.8" font-family="Times,serif" font-size="14.00">image :string</text>
<text text-anchor="start" x="322.5" y="-971.8" font-family="Times,serif" font-size="14.00">isbn :string</text>
<text text-anchor="start" x="322.5" y="-956.8" font-family="Times,serif" font-size="14.00">isbn13 :string</text>
<text text-anchor="start" x="322.5" y="-941.8" font-family="Times,serif" font-size="14.00">ismn :string</text>
<text text-anchor="start" x="322.5" y="-926.8" font-family="Times,serif" font-size="14.00">issn :string</text>
<text text-anchor="start" x="322.5" y="-911.8" font-family="Times,serif" font-size="14.00">series_name :string</text>
<text text-anchor="start" x="322.5" y="-896.8" font-family="Times,serif" font-size="14.00">pages :integer</text>
<text text-anchor="start" x="322.5" y="-881.8" font-family="Times,serif" font-size="14.00">publication_year :integer</text>
<text text-anchor="start" x="322.5" y="-866.8" font-family="Times,serif" font-size="14.00">publication_place :string</text>
<text text-anchor="start" x="322.5" y="-851.8" font-family="Times,serif" font-size="14.00">price :decimal</text>
<text text-anchor="start" x="322.5" y="-836.8" font-family="Times,serif" font-size="14.00">price_updated_at :date</text>
<text text-anchor="start" x="322.5" y="-821.8" font-family="Times,serif" font-size="14.00">size :string</text>
<text text-anchor="start" x="322.5" y="-806.8" font-family="Times,serif" font-size="14.00">cover_type :integer</text>
<text text-anchor="start" x="322.5" y="-791.8" font-family="Times,serif" font-size="14.00">availability :integer</text>
<text text-anchor="start" x="322.5" y="-776.8" font-family="Times,serif" font-size="14.00">format :integer</text>
<text text-anchor="start" x="322.5" y="-761.8" font-family="Times,serif" font-size="14.00">original_language :integer</text>
<text text-anchor="start" x="322.5" y="-746.8" font-family="Times,serif" font-size="14.00">original_title :string</text>
<text text-anchor="start" x="322.5" y="-731.8" font-family="Times,serif" font-size="14.00">publisher_id :integer</text>
<text text-anchor="start" x="322.5" y="-716.8" font-family="Times,serif" font-size="14.00">extra :string</text>
<text text-anchor="start" x="322.5" y="-701.8" font-family="Times,serif" font-size="14.00">biblionet_id :integer</text>
<text text-anchor="start" x="322.5" y="-686.8" font-family="Times,serif" font-size="14.00">created_at :datetime</text>
<text text-anchor="start" x="322.5" y="-671.8" font-family="Times,serif" font-size="14.00">updated_at :datetime</text>
<text text-anchor="start" x="322.5" y="-656.8" font-family="Times,serif" font-size="14.00">collective_work :boolean</text>
<text text-anchor="start" x="322.5" y="-641.8" font-family="Times,serif" font-size="14.00">series_volume :integer</text>
<text text-anchor="start" x="322.5" y="-626.8" font-family="Times,serif" font-size="14.00">publication_version :integer</text>
<text text-anchor="start" x="322.5" y="-611.8" font-family="Times,serif" font-size="14.00">impressions_count :integer</text>
<text text-anchor="start" x="322.5" y="-596.8" font-family="Times,serif" font-size="14.00">slug :string</text>
<text text-anchor="start" x="322.5" y="-581.8" font-family="Times,serif" font-size="14.00">language :integer</text>
<text text-anchor="start" x="322.5" y="-566.8" font-family="Times,serif" font-size="14.00">tsearch_vector :tsvector</text>
</g>
<!-- Category&#45;&gt;Book -->
<g id="edge2" class="edge"><title>Category&#45;&gt;Book</title>
<path fill="none" stroke="#e9e9ca" d="M472.139,-1150.99C468.225,-1133.44 464.019,-1114.58 459.674,-1095.1"/>
<polygon fill="#e9e9ca" stroke="#e9e9ca" points="472.176,-1151.16 469.96,-1161.9 473.264,-1156.04 474.352,-1160.92 474.352,-1160.92 474.352,-1160.92 473.264,-1156.04 478.744,-1159.94 472.176,-1151.16 472.176,-1151.16"/>
<polygon fill="#e9e9ca" stroke="#e9e9ca" points="459.637,-1094.93 461.853,-1084.19 458.549,-1090.05 457.461,-1085.17 457.461,-1085.17 457.461,-1085.17 458.549,-1090.05 453.069,-1086.15 459.637,-1094.93 459.637,-1094.93"/>
</g>
<!-- Contribution -->
<g id="node6" class="node"><title>Contribution</title>
<path fill="none" stroke="black" d="M176.5,-60.5C176.5,-60.5 283.5,-60.5 283.5,-60.5 289.5,-60.5 295.5,-66.5 295.5,-72.5 295.5,-72.5 295.5,-169.5 295.5,-169.5 295.5,-175.5 289.5,-181.5 283.5,-181.5 283.5,-181.5 176.5,-181.5 176.5,-181.5 170.5,-181.5 164.5,-175.5 164.5,-169.5 164.5,-169.5 164.5,-72.5 164.5,-72.5 164.5,-66.5 170.5,-60.5 176.5,-60.5"/>
<text text-anchor="middle" x="230" y="-166.3" font-family="Times,serif" font-size="14.00">Contribution</text>
<polyline fill="none" stroke="black" points="164.5,-158.5 295.5,-158.5 "/>
<text text-anchor="start" x="172.5" y="-143.3" font-family="Times,serif" font-size="14.00">id :integer</text>
<text text-anchor="start" x="172.5" y="-128.3" font-family="Times,serif" font-size="14.00">job :integer</text>
<text text-anchor="start" x="172.5" y="-113.3" font-family="Times,serif" font-size="14.00">book_id :integer</text>
<text text-anchor="start" x="172.5" y="-98.3" font-family="Times,serif" font-size="14.00">author_id :integer</text>
<text text-anchor="start" x="172.5" y="-83.3" font-family="Times,serif" font-size="14.00">created_at :datetime</text>
<text text-anchor="start" x="172.5" y="-68.3" font-family="Times,serif" font-size="14.00">updated_at :datetime</text>
</g>
<!-- Publisher -->
<g id="node7" class="node"><title>Publisher</title>
<path fill="none" stroke="black" d="M244,-1176C244,-1176 384,-1176 384,-1176 390,-1176 396,-1182 396,-1188 396,-1188 396,-1330 396,-1330 396,-1336 390,-1342 384,-1342 384,-1342 244,-1342 244,-1342 238,-1342 232,-1336 232,-1330 232,-1330 232,-1188 232,-1188 232,-1182 238,-1176 244,-1176"/>
<text text-anchor="middle" x="314" y="-1326.8" font-family="Times,serif" font-size="14.00">Publisher</text>
<polyline fill="none" stroke="black" points="232,-1319 396,-1319 "/>
<text text-anchor="start" x="240" y="-1303.8" font-family="Times,serif" font-size="14.00">id :integer</text>
<text text-anchor="start" x="240" y="-1288.8" font-family="Times,serif" font-size="14.00">name :string</text>
<text text-anchor="start" x="240" y="-1273.8" font-family="Times,serif" font-size="14.00">owner :string</text>
<text text-anchor="start" x="240" y="-1258.8" font-family="Times,serif" font-size="14.00">created_at :datetime</text>
<text text-anchor="start" x="240" y="-1243.8" font-family="Times,serif" font-size="14.00">updated_at :datetime</text>
<text text-anchor="start" x="240" y="-1228.8" font-family="Times,serif" font-size="14.00">biblionet_id :integer</text>
<text text-anchor="start" x="240" y="-1213.8" font-family="Times,serif" font-size="14.00">impressions_count :integer</text>
<text text-anchor="start" x="240" y="-1198.8" font-family="Times,serif" font-size="14.00">slug :string</text>
<text text-anchor="start" x="240" y="-1183.8" font-family="Times,serif" font-size="14.00">tsearch_vector :tsvector</text>
</g>
<!-- Impression -->
<g id="node8" class="node"><title>Impression</title>
<path fill="none" stroke="black" d="M514.5,-0.5C514.5,-0.5 657.5,-0.5 657.5,-0.5 663.5,-0.5 669.5,-6.5 669.5,-12.5 669.5,-12.5 669.5,-229.5 669.5,-229.5 669.5,-235.5 663.5,-241.5 657.5,-241.5 657.5,-241.5 514.5,-241.5 514.5,-241.5 508.5,-241.5 502.5,-235.5 502.5,-229.5 502.5,-229.5 502.5,-12.5 502.5,-12.5 502.5,-6.5 508.5,-0.5 514.5,-0.5"/>
<text text-anchor="middle" x="586" y="-226.3" font-family="Times,serif" font-size="14.00">Impression</text>
<polyline fill="none" stroke="black" points="502.5,-218.5 669.5,-218.5 "/>
<text text-anchor="start" x="510.5" y="-203.3" font-family="Times,serif" font-size="14.00">id :integer</text>
<text text-anchor="start" x="510.5" y="-188.3" font-family="Times,serif" font-size="14.00">impressionable_type :string</text>
<text text-anchor="start" x="510.5" y="-173.3" font-family="Times,serif" font-size="14.00">impressionable_id :integer</text>
<text text-anchor="start" x="510.5" y="-158.3" font-family="Times,serif" font-size="14.00">user_id :integer</text>
<text text-anchor="start" x="510.5" y="-143.3" font-family="Times,serif" font-size="14.00">controller_name :string</text>
<text text-anchor="start" x="510.5" y="-128.3" font-family="Times,serif" font-size="14.00">action_name :string</text>
<text text-anchor="start" x="510.5" y="-113.3" font-family="Times,serif" font-size="14.00">view_name :string</text>
<text text-anchor="start" x="510.5" y="-98.3" font-family="Times,serif" font-size="14.00">request_hash :string</text>
<text text-anchor="start" x="510.5" y="-83.3" font-family="Times,serif" font-size="14.00">ip_address :string</text>
<text text-anchor="start" x="510.5" y="-68.3" font-family="Times,serif" font-size="14.00">session_hash :string</text>
<text text-anchor="start" x="510.5" y="-53.3" font-family="Times,serif" font-size="14.00">message :text</text>
<text text-anchor="start" x="510.5" y="-38.3" font-family="Times,serif" font-size="14.00">referrer :text</text>
<text text-anchor="start" x="510.5" y="-23.3" font-family="Times,serif" font-size="14.00">created_at :datetime</text>
<text text-anchor="start" x="510.5" y="-8.3" font-family="Times,serif" font-size="14.00">updated_at :datetime</text>
</g>
<!-- Publisher&#45;&gt;Impression -->
<g id="edge5" class="edge"><title>Publisher&#45;&gt;Impression</title>
<path fill="none" stroke="#689bdd" d="M370.663,-1169.54C381.008,-1157.78 392.523,-1146.77 405,-1138 468.246,-1093.53 524.743,-1147.95 571,-1086 619.617,-1020.89 603.11,-499.904 592.303,-252.093"/>
<ellipse fill="none" stroke="#689bdd" cx="367.958" cy="-1172.71" rx="4.00002" ry="4.00002"/>
<polygon fill="#689bdd" stroke="#689bdd" points="592.296,-251.938 596.353,-241.75 592.076,-246.943 591.857,-241.947 591.857,-241.947 591.857,-241.947 592.076,-246.943 587.361,-242.145 592.296,-251.938 592.296,-251.938"/>
</g>
<!-- Publisher&#45;&gt;Book -->
<g id="edge4" class="edge"><title>Publisher&#45;&gt;Book</title>
<path fill="none" stroke="#52176a" d="M331.592,-1167.97C335.902,-1145.91 340.74,-1121.15 345.795,-1095.28"/>
<ellipse fill="none" stroke="#52176a" cx="330.805" cy="-1172" rx="4.00001" ry="4.00001"/>
<polygon fill="#52176a" stroke="#52176a" points="345.824,-1095.13 352.159,-1086.18 346.783,-1090.23 347.742,-1085.32 347.742,-1085.32 347.742,-1085.32 346.783,-1090.23 343.326,-1084.46 345.824,-1095.13 345.824,-1095.13"/>
</g>
<!-- Place -->
<g id="node11" class="node"><title>Place</title>
<path fill="none" stroke="black" d="M172,-701.5C172,-701.5 284,-701.5 284,-701.5 290,-701.5 296,-707.5 296,-713.5 296,-713.5 296,-930.5 296,-930.5 296,-936.5 290,-942.5 284,-942.5 284,-942.5 172,-942.5 172,-942.5 166,-942.5 160,-936.5 160,-930.5 160,-930.5 160,-713.5 160,-713.5 160,-707.5 166,-701.5 172,-701.5"/>
<text text-anchor="middle" x="228" y="-927.3" font-family="Times,serif" font-size="14.00">Place</text>
<polyline fill="none" stroke="black" points="160,-919.5 296,-919.5 "/>
<text text-anchor="start" x="168" y="-904.3" font-family="Times,serif" font-size="14.00">id :integer</text>
<text text-anchor="start" x="168" y="-889.3" font-family="Times,serif" font-size="14.00">name :string</text>
<text text-anchor="start" x="168" y="-874.3" font-family="Times,serif" font-size="14.00">role :string</text>
<text text-anchor="start" x="168" y="-859.3" font-family="Times,serif" font-size="14.00">address :string</text>
<text text-anchor="start" x="168" y="-844.3" font-family="Times,serif" font-size="14.00">telephone :string</text>
<text text-anchor="start" x="168" y="-829.3" font-family="Times,serif" font-size="14.00">fax :string</text>
<text text-anchor="start" x="168" y="-814.3" font-family="Times,serif" font-size="14.00">email :string</text>
<text text-anchor="start" x="168" y="-799.3" font-family="Times,serif" font-size="14.00">website :string</text>
<text text-anchor="start" x="168" y="-784.3" font-family="Times,serif" font-size="14.00">latitude :decimal</text>
<text text-anchor="start" x="168" y="-769.3" font-family="Times,serif" font-size="14.00">longitude :decimal</text>
<text text-anchor="start" x="168" y="-754.3" font-family="Times,serif" font-size="14.00">placeable_id :integer</text>
<text text-anchor="start" x="168" y="-739.3" font-family="Times,serif" font-size="14.00">placeable_type :string</text>
<text text-anchor="start" x="168" y="-724.3" font-family="Times,serif" font-size="14.00">created_at :datetime</text>
<text text-anchor="start" x="168" y="-709.3" font-family="Times,serif" font-size="14.00">updated_at :datetime</text>
</g>
<!-- Publisher&#45;&gt;Place -->
<g id="edge3" class="edge"><title>Publisher&#45;&gt;Place</title>
<path fill="none" stroke="#c85e25" d="M296.145,-1167.68C283.849,-1105.49 267.326,-1021.92 253.629,-952.635"/>
<ellipse fill="none" stroke="#c85e25" cx="296.998" cy="-1172" rx="4.00001" ry="4.00001"/>
<polygon fill="#c85e25" stroke="#c85e25" points="253.569,-952.332 256.044,-941.649 252.599,-947.427 251.63,-942.522 251.63,-942.522 251.63,-942.522 252.599,-947.427 247.215,-943.395 253.569,-952.332 253.569,-952.332"/>
</g>
<!-- User -->
<g id="node9" class="node"><title>User</title>
<path fill="none" stroke="black" d="M697,-1138.5C697,-1138.5 873,-1138.5 873,-1138.5 879,-1138.5 885,-1144.5 885,-1150.5 885,-1150.5 885,-1367.5 885,-1367.5 885,-1373.5 879,-1379.5 873,-1379.5 873,-1379.5 697,-1379.5 697,-1379.5 691,-1379.5 685,-1373.5 685,-1367.5 685,-1367.5 685,-1150.5 685,-1150.5 685,-1144.5 691,-1138.5 697,-1138.5"/>
<text text-anchor="middle" x="785" y="-1364.3" font-family="Times,serif" font-size="14.00">User</text>
<polyline fill="none" stroke="black" points="685,-1356.5 885,-1356.5 "/>
<text text-anchor="start" x="693" y="-1341.3" font-family="Times,serif" font-size="14.00">id :integer</text>
<text text-anchor="start" x="693" y="-1326.3" font-family="Times,serif" font-size="14.00">email :string</text>
<text text-anchor="start" x="693" y="-1311.3" font-family="Times,serif" font-size="14.00">encrypted_password :string</text>
<text text-anchor="start" x="693" y="-1296.3" font-family="Times,serif" font-size="14.00">reset_password_token :string</text>
<text text-anchor="start" x="693" y="-1281.3" font-family="Times,serif" font-size="14.00">reset_password_sent_at :datetime</text>
<text text-anchor="start" x="693" y="-1266.3" font-family="Times,serif" font-size="14.00">remember_created_at :datetime</text>
<text text-anchor="start" x="693" y="-1251.3" font-family="Times,serif" font-size="14.00">sign_in_count :integer</text>
<text text-anchor="start" x="693" y="-1236.3" font-family="Times,serif" font-size="14.00">current_sign_in_at :datetime</text>
<text text-anchor="start" x="693" y="-1221.3" font-family="Times,serif" font-size="14.00">last_sign_in_at :datetime</text>
<text text-anchor="start" x="693" y="-1206.3" font-family="Times,serif" font-size="14.00">current_sign_in_ip :string</text>
<text text-anchor="start" x="693" y="-1191.3" font-family="Times,serif" font-size="14.00">last_sign_in_ip :string</text>
<text text-anchor="start" x="693" y="-1176.3" font-family="Times,serif" font-size="14.00">created_at :datetime</text>
<text text-anchor="start" x="693" y="-1161.3" font-family="Times,serif" font-size="14.00">updated_at :datetime</text>
<text text-anchor="start" x="693" y="-1146.3" font-family="Times,serif" font-size="14.00">api_key :string</text>
</g>
<!-- User&#45;&gt;Profile -->
<g id="edge8" class="edge"><title>User&#45;&gt;Profile</title>
<path fill="none" stroke="#39e434" d="M892.893,-1228.17C969.912,-1201.95 1071.13,-1156.75 1137,-1086 1164.75,-1056.19 1185.64,-1018.18 1201.2,-980.382"/>
<ellipse fill="none" stroke="#39e434" cx="888.838" cy="-1229.53" rx="4.00001" ry="4.00001"/>
<ellipse fill="#39e434" stroke="#39e434" cx="1202.75" cy="-976.538" rx="4.00001" ry="4.00001"/>
</g>
<!-- User&#45;&gt;Follow -->
<g id="edge13" class="edge"><title>User&#45;&gt;Follow</title>
<path fill="none" stroke="#99c800" d="M696.863,-1130.97C695.457,-1127.33 694.164,-1123.67 693,-1120 671.086,-1050.99 670.8,-968.355 675.011,-907.792"/>
<ellipse fill="none" stroke="#99c800" cx="698.391" cy="-1134.72" rx="4.00002" ry="4.00002"/>
<polygon fill="#99c800" stroke="#99c800" points="675.034,-907.482 680.271,-897.847 675.409,-902.496 675.784,-897.51 675.784,-897.51 675.784,-897.51 675.409,-902.496 671.297,-897.173 675.034,-907.482 675.034,-907.482"/>
</g>
<!-- User&#45;&gt;Follow -->
<g id="edge14" class="edge"><title>User&#45;&gt;Follow</title>
<path fill="none" stroke="#5ae1f9" d="M716.387,-1130.6C715.174,-1127.06 714.041,-1123.52 713,-1120 692.458,-1050.51 686.006,-968.272 684.378,-907.97"/>
<ellipse fill="none" stroke="#5ae1f9" cx="717.814" cy="-1134.58" rx="4.00001" ry="4.00001"/>
<polygon fill="#5ae1f9" stroke="#5ae1f9" points="684.373,-907.728 688.642,-897.627 684.258,-902.73 684.143,-897.731 684.143,-897.731 684.143,-897.731 684.258,-902.73 679.644,-897.835 684.373,-907.728 684.373,-907.728"/>
<text text-anchor="middle" x="742" y="-1108.3" font-family="Times,serif" font-size="14.00">followings</text>
</g>
<!-- User&#45;&gt;Book -->
<g id="edge11" class="edge"><title>User&#45;&gt;Book</title>
<path fill="none" stroke="#2ca4c8" d="M676.319,-1152.56C667.773,-1147.08 658.968,-1142.14 650,-1138 597.445,-1113.73 570.431,-1150.13 521,-1120 508.431,-1112.34 497.157,-1103.1 487.044,-1092.69"/>
<polygon fill="#2ca4c8" stroke="#2ca4c8" points="676.459,-1152.65 682.276,-1161.95 680.617,-1155.43 684.775,-1158.21 684.775,-1158.21 684.775,-1158.21 680.617,-1155.43 687.274,-1154.46 676.459,-1152.65 676.459,-1152.65"/>
<polygon fill="#2ca4c8" stroke="#2ca4c8" points="487.007,-1092.65 483.535,-1082.24 483.617,-1088.97 480.227,-1085.29 480.227,-1085.29 480.227,-1085.29 483.617,-1088.97 476.919,-1088.35 487.007,-1092.65 487.007,-1092.65"/>
</g>
<!-- Shelf -->
<g id="node12" class="node"><title>Shelf</title>
<path fill="none" stroke="black" d="M713,-317C713,-317 825,-317 825,-317 831,-317 837,-323 837,-329 837,-329 837,-471 837,-471 837,-477 831,-483 825,-483 825,-483 713,-483 713,-483 707,-483 701,-477 701,-471 701,-471 701,-329 701,-329 701,-323 707,-317 713,-317"/>
<text text-anchor="middle" x="769" y="-467.8" font-family="Times,serif" font-size="14.00">Shelf</text>
<polyline fill="none" stroke="black" points="701,-460 837,-460 "/>
<text text-anchor="start" x="709" y="-444.8" font-family="Times,serif" font-size="14.00">id :integer</text>
<text text-anchor="start" x="709" y="-429.8" font-family="Times,serif" font-size="14.00">name :string</text>
<text text-anchor="start" x="709" y="-414.8" font-family="Times,serif" font-size="14.00">privacy :integer</text>
<text text-anchor="start" x="709" y="-399.8" font-family="Times,serif" font-size="14.00">built_in :boolean</text>
<text text-anchor="start" x="709" y="-384.8" font-family="Times,serif" font-size="14.00">default_name :integer</text>
<text text-anchor="start" x="709" y="-369.8" font-family="Times,serif" font-size="14.00">active :boolean</text>
<text text-anchor="start" x="709" y="-354.8" font-family="Times,serif" font-size="14.00">user_id :integer</text>
<text text-anchor="start" x="709" y="-339.8" font-family="Times,serif" font-size="14.00">created_at :datetime</text>
<text text-anchor="start" x="709" y="-324.8" font-family="Times,serif" font-size="14.00">updated_at :datetime</text>
</g>
<!-- User&#45;&gt;Shelf -->
<g id="edge9" class="edge"><title>User&#45;&gt;Shelf</title>
<path fill="none" stroke="#9eea90" d="M782.615,-1130.26C779.358,-955.802 773.596,-647.181 770.726,-493.425"/>
<ellipse fill="none" stroke="#9eea90" cx="782.692" cy="-1134.39" rx="4" ry="4"/>
<polygon fill="#9eea90" stroke="#9eea90" points="770.719,-493.074 775.032,-482.992 770.626,-488.075 770.532,-483.076 770.532,-483.076 770.532,-483.076 770.626,-488.075 766.033,-483.16 770.719,-493.074 770.719,-493.074"/>
</g>
<!-- Bookshelf -->
<g id="node13" class="node"><title>Bookshelf</title>
<path fill="none" stroke="black" d="M715.5,-68C715.5,-68 822.5,-68 822.5,-68 828.5,-68 834.5,-74 834.5,-80 834.5,-80 834.5,-162 834.5,-162 834.5,-168 828.5,-174 822.5,-174 822.5,-174 715.5,-174 715.5,-174 709.5,-174 703.5,-168 703.5,-162 703.5,-162 703.5,-80 703.5,-80 703.5,-74 709.5,-68 715.5,-68"/>
<text text-anchor="middle" x="769" y="-158.8" font-family="Times,serif" font-size="14.00">Bookshelf</text>
<polyline fill="none" stroke="black" points="703.5,-151 834.5,-151 "/>
<text text-anchor="start" x="711.5" y="-135.8" font-family="Times,serif" font-size="14.00">id :integer</text>
<text text-anchor="start" x="711.5" y="-120.8" font-family="Times,serif" font-size="14.00">book_id :integer</text>
<text text-anchor="start" x="711.5" y="-105.8" font-family="Times,serif" font-size="14.00">shelf_id :integer</text>
<text text-anchor="start" x="711.5" y="-90.8" font-family="Times,serif" font-size="14.00">created_at :datetime</text>
<text text-anchor="start" x="711.5" y="-75.8" font-family="Times,serif" font-size="14.00">updated_at :datetime</text>
</g>
<!-- User&#45;&gt;Bookshelf -->
<g id="edge10" class="edge"><title>User&#45;&gt;Bookshelf</title>
<path fill="none" stroke="#8053ce" d="M893.35,-1184.86C924.358,-1157.81 954.267,-1124.26 971,-1086 1018.01,-978.496 996.254,-672.583 971,-558 939.6,-415.53 856.837,-264.248 807.537,-182.677"/>
<polygon fill="#8053ce" stroke="#8053ce" points="893.058,-1185.11 882.529,-1188.18 889.254,-1188.36 885.45,-1191.6 885.45,-1191.6 885.45,-1191.6 889.254,-1188.36 888.37,-1195.03 893.058,-1185.11 893.058,-1185.11"/>
<polygon fill="#8053ce" stroke="#8053ce" points="807.482,-182.586 806.13,-171.704 804.884,-178.314 802.285,-174.042 802.285,-174.042 802.285,-174.042 804.884,-178.314 798.441,-176.38 807.482,-182.586 807.482,-182.586"/>
</g>
<!-- Author -->
<g id="node15" class="node"><title>Author</title>
<path fill="none" stroke="black" d="M274,-294.5C274,-294.5 414,-294.5 414,-294.5 420,-294.5 426,-300.5 426,-306.5 426,-306.5 426,-493.5 426,-493.5 426,-499.5 420,-505.5 414,-505.5 414,-505.5 274,-505.5 274,-505.5 268,-505.5 262,-499.5 262,-493.5 262,-493.5 262,-306.5 262,-306.5 262,-300.5 268,-294.5 274,-294.5"/>
<text text-anchor="middle" x="344" y="-490.3" font-family="Times,serif" font-size="14.00">Author</text>
<polyline fill="none" stroke="black" points="262,-482.5 426,-482.5 "/>
<text text-anchor="start" x="270" y="-467.3" font-family="Times,serif" font-size="14.00">id :integer</text>
<text text-anchor="start" x="270" y="-452.3" font-family="Times,serif" font-size="14.00">firstname :string</text>
<text text-anchor="start" x="270" y="-437.3" font-family="Times,serif" font-size="14.00">lastname :string</text>
<text text-anchor="start" x="270" y="-422.3" font-family="Times,serif" font-size="14.00">extra_info :string</text>
<text text-anchor="start" x="270" y="-407.3" font-family="Times,serif" font-size="14.00">biography :text</text>
<text text-anchor="start" x="270" y="-392.3" font-family="Times,serif" font-size="14.00">image :string</text>
<text text-anchor="start" x="270" y="-377.3" font-family="Times,serif" font-size="14.00">created_at :datetime</text>
<text text-anchor="start" x="270" y="-362.3" font-family="Times,serif" font-size="14.00">updated_at :datetime</text>
<text text-anchor="start" x="270" y="-347.3" font-family="Times,serif" font-size="14.00">biblionet_id :integer</text>
<text text-anchor="start" x="270" y="-332.3" font-family="Times,serif" font-size="14.00">impressions_count :integer</text>
<text text-anchor="start" x="270" y="-317.3" font-family="Times,serif" font-size="14.00">slug :string</text>
<text text-anchor="start" x="270" y="-302.3" font-family="Times,serif" font-size="14.00">tsearch_vector :tsvector</text>
</g>
<!-- User&#45;&gt;Author -->
<g id="edge12" class="edge"><title>User&#45;&gt;Author</title>
<path fill="none" stroke="#0ec368" d="M676.993,-1159.14C668.012,-1151.8 658.946,-1144.67 650,-1138 614.794,-1111.76 589.984,-1122.78 566,-1086 436.563,-887.515 589.212,-774.102 492,-558 478.352,-527.66 456.361,-499.476 433.458,-475.603"/>
<polygon fill="#0ec368" stroke="#0ec368" points="677.148,-1159.26 681.993,-1169.1 681.003,-1162.45 684.859,-1165.63 684.859,-1165.63 684.859,-1165.63 681.003,-1162.45 687.724,-1162.16 677.148,-1159.26 677.148,-1159.26"/>
<polygon fill="#0ec368" stroke="#0ec368" points="433.332,-475.474 429.542,-465.184 429.831,-471.904 426.329,-468.335 426.329,-468.335 426.329,-468.335 429.831,-471.904 423.117,-471.486 433.332,-475.474 433.332,-475.474"/>
<text text-anchor="middle" x="585" y="-818.3" font-family="Times,serif" font-size="14.00">writers</text>
</g>
<!-- Royce::Connector -->
<g id="node16" class="node"><title>Royce::Connector</title>
<ellipse fill="none" stroke="black" cx="888" cy="-822" rx="74.6146" ry="18"/>
<text text-anchor="middle" x="888" y="-818.3" font-family="Times,serif" font-size="14.00">Royce::Connector</text>
</g>
<!-- User&#45;&gt;Royce::Connector -->
<g id="edge6" class="edge"><title>User&#45;&gt;Royce::Connector</title>
<path fill="none" stroke="#3bd4fd" d="M815.193,-1130.49C838.406,-1032.45 868.63,-904.807 881.615,-849.964"/>
<ellipse fill="none" stroke="#3bd4fd" cx="814.271" cy="-1134.38" rx="4.00001" ry="4.00001"/>
<polygon fill="#3bd4fd" stroke="#3bd4fd" points="881.671,-849.727 888.354,-841.033 882.823,-844.862 883.976,-839.996 883.976,-839.996 883.976,-839.996 882.823,-844.862 879.597,-838.96 881.671,-849.727 881.671,-849.727"/>
<text text-anchor="middle" x="865.5" y="-1108.3" font-family="Times,serif" font-size="14.00">role_connectors</text>
</g>
<!-- Royce::Role -->
<g id="node17" class="node"><title>Royce::Role</title>
<ellipse fill="none" stroke="black" cx="1074" cy="-822" rx="54.3924" ry="18"/>
<text text-anchor="middle" x="1074" y="-818.3" font-family="Times,serif" font-size="14.00">Royce::Role</text>
</g>
<!-- User&#45;&gt;Royce::Role -->
<g id="edge7" class="edge"><title>User&#45;&gt;Royce::Role</title>
<path fill="none" stroke="#3f6f24" d="M894.001,-1211.74C934.413,-1189.51 977.139,-1159.07 1005,-1120 1065.22,-1035.55 1073.68,-906.387 1074.33,-850.429"/>
<polygon fill="#3f6f24" stroke="#3f6f24" points="893.957,-1211.77 883.018,-1212.54 889.553,-1214.13 885.15,-1216.5 885.15,-1216.5 885.15,-1216.5 889.553,-1214.13 887.281,-1220.47 893.957,-1211.77 893.957,-1211.77"/>
<polygon fill="#3f6f24" stroke="#3f6f24" points="1074.33,-850.248 1078.87,-840.265 1074.35,-845.248 1074.37,-840.248 1074.37,-840.248 1074.37,-840.248 1074.35,-845.248 1069.87,-840.23 1074.33,-850.248 1074.33,-850.248"/>
<text text-anchor="middle" x="1027.5" y="-1108.3" font-family="Times,serif" font-size="14.00">roles</text>
</g>
<!-- Book&#45;&gt;Award -->
<g id="edge17" class="edge"><title>Book&#45;&gt;Award</title>
<path fill="none" stroke="#565747" d="M309.206,-562.571C307.825,-561.025 306.423,-559.501 305,-558 290.745,-542.966 280.258,-549.791 262,-540 237.992,-527.126 227.712,-527.514 211,-506 139.766,-414.297 104.358,-282.108 88.1332,-199.189"/>
<ellipse fill="none" stroke="#565747" cx="311.819" cy="-565.607" rx="4.00002" ry="4.00002"/>
<polygon fill="#565747" stroke="#565747" points="88.1257,-199.15 90.6686,-188.483 87.1871,-194.238 86.2485,-189.327 86.2485,-189.327 86.2485,-189.327 87.1871,-194.238 81.8285,-190.172 88.1257,-199.15 88.1257,-199.15"/>
</g>
<!-- Book&#45;&gt;Contribution -->
<g id="edge15" class="edge"><title>Book&#45;&gt;Contribution</title>
<path fill="none" stroke="#d84048" d="M310.383,-566.758C308.618,-563.802 306.823,-560.881 305,-558 287.519,-530.384 266.405,-535.809 253,-506 207.255,-404.278 211.406,-271.857 219.82,-192.079"/>
<ellipse fill="none" stroke="#d84048" cx="312.432" cy="-570.266" rx="4.00002" ry="4.00002"/>
<polygon fill="#d84048" stroke="#d84048" points="219.874,-191.599 225.448,-182.156 220.425,-186.629 220.975,-181.66 220.975,-181.66 220.975,-181.66 220.425,-186.629 216.503,-181.164 219.874,-191.599 219.874,-191.599"/>
</g>
<!-- Book&#45;&gt;Impression -->
<g id="edge22" class="edge"><title>Book&#45;&gt;Impression</title>
<path fill="none" stroke="#dc632a" d="M462.278,-550.693C482.689,-467.987 506.215,-376.966 530,-294 533.938,-280.265 538.245,-265.978 542.665,-251.771"/>
<ellipse fill="none" stroke="#dc632a" cx="461.269" cy="-554.786" rx="4.00001" ry="4.00001"/>
<polygon fill="#dc632a" stroke="#dc632a" points="542.751,-251.498 550.035,-243.301 544.246,-246.726 545.741,-241.955 545.741,-241.955 545.741,-241.955 544.246,-246.726 541.447,-240.61 542.751,-251.498 542.751,-251.498"/>
</g>
<!-- Book&#45;&gt;Shelf -->
<g id="edge21" class="edge"><title>Book&#45;&gt;Shelf</title>
<path fill="none" stroke="#a661f7" d="M490.106,-565.587C492.349,-563 494.647,-560.469 497,-558 511.01,-543.298 520.933,-549.274 539,-540 591.532,-513.034 648.338,-478.757 692.352,-450.989"/>
<polygon fill="#a661f7" stroke="#a661f7" points="489.918,-565.814 480.072,-570.641 486.727,-569.664 483.537,-573.513 483.537,-573.513 483.537,-573.513 486.727,-569.664 487.001,-576.385 489.918,-565.814 489.918,-565.814"/>
<polygon fill="#a661f7" stroke="#a661f7" points="692.53,-450.876 703.386,-449.329 696.755,-448.201 700.979,-445.527 700.979,-445.527 700.979,-445.527 696.755,-448.201 698.572,-441.725 692.53,-450.876 692.53,-450.876"/>
</g>
<!-- Book&#45;&gt;Bookshelf -->
<g id="edge20" class="edge"><title>Book&#45;&gt;Bookshelf</title>
<path fill="none" stroke="#f2b480" d="M487.072,-578.862C490.331,-571.791 493.643,-564.823 497,-558 566.207,-417.336 668.555,-264.36 725.944,-182.245"/>
<ellipse fill="none" stroke="#f2b480" cx="485.215" cy="-582.933" rx="4.00002" ry="4.00002"/>
<polygon fill="#f2b480" stroke="#f2b480" points="725.956,-182.228 735.38,-176.621 728.825,-178.133 731.694,-174.038 731.694,-174.038 731.694,-174.038 728.825,-178.133 728.009,-171.456 725.956,-182.228 725.956,-182.228"/>
</g>
<!-- Book&#45;&gt;Author -->
<g id="edge16" class="edge"><title>Book&#45;&gt;Author</title>
<path fill="none" stroke="#54e17f" d="M331.652,-548.742C331.498,-540.425 331.603,-532.164 332,-524 332.132,-521.281 332.281,-518.529 332.444,-515.755"/>
<polygon fill="#54e17f" stroke="#54e17f" points="331.657,-548.916 327.467,-559.05 331.811,-553.914 331.965,-558.911 331.965,-558.911 331.965,-558.911 331.811,-553.914 336.463,-558.773 331.657,-548.916 331.657,-548.916"/>
<polygon fill="#54e17f" stroke="#54e17f" points="332.453,-515.608 337.585,-505.917 332.774,-510.618 333.094,-505.629 333.094,-505.629 333.094,-505.629 332.774,-510.618 328.603,-505.34 332.453,-515.608 332.453,-515.608"/>
</g>
<!-- Book&#45;&gt;Author -->
<g id="edge18" class="edge"><title>Book&#45;&gt;Author</title>
<path fill="none" stroke="#4e90b3" d="M353.018,-548.859C352.669,-545.892 352.329,-542.938 352,-540 351.12,-532.144 350.334,-524.027 349.632,-515.844"/>
<polygon fill="#4e90b3" stroke="#4e90b3" points="353.043,-549.069 349.773,-559.536 353.642,-554.033 354.241,-558.997 354.241,-558.997 354.241,-558.997 353.642,-554.033 358.708,-558.458 353.043,-549.069 353.043,-549.069"/>
<polygon fill="#4e90b3" stroke="#4e90b3" points="349.629,-515.809 353.303,-505.477 349.224,-510.826 348.818,-505.842 348.818,-505.842 348.818,-505.842 349.224,-510.826 344.333,-506.207 349.629,-515.809 349.629,-515.809"/>
<text text-anchor="middle" x="371" y="-528.3" font-family="Times,serif" font-size="14.00">writers</text>
</g>
<!-- Book&#45;&gt;Author -->
<g id="edge19" class="edge"><title>Book&#45;&gt;Author</title>
<path fill="none" stroke="#961054" d="M394.34,-548.959C393.051,-540.523 391.609,-532.186 390,-524 389.443,-521.169 388.83,-518.317 388.165,-515.453"/>
<polygon fill="#961054" stroke="#961054" points="394.347,-549.008 391.33,-559.551 395.065,-553.956 395.784,-558.904 395.784,-558.904 395.784,-558.904 395.065,-553.956 400.237,-558.258 394.347,-549.008 394.347,-549.008"/>
<polygon fill="#961054" stroke="#961054" points="388.149,-515.386 390.088,-504.593 386.936,-510.535 385.723,-505.684 385.723,-505.684 385.723,-505.684 386.936,-510.535 381.357,-506.776 388.149,-515.386 388.149,-515.386"/>
<text text-anchor="middle" x="426" y="-528.3" font-family="Times,serif" font-size="14.00">contributors</text>
</g>
<!-- Shelf&#45;&gt;Bookshelf -->
<g id="edge23" class="edge"><title>Shelf&#45;&gt;Bookshelf</title>
<path fill="none" stroke="#0ff8d3" d="M769,-308.442C769,-267.852 769,-220.996 769,-184.41"/>
<ellipse fill="none" stroke="#0ff8d3" cx="769" cy="-312.641" rx="4" ry="4"/>
<polygon fill="#0ff8d3" stroke="#0ff8d3" points="769,-184.378 773.5,-174.378 769,-179.378 769,-174.378 769,-174.378 769,-174.378 769,-179.378 764.5,-174.378 769,-184.378 769,-184.378"/>
</g>
<!-- Prize -->
<g id="node14" class="node"><title>Prize</title>
<path fill="none" stroke="black" d="M22.5,-776.5C22.5,-776.5 129.5,-776.5 129.5,-776.5 135.5,-776.5 141.5,-782.5 141.5,-788.5 141.5,-788.5 141.5,-855.5 141.5,-855.5 141.5,-861.5 135.5,-867.5 129.5,-867.5 129.5,-867.5 22.5,-867.5 22.5,-867.5 16.5,-867.5 10.5,-861.5 10.5,-855.5 10.5,-855.5 10.5,-788.5 10.5,-788.5 10.5,-782.5 16.5,-776.5 22.5,-776.5"/>
<text text-anchor="middle" x="76" y="-852.3" font-family="Times,serif" font-size="14.00">Prize</text>
<polyline fill="none" stroke="black" points="10.5,-844.5 141.5,-844.5 "/>
<text text-anchor="start" x="18.5" y="-829.3" font-family="Times,serif" font-size="14.00">id :integer</text>
<text text-anchor="start" x="18.5" y="-814.3" font-family="Times,serif" font-size="14.00">name :string</text>
<text text-anchor="start" x="18.5" y="-799.3" font-family="Times,serif" font-size="14.00">created_at :datetime</text>
<text text-anchor="start" x="18.5" y="-784.3" font-family="Times,serif" font-size="14.00">updated_at :datetime</text>
</g>
<!-- Prize&#45;&gt;Award -->
<g id="edge24" class="edge"><title>Prize&#45;&gt;Award</title>
<path fill="none" stroke="#894261" d="M76,-768.144C76,-645.763 76,-342.483 76,-199.255"/>
<ellipse fill="none" stroke="#894261" cx="76" cy="-772.478" rx="4" ry="4"/>
<polygon fill="#894261" stroke="#894261" points="76.0001,-199.224 80.5,-189.224 76,-194.224 76,-189.224 76,-189.224 76,-189.224 76,-194.224 71.5,-189.224 76.0001,-199.224 76.0001,-199.224"/>
</g>
<!-- Prize&#45;&gt;Author -->
<g id="edge25" class="edge"><title>Prize&#45;&gt;Author</title>
<path fill="none" stroke="#7a5be6" d="M81.8687,-766.066C90.0035,-709.881 108.808,-622.001 151,-558 177.301,-518.104 216.915,-483.369 253.423,-456.785"/>
<polygon fill="#7a5be6" stroke="#7a5be6" points="81.8406,-766.269 76.0131,-775.558 81.1556,-771.222 80.4707,-776.175 80.4707,-776.175 80.4707,-776.175 81.1556,-771.222 84.9282,-776.791 81.8406,-766.269 81.8406,-766.269"/>
<polygon fill="#7a5be6" stroke="#7a5be6" points="253.516,-456.719 264.266,-454.553 257.581,-453.807 261.646,-450.895 261.646,-450.895 261.646,-450.895 257.581,-453.807 259.025,-447.237 253.516,-456.719 253.516,-456.719"/>
</g>
<!-- Author&#45;&gt;Award -->
<g id="edge27" class="edge"><title>Author&#45;&gt;Award</title>
<path fill="none" stroke="#ef4c81" d="M255.028,-334.051C221.696,-307.499 184.733,-275.23 155,-242 142.861,-228.434 131.223,-212.849 120.786,-197.5"/>
<ellipse fill="none" stroke="#ef4c81" cx="258.505" cy="-336.803" rx="4.00002" ry="4.00002"/>
<polygon fill="#ef4c81" stroke="#ef4c81" points="120.67,-197.327 118.858,-186.512 117.893,-193.169 115.116,-189.011 115.116,-189.011 115.116,-189.011 117.893,-193.169 111.374,-191.511 120.67,-197.327 120.67,-197.327"/>
</g>
<!-- Author&#45;&gt;Contribution -->
<g id="edge26" class="edge"><title>Author&#45;&gt;Contribution</title>
<path fill="none" stroke="#ef21ee" d="M297.768,-286.665C284.506,-254.439 270.436,-220.252 258.574,-191.429"/>
<ellipse fill="none" stroke="#ef21ee" cx="299.379" cy="-290.579" rx="4.00001" ry="4.00001"/>
<polygon fill="#ef21ee" stroke="#ef21ee" points="258.446,-191.118 258.801,-180.158 256.543,-186.494 254.64,-181.87 254.64,-181.87 254.64,-181.87 256.543,-186.494 250.478,-183.583 258.446,-191.118 258.446,-191.118"/>
</g>
<!-- Author&#45;&gt;Impression -->
<g id="edge28" class="edge"><title>Author&#45;&gt;Impression</title>
<path fill="none" stroke="#c57ab0" d="M431.834,-309.666C452.353,-287.924 473.808,-264.455 493,-242 493.867,-240.986 494.736,-239.965 495.607,-238.937"/>
<ellipse fill="none" stroke="#c57ab0" cx="428.825" cy="-312.845" rx="4.00002" ry="4.00002"/>
<polygon fill="#c57ab0" stroke="#c57ab0" points="495.879,-238.612 505.755,-233.845 499.093,-234.782 502.307,-230.952 502.307,-230.952 502.307,-230.952 499.093,-234.782 498.86,-228.059 495.879,-238.612 495.879,-238.612"/>
</g>
<!-- PgSearch::Document -->
<g id="node18" class="node"><title>PgSearch::Document</title>
<ellipse fill="none" stroke="black" cx="399" cy="-121" rx="85.19" ry="18"/>
<text text-anchor="middle" x="399" y="-117.3" font-family="Times,serif" font-size="14.00">PgSearch::Document</text>
</g>
<!-- Author&#45;&gt;PgSearch::Document -->
<g id="edge29" class="edge"><title>Author&#45;&gt;PgSearch::Document</title>
<path fill="none" stroke="#6d59bf" d="M341.338,-286.077C342.185,-277.215 343.377,-268.437 345,-260 352.964,-218.611 372.85,-173.679 386.137,-146.69"/>
<ellipse fill="none" stroke="#6d59bf" cx="340.988" cy="-290.246" rx="4" ry="4"/>
<ellipse fill="#6d59bf" stroke="#6d59bf" cx="388.072" cy="-142.82" rx="4.00002" ry="4.00002"/>
<text text-anchor="middle" x="403" y="-264.3" font-family="Times,serif" font-size="14.00">pg_search_document</text>
</g>
</g>
</svg>
