<?xml version="1.0" encoding="UTF-8" standalone="no"?>
<!DOCTYPE svg PUBLIC "-//W3C//DTD SVG 1.1//EN"
 "http://www.w3.org/Graphics/SVG/1.1/DTD/svg11.dtd">
<!-- Generated by graphviz version 2.36.0 (20140111.2315)
 -->
<!-- Title: models_diagram Pages: 1 -->
<svg width="868pt" height="336pt"
 viewBox="0.00 0.00 868.00 336.00" xmlns="http://www.w3.org/2000/svg" xmlns:xlink="http://www.w3.org/1999/xlink">
<g id="graph0" class="graph" transform="scale(1 1) rotate(0) translate(4 332)">
<title>models_diagram</title>
<polygon fill="white" stroke="none" points="-4,4 -4,-332 864,-332 864,4 -4,4"/>
<!-- _diagram_info -->
<g id="node1" class="node"><title>_diagram_info</title>
<text text-anchor="start" x="232" y="-313.6" font-family="Times,serif" font-size="13.00">Models diagram</text>
<text text-anchor="start" x="232" y="-299.6" font-family="Times,serif" font-size="13.00">Date: May 11 2015 &#45; 14:23</text>
<text text-anchor="start" x="232" y="-285.6" font-family="Times,serif" font-size="13.00">Migration version: 20150506191847</text>
<text text-anchor="start" x="232" y="-271.6" font-family="Times,serif" font-size="13.00">Generated by RailRoady 1.3.0</text>
<text text-anchor="start" x="232" y="-257.6" font-family="Times,serif" font-size="13.00">http://railroady.prestonlee.com</text>
</g>
<!-- Profile -->
<g id="node2" class="node"><title>Profile</title>
<ellipse fill="none" stroke="black" cx="483" cy="-180" rx="34.1708" ry="18"/>
<text text-anchor="middle" x="483" y="-176.3" font-family="Times,serif" font-size="14.00">Profile</text>
</g>
<!-- Award -->
<g id="node3" class="node"><title>Award</title>
<ellipse fill="none" stroke="black" cx="76" cy="-18" rx="34.1708" ry="18"/>
<text text-anchor="middle" x="76" y="-14.3" font-family="Times,serif" font-size="14.00">Award</text>
</g>
<!-- Category -->
<g id="node4" class="node"><title>Category</title>
<ellipse fill="none" stroke="black" cx="648" cy="-289" rx="42.3456" ry="18"/>
<text text-anchor="middle" x="648" y="-285.3" font-family="Times,serif" font-size="14.00">Category</text>
</g>
<!-- Category&#45;&gt;Category -->
<g id="edge1" class="edge"><title>Category&#45;&gt;Category</title>
<path fill="none" stroke="#a0450a" d="M688.433,-300.924C699.528,-300.338 708,-296.363 708,-289 708,-282.132 700.63,-278.212 690.636,-277.24"/>
<ellipse fill="none" stroke="#a0450a" cx="684.404" cy="-300.856" rx="4" ry="4"/>
<polygon fill="#a0450a" stroke="#a0450a" points="690.405,-277.24 680.417,-272.712 685.405,-277.226 680.405,-277.212 680.405,-277.212 680.405,-277.212 685.405,-277.226 680.392,-281.712 690.405,-277.24 690.405,-277.24"/>
<text text-anchor="middle" x="730.5" y="-285.3" font-family="Times,serif" font-size="14.00">children</text>
</g>
<!-- Book -->
<g id="node8" class="node"><title>Book</title>
<ellipse fill="none" stroke="black" cx="565" cy="-180" rx="29.3479" ry="18"/>
<text text-anchor="middle" x="565" y="-176.3" font-family="Times,serif" font-size="14.00">Book</text>
</g>
<!-- Category&#45;&gt;Book -->
<g id="edge2" class="edge"><title>Category&#45;&gt;Book</title>
<path fill="none" stroke="#8c6d7d" d="M629.214,-263.782C615.517,-246.124 597.049,-222.316 583.434,-204.765"/>
<polygon fill="#8c6d7d" stroke="#8c6d7d" points="629.265,-263.848 631.838,-274.507 632.329,-267.798 635.394,-271.749 635.394,-271.749 635.394,-271.749 632.329,-267.798 638.95,-268.991 629.265,-263.848 629.265,-263.848"/>
<polygon fill="#8c6d7d" stroke="#8c6d7d" points="583.312,-204.607 580.739,-193.947 580.247,-200.656 577.183,-196.706 577.183,-196.706 577.183,-196.706 580.247,-200.656 573.627,-199.464 583.312,-204.607 583.312,-204.607"/>
</g>
<!-- Contribution -->
<g id="node5" class="node"><title>Contribution</title>
<ellipse fill="none" stroke="black" cx="470" cy="-18" rx="55.3436" ry="18"/>
<text text-anchor="middle" x="470" y="-14.3" font-family="Times,serif" font-size="14.00">Contribution</text>
</g>
<!-- Publisher -->
<g id="node6" class="node"><title>Publisher</title>
<ellipse fill="none" stroke="black" cx="816" cy="-289" rx="44.2946" ry="18"/>
<text text-anchor="middle" x="816" y="-285.3" font-family="Times,serif" font-size="14.00">Publisher</text>
</g>
<!-- Place -->
<g id="node9" class="node"><title>Place</title>
<ellipse fill="none" stroke="black" cx="816" cy="-180" rx="29.3479" ry="18"/>
<text text-anchor="middle" x="816" y="-176.3" font-family="Times,serif" font-size="14.00">Place</text>
</g>
<!-- Publisher&#45;&gt;Place -->
<g id="edge3" class="edge"><title>Publisher&#45;&gt;Place</title>
<path fill="none" stroke="#00ab91" d="M816,-262.772C816,-246.434 816,-225.161 816,-208.408"/>
<ellipse fill="none" stroke="#00ab91" cx="816" cy="-266.809" rx="4" ry="4"/>
<polygon fill="#00ab91" stroke="#00ab91" points="816,-208.149 820.5,-198.149 816,-203.149 816,-198.149 816,-198.149 816,-198.149 816,-203.149 811.5,-198.149 816,-208.149 816,-208.149"/>
</g>
<!-- User -->
<g id="node7" class="node"><title>User</title>
<ellipse fill="none" stroke="black" cx="483" cy="-289" rx="26.949" ry="18"/>
<text text-anchor="middle" x="483" y="-285.3" font-family="Times,serif" font-size="14.00">User</text>
</g>
<!-- User&#45;&gt;Profile -->
<g id="edge6" class="edge"><title>User&#45;&gt;Profile</title>
<path fill="none" stroke="#79c64b" d="M483,-262.772C483,-245.812 483,-223.533 483,-206.513"/>
<ellipse fill="none" stroke="#79c64b" cx="483" cy="-266.809" rx="4" ry="4"/>
<ellipse fill="#79c64b" stroke="#79c64b" cx="483" cy="-202.149" rx="4" ry="4"/>
</g>
<!-- User&#45;&gt;Book -->
<g id="edge9" class="edge"><title>User&#45;&gt;Book</title>
<path fill="none" stroke="#355dbd" d="M500.85,-264.708C514.43,-246.988 533.049,-222.693 546.73,-204.84"/>
<polygon fill="#355dbd" stroke="#355dbd" points="500.831,-264.732 491.177,-269.932 497.79,-268.701 494.749,-272.67 494.749,-272.67 494.749,-272.67 497.79,-268.701 498.32,-275.407 500.831,-264.732 500.831,-264.732"/>
<polygon fill="#355dbd" stroke="#355dbd" points="546.924,-204.587 556.578,-199.387 549.965,-200.619 553.007,-196.65 553.007,-196.65 553.007,-196.65 549.965,-200.619 549.435,-193.913 546.924,-204.587 546.924,-204.587"/>
</g>
<!-- Shelf -->
<g id="node10" class="node"><title>Shelf</title>
<ellipse fill="none" stroke="black" cx="680" cy="-92" rx="29.3722" ry="18"/>
<text text-anchor="middle" x="680" y="-88.3" font-family="Times,serif" font-size="14.00">Shelf</text>
</g>
<!-- User&#45;&gt;Shelf -->
<g id="edge7" class="edge"><title>User&#45;&gt;Shelf</title>
<path fill="none" stroke="#a79d1d" d="M514.632,-277.302C558.402,-262.383 632.59,-236.63 637,-232 666.141,-201.402 675.559,-151.443 678.586,-120.489"/>
<ellipse fill="none" stroke="#a79d1d" cx="510.624" cy="-278.665" rx="4.00001" ry="4.00001"/>
<polygon fill="#a79d1d" stroke="#a79d1d" points="678.596,-120.362 683.897,-110.763 679.004,-115.379 679.412,-110.396 679.412,-110.396 679.412,-110.396 679.004,-115.379 674.927,-110.028 678.596,-120.362 678.596,-120.362"/>
</g>
<!-- Bookshelf -->
<g id="node11" class="node"><title>Bookshelf</title>
<ellipse fill="none" stroke="black" cx="623" cy="-18" rx="46.1964" ry="18"/>
<text text-anchor="middle" x="623" y="-14.3" font-family="Times,serif" font-size="14.00">Bookshelf</text>
</g>
<!-- User&#45;&gt;Bookshelf -->
<g id="edge8" class="edge"><title>User&#45;&gt;Bookshelf</title>
<path fill="none" stroke="#489474" d="M514.219,-273.768C542.52,-259.083 582.797,-233.344 603,-198 630.4,-150.065 629.517,-83.0997 626.332,-46.1592"/>
<polygon fill="#489474" stroke="#489474" points="514.068,-273.844 503.112,-274.299 509.598,-276.083 505.127,-278.322 505.127,-278.322 505.127,-278.322 509.598,-276.083 507.143,-282.346 514.068,-273.844 514.068,-273.844"/>
<polygon fill="#489474" stroke="#489474" points="626.326,-46.0966 629.825,-35.7038 625.836,-41.1206 625.346,-36.1447 625.346,-36.1447 625.346,-36.1447 625.836,-41.1206 620.868,-36.5855 626.326,-46.0966 626.326,-46.0966"/>
</g>
<!-- Author -->
<g id="node13" class="node"><title>Author</title>
<ellipse fill="none" stroke="black" cx="372" cy="-92" rx="35.6194" ry="18"/>
<text text-anchor="middle" x="372" y="-88.3" font-family="Times,serif" font-size="14.00">Author</text>
</g>
<!-- User&#45;&gt;Author -->
<g id="edge10" class="edge"><title>User&#45;&gt;Author</title>
<path fill="none" stroke="#48ac77" d="M465.253,-264.709C459.719,-258.986 453.166,-253.503 446,-250 377.529,-216.528 155.543,-256.755 107,-198 44.7827,-122.694 236.066,-101.093 326.91,-95.1491"/>
<polygon fill="#48ac77" stroke="#48ac77" points="465.511,-265.001 468.757,-275.475 468.82,-268.749 472.13,-272.497 472.13,-272.497 472.13,-272.497 468.82,-268.749 475.503,-269.518 465.511,-265.001 465.511,-265.001"/>
<polygon fill="#48ac77" stroke="#48ac77" points="326.964,-95.1459 337.222,-99.021 331.955,-94.8377 336.945,-94.5295 336.945,-94.5295 336.945,-94.5295 331.955,-94.8377 336.668,-90.0381 326.964,-95.1459 326.964,-95.1459"/>
<text text-anchor="middle" x="126" y="-176.3" font-family="Times,serif" font-size="14.00">writers</text>
</g>
<!-- Royce::Connector -->
<g id="node14" class="node"><title>Royce::Connector</title>
<ellipse fill="none" stroke="black" cx="229" cy="-180" rx="74.6146" ry="18"/>
<text text-anchor="middle" x="229" y="-176.3" font-family="Times,serif" font-size="14.00">Royce::Connector</text>
</g>
<!-- User&#45;&gt;Royce::Connector -->
<g id="edge4" class="edge"><title>User&#45;&gt;Royce::Connector</title>
<path fill="none" stroke="#0f716c" d="M466.377,-266.137C460.596,-259.973 453.627,-253.894 446,-250 396.792,-224.879 375.423,-249.443 323,-232 301.547,-224.862 279.234,-212.975 261.734,-202.472"/>
<ellipse fill="none" stroke="#0f716c" cx="469.105" cy="-269.244" rx="4.00002" ry="4.00002"/>
<polygon fill="#0f716c" stroke="#0f716c" points="261.572,-202.373 255.406,-193.304 257.311,-199.756 253.051,-197.138 253.051,-197.138 253.051,-197.138 257.311,-199.756 250.695,-200.973 261.572,-202.373 261.572,-202.373"/>
<text text-anchor="middle" x="366.5" y="-220.3" font-family="Times,serif" font-size="14.00">role_connectors</text>
</g>
<!-- Royce::Role -->
<g id="node15" class="node"><title>Royce::Role</title>
<ellipse fill="none" stroke="black" cx="376" cy="-180" rx="54.3924" ry="18"/>
<text text-anchor="middle" x="376" y="-176.3" font-family="Times,serif" font-size="14.00">Royce::Role</text>
</g>
<!-- User&#45;&gt;Royce::Role -->
<g id="edge5" class="edge"><title>User&#45;&gt;Royce::Role</title>
<path fill="none" stroke="#7a991e" d="M461.805,-266.078C456.653,-260.793 451.146,-255.178 446,-250 430.917,-234.824 413.815,-217.96 400.292,-204.704"/>
<polygon fill="#7a991e" stroke="#7a991e" points="462.044,-266.325 465.786,-276.632 465.529,-269.911 469.014,-273.496 469.014,-273.496 469.014,-273.496 465.529,-269.911 472.241,-270.36 462.044,-266.325 462.044,-266.325"/>
<polygon fill="#7a991e" stroke="#7a991e" points="399.931,-204.351 395.933,-194.139 396.358,-200.853 392.785,-197.355 392.785,-197.355 392.785,-197.355 396.358,-200.853 389.637,-200.571 399.931,-204.351 399.931,-204.351"/>
<text text-anchor="middle" x="440.5" y="-220.3" font-family="Times,serif" font-size="14.00">roles</text>
</g>
<!-- Book&#45;&gt;Award -->
<g id="edge13" class="edge"><title>Book&#45;&gt;Award</title>
<path fill="none" stroke="#92a8b6" d="M535.224,-164.972C532.152,-163.843 529.041,-162.822 526,-162 459.905,-144.128 439.207,-161.452 373,-144 272.468,-117.5 161.38,-63.6004 108.042,-36.048"/>
<ellipse fill="none" stroke="#92a8b6" cx="539.005" cy="-166.476" rx="4.00001" ry="4.00001"/>
<polygon fill="#92a8b6" stroke="#92a8b6" points="107.944,-35.9975 101.151,-27.3898 103.509,-33.6896 99.0734,-31.3817 99.0734,-31.3817 99.0734,-31.3817 103.509,-33.6896 96.9963,-35.3737 107.944,-35.9975 107.944,-35.9975"/>
</g>
<!-- Book&#45;&gt;Contribution -->
<g id="edge11" class="edge"><title>Book&#45;&gt;Contribution</title>
<path fill="none" stroke="#06ebfb" d="M551.252,-155.846C533.694,-126.273 503.404,-75.26 485.183,-44.5707"/>
<ellipse fill="none" stroke="#06ebfb" cx="553.326" cy="-159.338" rx="4.00002" ry="4.00002"/>
<polygon fill="#06ebfb" stroke="#06ebfb" points="485.048,-44.3437 483.812,-33.4477 482.495,-40.0444 479.942,-35.7451 479.942,-35.7451 479.942,-35.7451 482.495,-40.0444 476.073,-38.0426 485.048,-44.3437 485.048,-44.3437"/>
</g>
<!-- Book&#45;&gt;Shelf -->
<g id="edge17" class="edge"><title>Book&#45;&gt;Shelf</title>
<path fill="none" stroke="#4d2768" d="M591.112,-159.473C609.937,-145.395 635.234,-126.477 654.027,-112.423"/>
<polygon fill="#4d2768" stroke="#4d2768" points="590.977,-159.574 580.274,-161.959 586.973,-162.568 582.969,-165.562 582.969,-165.562 582.969,-165.562 586.973,-162.568 585.664,-169.166 590.977,-159.574 590.977,-159.574"/>
<polygon fill="#4d2768" stroke="#4d2768" points="654.149,-112.332 664.852,-109.947 658.153,-109.338 662.157,-106.343 662.157,-106.343 662.157,-106.343 658.153,-109.338 659.462,-102.739 654.149,-112.332 654.149,-112.332"/>
</g>
<!-- Book&#45;&gt;Bookshelf -->
<g id="edge16" class="edge"><title>Book&#45;&gt;Bookshelf</title>
<path fill="none" stroke="#6c994d" d="M573.359,-154.278C581.993,-128.982 596.001,-88.5905 609,-54 610.036,-51.2432 611.14,-48.3742 612.257,-45.5175"/>
<ellipse fill="none" stroke="#6c994d" cx="572.042" cy="-158.148" rx="4.00001" ry="4.00001"/>
<polygon fill="#6c994d" stroke="#6c994d" points="612.332,-45.329 620.203,-37.6934 614.176,-40.6814 616.02,-36.0339 616.02,-36.0339 616.02,-36.0339 614.176,-40.6814 611.837,-34.3743 612.332,-45.329 612.332,-45.329"/>
</g>
<!-- Book&#45;&gt;Author -->
<g id="edge12" class="edge"><title>Book&#45;&gt;Author</title>
<path fill="none" stroke="#2697f1" d="M533.369,-164.338C530.904,-163.465 528.43,-162.671 526,-162 495.765,-153.649 409.677,-164.574 386,-144 379.126,-138.027 375.476,-129.026 373.585,-120.241"/>
<polygon fill="#2697f1" stroke="#2697f1" points="533.399,-164.349 541.068,-172.187 538.054,-166.173 542.71,-167.997 542.71,-167.997 542.71,-167.997 538.054,-166.173 544.351,-163.807 533.399,-164.349 533.399,-164.349"/>
<polygon fill="#2697f1" stroke="#2697f1" points="373.566,-120.11 376.535,-109.554 372.826,-115.165 372.085,-110.221 372.085,-110.221 372.085,-110.221 372.826,-115.165 367.635,-110.887 373.566,-120.11 373.566,-120.11"/>
</g>
<!-- Book&#45;&gt;Author -->
<g id="edge14" class="edge"><title>Book&#45;&gt;Author</title>
<path fill="none" stroke="#d16b95" d="M533.353,-164.395C530.892,-163.509 528.422,-162.697 526,-162 474.17,-147.097 451.524,-172.913 406,-144 396.568,-138.01 389.154,-128.354 383.688,-119.047"/>
<polygon fill="#d16b95" stroke="#d16b95" points="533.385,-164.408 541.033,-172.267 538.036,-166.245 542.686,-168.082 542.686,-168.082 542.686,-168.082 538.036,-166.245 544.339,-163.897 533.385,-164.408 533.385,-164.408"/>
<polygon fill="#d16b95" stroke="#d16b95" points="383.573,-118.83 382.841,-107.889 381.221,-114.417 378.87,-110.005 378.87,-110.005 378.87,-110.005 381.221,-114.417 374.899,-112.121 383.573,-118.83 383.573,-118.83"/>
<text text-anchor="middle" x="425" y="-132.3" font-family="Times,serif" font-size="14.00">writers</text>
</g>
<!-- Book&#45;&gt;Author -->
<g id="edge15" class="edge"><title>Book&#45;&gt;Author</title>
<path fill="none" stroke="#4fb43e" d="M532.782,-164.616C530.499,-163.701 528.222,-162.82 526,-162 500.281,-152.507 491.663,-155.973 467,-144 455.798,-138.562 454.743,-134.297 444,-128 432.268,-121.124 418.986,-114.391 407.053,-108.696"/>
<polygon fill="#4fb43e" stroke="#4fb43e" points="532.85,-164.644 540.352,-172.642 537.466,-166.566 542.081,-168.488 542.081,-168.488 542.081,-168.488 537.466,-166.566 543.811,-164.334 532.85,-164.644 532.85,-164.644"/>
<polygon fill="#4fb43e" stroke="#4fb43e" points="406.881,-108.616 399.739,-100.295 402.354,-106.493 397.828,-104.369 397.828,-104.369 397.828,-104.369 402.354,-106.493 395.917,-108.443 406.881,-108.616 406.881,-108.616"/>
<text text-anchor="middle" x="500" y="-132.3" font-family="Times,serif" font-size="14.00">contributors</text>
</g>
<!-- Shelf&#45;&gt;Bookshelf -->
<g id="edge18" class="edge"><title>Shelf&#45;&gt;Bookshelf</title>
<path fill="none" stroke="#688542" d="M662.531,-68.9336C656.1,-60.81 648.782,-51.567 642.206,-43.2605"/>
<ellipse fill="none" stroke="#688542" cx="665.149" cy="-72.2409" rx="4.00002" ry="4.00002"/>
<polygon fill="#688542" stroke="#688542" points="642.145,-43.1826 639.466,-32.549 639.041,-39.2624 635.938,-35.3421 635.938,-35.3421 635.938,-35.3421 639.041,-39.2624 632.409,-38.1353 642.145,-43.1826 642.145,-43.1826"/>
</g>
<!-- Prize -->
<g id="node12" class="node"><title>Prize</title>
<ellipse fill="none" stroke="black" cx="28" cy="-180" rx="28.3955" ry="18"/>
<text text-anchor="middle" x="28" y="-176.3" font-family="Times,serif" font-size="14.00">Prize</text>
</g>
<!-- Prize&#45;&gt;Award -->
<g id="edge19" class="edge"><title>Prize&#45;&gt;Award</title>
<path fill="none" stroke="#884bb7" d="M33.9478,-153.807C40.1616,-128.381 50.5825,-88.1058 62,-54 62.9349,-51.2073 63.9737,-48.315 65.051,-45.4443"/>
<ellipse fill="none" stroke="#884bb7" cx="32.9472" cy="-157.943" rx="4.00001" ry="4.00001"/>
<polygon fill="#884bb7" stroke="#884bb7" points="65.1242,-45.257 72.9578,-37.5833 66.9456,-40.6006 68.7669,-35.9441 68.7669,-35.9441 68.7669,-35.9441 66.9456,-40.6006 64.5761,-34.3049 65.1242,-45.257 65.1242,-45.257"/>
</g>
<!-- Prize&#45;&gt;Author -->
<g id="edge20" class="edge"><title>Prize&#45;&gt;Author</title>
<path fill="none" stroke="#d4a0ac" d="M47.9273,-156.453C58.466,-146.03 72.2604,-134.538 87,-128 128.881,-109.423 257.553,-99.4787 326.788,-95.3479"/>
<polygon fill="#d4a0ac" stroke="#d4a0ac" points="47.81,-156.574 37.6255,-160.64 44.336,-160.17 40.862,-163.766 40.862,-163.766 40.862,-163.766 44.336,-160.17 44.0984,-166.893 47.81,-156.574 47.81,-156.574"/>
<polygon fill="#d4a0ac" stroke="#d4a0ac" points="326.977,-95.337 337.221,-99.2498 331.969,-95.0472 336.961,-94.7573 336.961,-94.7573 336.961,-94.7573 331.969,-95.0472 336.7,-90.2649 326.977,-95.337 326.977,-95.337"/>
</g>
<!-- Author&#45;&gt;Award -->
<g id="edge22" class="edge"><title>Author&#45;&gt;Award</title>
<path fill="none" stroke="#f437eb" d="M332.828,-81.4717C276.566,-67.7862 173.398,-42.6915 116.44,-28.8369"/>
<ellipse fill="none" stroke="#f437eb" cx="336.996" cy="-82.4854" rx="4.00001" ry="4.00001"/>
<polygon fill="#f437eb" stroke="#f437eb" points="116.417,-28.8314 107.764,-22.0953 111.559,-27.6496 106.701,-26.4678 106.701,-26.4678 106.701,-26.4678 111.559,-27.6496 105.637,-30.8403 116.417,-28.8314 116.417,-28.8314"/>
</g>
<!-- Author&#45;&gt;Contribution -->
<g id="edge21" class="edge"><title>Author&#45;&gt;Contribution</title>
<path fill="none" stroke="#fae133" d="M397.864,-71.9982C410.974,-62.366 426.953,-50.6266 440.536,-40.6469"/>
<ellipse fill="none" stroke="#fae133" cx="394.585" cy="-74.4068" rx="4.00002" ry="4.00002"/>
<polygon fill="#fae133" stroke="#fae133" points="440.578,-40.6159 451.302,-38.3215 444.608,-37.6555 448.637,-34.6951 448.637,-34.6951 448.637,-34.6951 444.608,-37.6555 445.973,-31.0686 440.578,-40.6159 440.578,-40.6159"/>
</g>
</g>
</svg>
