<?xml version="1.0" encoding="UTF-8" standalone="no"?>
<!DOCTYPE svg PUBLIC "-//W3C//DTD SVG 1.1//EN"
 "http://www.w3.org/Graphics/SVG/1.1/DTD/svg11.dtd">
<!-- Generated by graphviz version 2.36.0 (20140111.2315)
 -->
<!-- Title: models_diagram Pages: 1 -->
<svg width="1238pt" height="1152pt"
 viewBox="0.00 0.00 1238.00 1152.00" xmlns="http://www.w3.org/2000/svg" xmlns:xlink="http://www.w3.org/1999/xlink">
<g id="graph0" class="graph" transform="scale(1 1) rotate(0) translate(4 1148)">
<title>models_diagram</title>
<polygon fill="white" stroke="none" points="-4,4 -4,-1148 1234,-1148 1234,4 -4,4"/>
<!-- _diagram_info -->
<g id="node1" class="node"><title>_diagram_info</title>
<text text-anchor="start" x="290" y="-1054.6" font-family="Times,serif" font-size="13.00">Models diagram</text>
<text text-anchor="start" x="290" y="-1040.6" font-family="Times,serif" font-size="13.00">Date: May 11 2015 &#45; 14:23</text>
<text text-anchor="start" x="290" y="-1026.6" font-family="Times,serif" font-size="13.00">Migration version: 20150506191847</text>
<text text-anchor="start" x="290" y="-1012.6" font-family="Times,serif" font-size="13.00">Generated by RailRoady 1.3.0</text>
<text text-anchor="start" x="290" y="-998.6" font-family="Times,serif" font-size="13.00">http://railroady.prestonlee.com</text>
</g>
<!-- Profile -->
<g id="node2" class="node"><title>Profile</title>
<path fill="none" stroke="black" d="M529.5,-479.5C529.5,-479.5 698.5,-479.5 698.5,-479.5 704.5,-479.5 710.5,-485.5 710.5,-491.5 710.5,-491.5 710.5,-768.5 710.5,-768.5 710.5,-774.5 704.5,-780.5 698.5,-780.5 698.5,-780.5 529.5,-780.5 529.5,-780.5 523.5,-780.5 517.5,-774.5 517.5,-768.5 517.5,-768.5 517.5,-491.5 517.5,-491.5 517.5,-485.5 523.5,-479.5 529.5,-479.5"/>
<text text-anchor="middle" x="614" y="-765.3" font-family="Times,serif" font-size="14.00">Profile</text>
<polyline fill="none" stroke="black" points="517.5,-757.5 710.5,-757.5 "/>
<text text-anchor="start" x="525.5" y="-742.3" font-family="Times,serif" font-size="14.00">id :integer</text>
<text text-anchor="start" x="525.5" y="-727.3" font-family="Times,serif" font-size="14.00">username :string</text>
<text text-anchor="start" x="525.5" y="-712.3" font-family="Times,serif" font-size="14.00">name :string</text>
<text text-anchor="start" x="525.5" y="-697.3" font-family="Times,serif" font-size="14.00">avatar :string</text>
<text text-anchor="start" x="525.5" y="-682.3" font-family="Times,serif" font-size="14.00">cover :string</text>
<text text-anchor="start" x="525.5" y="-667.3" font-family="Times,serif" font-size="14.00">about_me :text</text>
<text text-anchor="start" x="525.5" y="-652.3" font-family="Times,serif" font-size="14.00">about_library :text</text>
<text text-anchor="start" x="525.5" y="-637.3" font-family="Times,serif" font-size="14.00">account_type :integer</text>
<text text-anchor="start" x="525.5" y="-622.3" font-family="Times,serif" font-size="14.00">privacy :integer</text>
<text text-anchor="start" x="525.5" y="-607.3" font-family="Times,serif" font-size="14.00">language :integer</text>
<text text-anchor="start" x="525.5" y="-592.3" font-family="Times,serif" font-size="14.00">allow_comments :boolean</text>
<text text-anchor="start" x="525.5" y="-577.3" font-family="Times,serif" font-size="14.00">allow_friends :boolean</text>
<text text-anchor="start" x="525.5" y="-562.3" font-family="Times,serif" font-size="14.00">email_privacy :integer</text>
<text text-anchor="start" x="525.5" y="-547.3" font-family="Times,serif" font-size="14.00">discoverable_by_email :boolean</text>
<text text-anchor="start" x="525.5" y="-532.3" font-family="Times,serif" font-size="14.00">receive_newsletters :boolean</text>
<text text-anchor="start" x="525.5" y="-517.3" font-family="Times,serif" font-size="14.00">user_id :integer</text>
<text text-anchor="start" x="525.5" y="-502.3" font-family="Times,serif" font-size="14.00">created_at :datetime</text>
<text text-anchor="start" x="525.5" y="-487.3" font-family="Times,serif" font-size="14.00">updated_at :datetime</text>
</g>
<!-- Award -->
<g id="node3" class="node"><title>Award</title>
<path fill="none" stroke="black" d="M84,-1C84,-1 200,-1 200,-1 206,-1 212,-7 212,-13 212,-13 212,-125 212,-125 212,-131 206,-137 200,-137 200,-137 84,-137 84,-137 78,-137 72,-131 72,-125 72,-125 72,-13 72,-13 72,-7 78,-1 84,-1"/>
<text text-anchor="middle" x="142" y="-121.8" font-family="Times,serif" font-size="14.00">Award</text>
<polyline fill="none" stroke="black" points="72,-114 212,-114 "/>
<text text-anchor="start" x="80" y="-98.8" font-family="Times,serif" font-size="14.00">id :integer</text>
<text text-anchor="start" x="80" y="-83.8" font-family="Times,serif" font-size="14.00">prize_id :integer</text>
<text text-anchor="start" x="80" y="-68.8" font-family="Times,serif" font-size="14.00">year :integer</text>
<text text-anchor="start" x="80" y="-53.8" font-family="Times,serif" font-size="14.00">awardable_id :integer</text>
<text text-anchor="start" x="80" y="-38.8" font-family="Times,serif" font-size="14.00">awardable_type :string</text>
<text text-anchor="start" x="80" y="-23.8" font-family="Times,serif" font-size="14.00">created_at :datetime</text>
<text text-anchor="start" x="80" y="-8.8" font-family="Times,serif" font-size="14.00">updated_at :datetime</text>
</g>
<!-- Category -->
<g id="node4" class="node"><title>Category</title>
<path fill="none" stroke="black" d="M896.5,-954.5C896.5,-954.5 1003.5,-954.5 1003.5,-954.5 1009.5,-954.5 1015.5,-960.5 1015.5,-966.5 1015.5,-966.5 1015.5,-1093.5 1015.5,-1093.5 1015.5,-1099.5 1009.5,-1105.5 1003.5,-1105.5 1003.5,-1105.5 896.5,-1105.5 896.5,-1105.5 890.5,-1105.5 884.5,-1099.5 884.5,-1093.5 884.5,-1093.5 884.5,-966.5 884.5,-966.5 884.5,-960.5 890.5,-954.5 896.5,-954.5"/>
<text text-anchor="middle" x="950" y="-1090.3" font-family="Times,serif" font-size="14.00">Category</text>
<polyline fill="none" stroke="black" points="884.5,-1082.5 1015.5,-1082.5 "/>
<text text-anchor="start" x="892.5" y="-1067.3" font-family="Times,serif" font-size="14.00">id :integer</text>
<text text-anchor="start" x="892.5" y="-1052.3" font-family="Times,serif" font-size="14.00">name :string</text>
<text text-anchor="start" x="892.5" y="-1037.3" font-family="Times,serif" font-size="14.00">ddc :string</text>
<text text-anchor="start" x="892.5" y="-1022.3" font-family="Times,serif" font-size="14.00">slug :string</text>
<text text-anchor="start" x="892.5" y="-1007.3" font-family="Times,serif" font-size="14.00">biblionet_id :integer</text>
<text text-anchor="start" x="892.5" y="-992.3" font-family="Times,serif" font-size="14.00">parent_id :integer</text>
<text text-anchor="start" x="892.5" y="-977.3" font-family="Times,serif" font-size="14.00">created_at :datetime</text>
<text text-anchor="start" x="892.5" y="-962.3" font-family="Times,serif" font-size="14.00">updated_at :datetime</text>
</g>
<!-- Category&#45;&gt;Category -->
<g id="edge1" class="edge"><title>Category&#45;&gt;Category</title>
<path fill="none" stroke="#28481d" d="M1023.16,-1050.25C1029.23,-1045.89 1033,-1039.14 1033,-1030 1033,-1021.64 1029.84,-1015.28 1024.66,-1010.91"/>
<ellipse fill="none" stroke="#28481d" cx="1019.31" cy="-1052.23" rx="4.00002" ry="4.00002"/>
<polygon fill="#28481d" stroke="#28481d" points="1024.49,-1010.81 1017.94,-1002.01 1020.12,-1008.38 1015.75,-1005.94 1015.75,-1005.94 1015.75,-1005.94 1020.12,-1008.38 1013.56,-1009.87 1024.49,-1010.81 1024.49,-1010.81"/>
<text text-anchor="middle" x="1055.5" y="-1026.3" font-family="Times,serif" font-size="14.00">children</text>
</g>
<!-- Book -->
<g id="node8" class="node"><title>Book</title>
<path fill="none" stroke="black" d="M740.5,-397C740.5,-397 885.5,-397 885.5,-397 891.5,-397 897.5,-403 897.5,-409 897.5,-409 897.5,-851 897.5,-851 897.5,-857 891.5,-863 885.5,-863 885.5,-863 740.5,-863 740.5,-863 734.5,-863 728.5,-857 728.5,-851 728.5,-851 728.5,-409 728.5,-409 728.5,-403 734.5,-397 740.5,-397"/>
<text text-anchor="middle" x="813" y="-847.8" font-family="Times,serif" font-size="14.00">Book</text>
<polyline fill="none" stroke="black" points="728.5,-840 897.5,-840 "/>
<text text-anchor="start" x="736.5" y="-824.8" font-family="Times,serif" font-size="14.00">id :integer</text>
<text text-anchor="start" x="736.5" y="-809.8" font-family="Times,serif" font-size="14.00">title :string</text>
<text text-anchor="start" x="736.5" y="-794.8" font-family="Times,serif" font-size="14.00">subtitle :string</text>
<text text-anchor="start" x="736.5" y="-779.8" font-family="Times,serif" font-size="14.00">description :text</text>
<text text-anchor="start" x="736.5" y="-764.8" font-family="Times,serif" font-size="14.00">image :string</text>
<text text-anchor="start" x="736.5" y="-749.8" font-family="Times,serif" font-size="14.00">isbn :string</text>
<text text-anchor="start" x="736.5" y="-734.8" font-family="Times,serif" font-size="14.00">isbn13 :string</text>
<text text-anchor="start" x="736.5" y="-719.8" font-family="Times,serif" font-size="14.00">ismn :string</text>
<text text-anchor="start" x="736.5" y="-704.8" font-family="Times,serif" font-size="14.00">issn :string</text>
<text text-anchor="start" x="736.5" y="-689.8" font-family="Times,serif" font-size="14.00">series_name :string</text>
<text text-anchor="start" x="736.5" y="-674.8" font-family="Times,serif" font-size="14.00">pages :integer</text>
<text text-anchor="start" x="736.5" y="-659.8" font-family="Times,serif" font-size="14.00">publication_year :integer</text>
<text text-anchor="start" x="736.5" y="-644.8" font-family="Times,serif" font-size="14.00">publication_place :string</text>
<text text-anchor="start" x="736.5" y="-629.8" font-family="Times,serif" font-size="14.00">price :decimal</text>
<text text-anchor="start" x="736.5" y="-614.8" font-family="Times,serif" font-size="14.00">price_updated_at :date</text>
<text text-anchor="start" x="736.5" y="-599.8" font-family="Times,serif" font-size="14.00">size :string</text>
<text text-anchor="start" x="736.5" y="-584.8" font-family="Times,serif" font-size="14.00">cover_type :integer</text>
<text text-anchor="start" x="736.5" y="-569.8" font-family="Times,serif" font-size="14.00">availability :integer</text>
<text text-anchor="start" x="736.5" y="-554.8" font-family="Times,serif" font-size="14.00">format :integer</text>
<text text-anchor="start" x="736.5" y="-539.8" font-family="Times,serif" font-size="14.00">original_language :integer</text>
<text text-anchor="start" x="736.5" y="-524.8" font-family="Times,serif" font-size="14.00">original_title :string</text>
<text text-anchor="start" x="736.5" y="-509.8" font-family="Times,serif" font-size="14.00">publisher_id :integer</text>
<text text-anchor="start" x="736.5" y="-494.8" font-family="Times,serif" font-size="14.00">extra :string</text>
<text text-anchor="start" x="736.5" y="-479.8" font-family="Times,serif" font-size="14.00">biblionet_id :integer</text>
<text text-anchor="start" x="736.5" y="-464.8" font-family="Times,serif" font-size="14.00">created_at :datetime</text>
<text text-anchor="start" x="736.5" y="-449.8" font-family="Times,serif" font-size="14.00">updated_at :datetime</text>
<text text-anchor="start" x="736.5" y="-434.8" font-family="Times,serif" font-size="14.00">collective_work :boolean</text>
<text text-anchor="start" x="736.5" y="-419.8" font-family="Times,serif" font-size="14.00">series_volume :integer</text>
<text text-anchor="start" x="736.5" y="-404.8" font-family="Times,serif" font-size="14.00">publication_version :integer</text>
</g>
<!-- Category&#45;&gt;Book -->
<g id="edge2" class="edge"><title>Category&#45;&gt;Book</title>
<path fill="none" stroke="#96408a" d="M920.948,-944.601C913.492,-922.939 905.089,-898.528 896.347,-873.133"/>
<polygon fill="#96408a" stroke="#96408a" points="920.976,-944.684 919.976,-955.604 922.604,-949.411 924.231,-954.139 924.231,-954.139 924.231,-954.139 922.604,-949.411 928.486,-952.675 920.976,-944.684 920.976,-944.684"/>
<polygon fill="#96408a" stroke="#96408a" points="896.236,-872.811 897.236,-861.89 894.609,-868.083 892.982,-863.355 892.982,-863.355 892.982,-863.355 894.609,-868.083 888.727,-864.82 896.236,-872.811 896.236,-872.811"/>
</g>
<!-- Contribution -->
<g id="node5" class="node"><title>Contribution</title>
<path fill="none" stroke="black" d="M659.5,-8.5C659.5,-8.5 766.5,-8.5 766.5,-8.5 772.5,-8.5 778.5,-14.5 778.5,-20.5 778.5,-20.5 778.5,-117.5 778.5,-117.5 778.5,-123.5 772.5,-129.5 766.5,-129.5 766.5,-129.5 659.5,-129.5 659.5,-129.5 653.5,-129.5 647.5,-123.5 647.5,-117.5 647.5,-117.5 647.5,-20.5 647.5,-20.5 647.5,-14.5 653.5,-8.5 659.5,-8.5"/>
<text text-anchor="middle" x="713" y="-114.3" font-family="Times,serif" font-size="14.00">Contribution</text>
<polyline fill="none" stroke="black" points="647.5,-106.5 778.5,-106.5 "/>
<text text-anchor="start" x="655.5" y="-91.3" font-family="Times,serif" font-size="14.00">id :integer</text>
<text text-anchor="start" x="655.5" y="-76.3" font-family="Times,serif" font-size="14.00">job :integer</text>
<text text-anchor="start" x="655.5" y="-61.3" font-family="Times,serif" font-size="14.00">book_id :integer</text>
<text text-anchor="start" x="655.5" y="-46.3" font-family="Times,serif" font-size="14.00">author_id :integer</text>
<text text-anchor="start" x="655.5" y="-31.3" font-family="Times,serif" font-size="14.00">created_at :datetime</text>
<text text-anchor="start" x="655.5" y="-16.3" font-family="Times,serif" font-size="14.00">updated_at :datetime</text>
</g>
<!-- Publisher -->
<g id="node6" class="node"><title>Publisher</title>
<path fill="none" stroke="black" d="M1108.5,-969.5C1108.5,-969.5 1215.5,-969.5 1215.5,-969.5 1221.5,-969.5 1227.5,-975.5 1227.5,-981.5 1227.5,-981.5 1227.5,-1078.5 1227.5,-1078.5 1227.5,-1084.5 1221.5,-1090.5 1215.5,-1090.5 1215.5,-1090.5 1108.5,-1090.5 1108.5,-1090.5 1102.5,-1090.5 1096.5,-1084.5 1096.5,-1078.5 1096.5,-1078.5 1096.5,-981.5 1096.5,-981.5 1096.5,-975.5 1102.5,-969.5 1108.5,-969.5"/>
<text text-anchor="middle" x="1162" y="-1075.3" font-family="Times,serif" font-size="14.00">Publisher</text>
<polyline fill="none" stroke="black" points="1096.5,-1067.5 1227.5,-1067.5 "/>
<text text-anchor="start" x="1104.5" y="-1052.3" font-family="Times,serif" font-size="14.00">id :integer</text>
<text text-anchor="start" x="1104.5" y="-1037.3" font-family="Times,serif" font-size="14.00">name :string</text>
<text text-anchor="start" x="1104.5" y="-1022.3" font-family="Times,serif" font-size="14.00">owner :string</text>
<text text-anchor="start" x="1104.5" y="-1007.3" font-family="Times,serif" font-size="14.00">created_at :datetime</text>
<text text-anchor="start" x="1104.5" y="-992.3" font-family="Times,serif" font-size="14.00">updated_at :datetime</text>
<text text-anchor="start" x="1104.5" y="-977.3" font-family="Times,serif" font-size="14.00">biblionet_id :integer</text>
</g>
<!-- Place -->
<g id="node9" class="node"><title>Place</title>
<path fill="none" stroke="black" d="M1106,-509.5C1106,-509.5 1218,-509.5 1218,-509.5 1224,-509.5 1230,-515.5 1230,-521.5 1230,-521.5 1230,-738.5 1230,-738.5 1230,-744.5 1224,-750.5 1218,-750.5 1218,-750.5 1106,-750.5 1106,-750.5 1100,-750.5 1094,-744.5 1094,-738.5 1094,-738.5 1094,-521.5 1094,-521.5 1094,-515.5 1100,-509.5 1106,-509.5"/>
<text text-anchor="middle" x="1162" y="-735.3" font-family="Times,serif" font-size="14.00">Place</text>
<polyline fill="none" stroke="black" points="1094,-727.5 1230,-727.5 "/>
<text text-anchor="start" x="1102" y="-712.3" font-family="Times,serif" font-size="14.00">id :integer</text>
<text text-anchor="start" x="1102" y="-697.3" font-family="Times,serif" font-size="14.00">name :string</text>
<text text-anchor="start" x="1102" y="-682.3" font-family="Times,serif" font-size="14.00">role :string</text>
<text text-anchor="start" x="1102" y="-667.3" font-family="Times,serif" font-size="14.00">address :string</text>
<text text-anchor="start" x="1102" y="-652.3" font-family="Times,serif" font-size="14.00">telephone :string</text>
<text text-anchor="start" x="1102" y="-637.3" font-family="Times,serif" font-size="14.00">fax :string</text>
<text text-anchor="start" x="1102" y="-622.3" font-family="Times,serif" font-size="14.00">email :string</text>
<text text-anchor="start" x="1102" y="-607.3" font-family="Times,serif" font-size="14.00">website :string</text>
<text text-anchor="start" x="1102" y="-592.3" font-family="Times,serif" font-size="14.00">latitude :decimal</text>
<text text-anchor="start" x="1102" y="-577.3" font-family="Times,serif" font-size="14.00">longitude :decimal</text>
<text text-anchor="start" x="1102" y="-562.3" font-family="Times,serif" font-size="14.00">placeable_id :integer</text>
<text text-anchor="start" x="1102" y="-547.3" font-family="Times,serif" font-size="14.00">placeable_type :string</text>
<text text-anchor="start" x="1102" y="-532.3" font-family="Times,serif" font-size="14.00">created_at :datetime</text>
<text text-anchor="start" x="1102" y="-517.3" font-family="Times,serif" font-size="14.00">updated_at :datetime</text>
</g>
<!-- Publisher&#45;&gt;Place -->
<g id="edge3" class="edge"><title>Publisher&#45;&gt;Place</title>
<path fill="none" stroke="#616aed" d="M1162,-961.118C1162,-906.358 1162,-827.728 1162,-760.944"/>
<ellipse fill="none" stroke="#616aed" cx="1162" cy="-965.415" rx="4" ry="4"/>
<polygon fill="#616aed" stroke="#616aed" points="1162,-760.758 1166.5,-750.758 1162,-755.758 1162,-750.758 1162,-750.758 1162,-750.758 1162,-755.758 1157.5,-750.758 1162,-760.758 1162,-760.758"/>
</g>
<!-- User -->
<g id="node7" class="node"><title>User</title>
<path fill="none" stroke="black" d="M526,-917C526,-917 702,-917 702,-917 708,-917 714,-923 714,-929 714,-929 714,-1131 714,-1131 714,-1137 708,-1143 702,-1143 702,-1143 526,-1143 526,-1143 520,-1143 514,-1137 514,-1131 514,-1131 514,-929 514,-929 514,-923 520,-917 526,-917"/>
<text text-anchor="middle" x="614" y="-1127.8" font-family="Times,serif" font-size="14.00">User</text>
<polyline fill="none" stroke="black" points="514,-1120 714,-1120 "/>
<text text-anchor="start" x="522" y="-1104.8" font-family="Times,serif" font-size="14.00">id :integer</text>
<text text-anchor="start" x="522" y="-1089.8" font-family="Times,serif" font-size="14.00">email :string</text>
<text text-anchor="start" x="522" y="-1074.8" font-family="Times,serif" font-size="14.00">encrypted_password :string</text>
<text text-anchor="start" x="522" y="-1059.8" font-family="Times,serif" font-size="14.00">reset_password_token :string</text>
<text text-anchor="start" x="522" y="-1044.8" font-family="Times,serif" font-size="14.00">reset_password_sent_at :datetime</text>
<text text-anchor="start" x="522" y="-1029.8" font-family="Times,serif" font-size="14.00">remember_created_at :datetime</text>
<text text-anchor="start" x="522" y="-1014.8" font-family="Times,serif" font-size="14.00">sign_in_count :integer</text>
<text text-anchor="start" x="522" y="-999.8" font-family="Times,serif" font-size="14.00">current_sign_in_at :datetime</text>
<text text-anchor="start" x="522" y="-984.8" font-family="Times,serif" font-size="14.00">last_sign_in_at :datetime</text>
<text text-anchor="start" x="522" y="-969.8" font-family="Times,serif" font-size="14.00">current_sign_in_ip :string</text>
<text text-anchor="start" x="522" y="-954.8" font-family="Times,serif" font-size="14.00">last_sign_in_ip :string</text>
<text text-anchor="start" x="522" y="-939.8" font-family="Times,serif" font-size="14.00">created_at :datetime</text>
<text text-anchor="start" x="522" y="-924.8" font-family="Times,serif" font-size="14.00">updated_at :datetime</text>
</g>
<!-- User&#45;&gt;Profile -->
<g id="edge6" class="edge"><title>User&#45;&gt;Profile</title>
<path fill="none" stroke="#dfea11" d="M614,-908.805C614,-871.026 614,-828.726 614,-788.75"/>
<ellipse fill="none" stroke="#dfea11" cx="614" cy="-912.81" rx="4" ry="4"/>
<ellipse fill="#dfea11" stroke="#dfea11" cx="614" cy="-784.523" rx="4" ry="4"/>
</g>
<!-- User&#45;&gt;Book -->
<g id="edge9" class="edge"><title>User&#45;&gt;Book</title>
<path fill="none" stroke="#5c0d4c" d="M694.284,-908.371C703.025,-893.652 711.47,-878.639 719,-864 720.696,-860.703 722.383,-857.368 724.06,-854.001"/>
<polygon fill="#5c0d4c" stroke="#5c0d4c" points="694.252,-908.424 685.248,-914.684 691.679,-912.711 689.107,-916.999 689.107,-916.999 689.107,-916.999 691.679,-912.711 692.965,-919.314 694.252,-908.424 694.252,-908.424"/>
<polygon fill="#5c0d4c" stroke="#5c0d4c" points="724.063,-853.994 732.512,-847.004 726.268,-849.507 728.473,-845.019 728.473,-845.019 728.473,-845.019 726.268,-849.507 724.434,-843.035 724.063,-853.994 724.063,-853.994"/>
</g>
<!-- Shelf -->
<g id="node10" class="node"><title>Shelf</title>
<path fill="none" stroke="black" d="M965,-177C965,-177 1077,-177 1077,-177 1083,-177 1089,-183 1089,-189 1089,-189 1089,-331 1089,-331 1089,-337 1083,-343 1077,-343 1077,-343 965,-343 965,-343 959,-343 953,-337 953,-331 953,-331 953,-189 953,-189 953,-183 959,-177 965,-177"/>
<text text-anchor="middle" x="1021" y="-327.8" font-family="Times,serif" font-size="14.00">Shelf</text>
<polyline fill="none" stroke="black" points="953,-320 1089,-320 "/>
<text text-anchor="start" x="961" y="-304.8" font-family="Times,serif" font-size="14.00">id :integer</text>
<text text-anchor="start" x="961" y="-289.8" font-family="Times,serif" font-size="14.00">name :string</text>
<text text-anchor="start" x="961" y="-274.8" font-family="Times,serif" font-size="14.00">privacy :integer</text>
<text text-anchor="start" x="961" y="-259.8" font-family="Times,serif" font-size="14.00">built_in :boolean</text>
<text text-anchor="start" x="961" y="-244.8" font-family="Times,serif" font-size="14.00">default_name :integer</text>
<text text-anchor="start" x="961" y="-229.8" font-family="Times,serif" font-size="14.00">active :boolean</text>
<text text-anchor="start" x="961" y="-214.8" font-family="Times,serif" font-size="14.00">user_id :integer</text>
<text text-anchor="start" x="961" y="-199.8" font-family="Times,serif" font-size="14.00">created_at :datetime</text>
<text text-anchor="start" x="961" y="-184.8" font-family="Times,serif" font-size="14.00">updated_at :datetime</text>
</g>
<!-- User&#45;&gt;Shelf -->
<g id="edge7" class="edge"><title>User&#45;&gt;Shelf</title>
<path fill="none" stroke="#084462" d="M721.466,-978.6C768.084,-957.752 823.658,-934.241 875,-916 902.843,-906.108 919.688,-920.363 939,-898 1071.07,-745.072 1057.25,-489.462 1037.91,-353.17"/>
<ellipse fill="none" stroke="#084462" cx="717.712" cy="-980.285" rx="4.00002" ry="4.00002"/>
<polygon fill="#084462" stroke="#084462" points="1037.89,-353.061 1040.9,-342.516 1037.17,-348.113 1036.45,-343.166 1036.45,-343.166 1036.45,-343.166 1037.17,-348.113 1031.99,-343.816 1037.89,-353.061 1037.89,-353.061"/>
</g>
<!-- Bookshelf -->
<g id="node11" class="node"><title>Bookshelf</title>
<path fill="none" stroke="black" d="M871.5,-16C871.5,-16 978.5,-16 978.5,-16 984.5,-16 990.5,-22 990.5,-28 990.5,-28 990.5,-110 990.5,-110 990.5,-116 984.5,-122 978.5,-122 978.5,-122 871.5,-122 871.5,-122 865.5,-122 859.5,-116 859.5,-110 859.5,-110 859.5,-28 859.5,-28 859.5,-22 865.5,-16 871.5,-16"/>
<text text-anchor="middle" x="925" y="-106.8" font-family="Times,serif" font-size="14.00">Bookshelf</text>
<polyline fill="none" stroke="black" points="859.5,-99 990.5,-99 "/>
<text text-anchor="start" x="867.5" y="-83.8" font-family="Times,serif" font-size="14.00">id :integer</text>
<text text-anchor="start" x="867.5" y="-68.8" font-family="Times,serif" font-size="14.00">book_id :integer</text>
<text text-anchor="start" x="867.5" y="-53.8" font-family="Times,serif" font-size="14.00">shelf_id :integer</text>
<text text-anchor="start" x="867.5" y="-38.8" font-family="Times,serif" font-size="14.00">created_at :datetime</text>
<text text-anchor="start" x="867.5" y="-23.8" font-family="Times,serif" font-size="14.00">updated_at :datetime</text>
</g>
<!-- User&#45;&gt;Bookshelf -->
<g id="edge8" class="edge"><title>User&#45;&gt;Bookshelf</title>
<path fill="none" stroke="#b9e7c9" d="M723.574,-997.44C788.681,-972.483 866.111,-930.516 906,-864 943.177,-802.007 932.197,-308.819 927.009,-132.443"/>
<polygon fill="#b9e7c9" stroke="#b9e7c9" points="723.429,-997.494 712.486,-996.785 718.746,-999.247 714.063,-1001 714.063,-1001 714.063,-1001 718.746,-999.247 715.641,-1005.21 723.429,-997.494 723.429,-997.494"/>
<polygon fill="#b9e7c9" stroke="#b9e7c9" points="927.004,-132.281 931.204,-122.152 926.855,-127.284 926.706,-122.286 926.706,-122.286 926.706,-122.286 926.855,-127.284 922.208,-122.42 927.004,-132.281 927.004,-132.281"/>
</g>
<!-- Author -->
<g id="node13" class="node"><title>Author</title>
<path fill="none" stroke="black" d="M584.5,-177C584.5,-177 691.5,-177 691.5,-177 697.5,-177 703.5,-183 703.5,-189 703.5,-189 703.5,-331 703.5,-331 703.5,-337 697.5,-343 691.5,-343 691.5,-343 584.5,-343 584.5,-343 578.5,-343 572.5,-337 572.5,-331 572.5,-331 572.5,-189 572.5,-189 572.5,-183 578.5,-177 584.5,-177"/>
<text text-anchor="middle" x="638" y="-327.8" font-family="Times,serif" font-size="14.00">Author</text>
<polyline fill="none" stroke="black" points="572.5,-320 703.5,-320 "/>
<text text-anchor="start" x="580.5" y="-304.8" font-family="Times,serif" font-size="14.00">id :integer</text>
<text text-anchor="start" x="580.5" y="-289.8" font-family="Times,serif" font-size="14.00">firstname :string</text>
<text text-anchor="start" x="580.5" y="-274.8" font-family="Times,serif" font-size="14.00">lastname :string</text>
<text text-anchor="start" x="580.5" y="-259.8" font-family="Times,serif" font-size="14.00">extra_info :string</text>
<text text-anchor="start" x="580.5" y="-244.8" font-family="Times,serif" font-size="14.00">biography :text</text>
<text text-anchor="start" x="580.5" y="-229.8" font-family="Times,serif" font-size="14.00">image :string</text>
<text text-anchor="start" x="580.5" y="-214.8" font-family="Times,serif" font-size="14.00">created_at :datetime</text>
<text text-anchor="start" x="580.5" y="-199.8" font-family="Times,serif" font-size="14.00">updated_at :datetime</text>
<text text-anchor="start" x="580.5" y="-184.8" font-family="Times,serif" font-size="14.00">biblionet_id :integer</text>
</g>
<!-- User&#45;&gt;Author -->
<g id="edge10" class="edge"><title>User&#45;&gt;Author</title>
<path fill="none" stroke="#17afe0" d="M504.922,-916.482C504.615,-916.32 504.308,-916.159 504,-916 438.474,-882.049 223.925,-920.121 176,-864 142.232,-824.456 144.81,-437.608 176,-396 222.388,-334.117 443.238,-291.144 562.002,-272.088"/>
<polygon fill="#17afe0" stroke="#17afe0" points="505.028,-916.542 511.494,-925.398 509.374,-919.014 513.72,-921.487 513.72,-921.487 513.72,-921.487 509.374,-919.014 515.945,-917.575 505.028,-916.542 505.028,-916.542"/>
<polygon fill="#17afe0" stroke="#17afe0" points="562.243,-272.05 572.824,-274.927 567.181,-271.266 572.119,-270.483 572.119,-270.483 572.119,-270.483 567.181,-271.266 571.414,-266.039 562.243,-272.05 562.243,-272.05"/>
<text text-anchor="middle" x="195" y="-626.3" font-family="Times,serif" font-size="14.00">writers</text>
</g>
<!-- Royce::Connector -->
<g id="node14" class="node"><title>Royce::Connector</title>
<ellipse fill="none" stroke="black" cx="298" cy="-630" rx="74.6146" ry="18"/>
<text text-anchor="middle" x="298" y="-626.3" font-family="Times,serif" font-size="14.00">Royce::Connector</text>
</g>
<!-- User&#45;&gt;Royce::Connector -->
<g id="edge4" class="edge"><title>User&#45;&gt;Royce::Connector</title>
<path fill="none" stroke="#43072e" d="M506.807,-917.622C505.874,-917.071 504.939,-916.53 504,-916 473.401,-898.713 458.9,-912.749 427,-898 403.924,-887.331 396.147,-884.418 381,-864 333.038,-799.345 310.811,-704.433 302.348,-658.251"/>
<ellipse fill="none" stroke="#43072e" cx="510.501" cy="-919.919" rx="4.00002" ry="4.00002"/>
<polygon fill="#43072e" stroke="#43072e" points="302.299,-657.974 305.004,-647.347 301.436,-653.05 300.572,-648.125 300.572,-648.125 300.572,-648.125 301.436,-653.05 296.139,-648.902 302.299,-657.974 302.299,-657.974"/>
<text text-anchor="middle" x="470.5" y="-886.3" font-family="Times,serif" font-size="14.00">role_connectors</text>
</g>
<!-- Royce::Role -->
<g id="node15" class="node"><title>Royce::Role</title>
<ellipse fill="none" stroke="black" cx="445" cy="-630" rx="54.3924" ry="18"/>
<text text-anchor="middle" x="445" y="-626.3" font-family="Times,serif" font-size="14.00">Royce::Role</text>
</g>
<!-- User&#45;&gt;Royce::Role -->
<g id="edge5" class="edge"><title>User&#45;&gt;Royce::Role</title>
<path fill="none" stroke="#b32932" d="M530.272,-907.697C522.1,-893.313 514.46,-878.562 508,-864 476.446,-792.874 457.521,-702.342 449.506,-657.977"/>
<polygon fill="#b32932" stroke="#b32932" points="530.416,-907.945 531.528,-918.854 532.919,-912.273 535.423,-916.601 535.423,-916.601 535.423,-916.601 532.919,-912.273 539.319,-914.347 530.416,-907.945 530.416,-907.945"/>
<polygon fill="#b32932" stroke="#b32932" points="449.48,-657.83 452.176,-647.201 448.612,-652.906 447.745,-647.982 447.745,-647.982 447.745,-647.982 448.612,-652.906 443.313,-648.763 449.48,-657.83 449.48,-657.83"/>
<text text-anchor="middle" x="538.5" y="-886.3" font-family="Times,serif" font-size="14.00">roles</text>
</g>
<!-- Book&#45;&gt;Award -->
<g id="edge13" class="edge"><title>Book&#45;&gt;Award</title>
<path fill="none" stroke="#0ef492" d="M722.223,-398.805C721.161,-397.856 720.087,-396.921 719,-396 690.865,-372.158 672.981,-389.676 638,-378 603.284,-366.413 595.096,-361.588 563,-344 439.154,-276.135 303.529,-184.488 220.584,-126.304"/>
<ellipse fill="none" stroke="#0ef492" cx="725.256" cy="-401.653" rx="4.00002" ry="4.00002"/>
<polygon fill="#0ef492" stroke="#0ef492" points="220.408,-126.18 214.815,-116.748 216.317,-123.305 212.227,-120.43 212.227,-120.43 212.227,-120.43 216.317,-123.305 209.639,-124.111 220.408,-126.18 220.408,-126.18"/>
</g>
<!-- Book&#45;&gt;Contribution -->
<g id="edge11" class="edge"><title>Book&#45;&gt;Contribution</title>
<path fill="none" stroke="#e8a274" d="M792.324,-388.804C790.969,-379.74 789.529,-370.78 788,-362 774.569,-284.862 751.225,-198.166 734.139,-139.423"/>
<ellipse fill="none" stroke="#e8a274" cx="792.915" cy="-392.836" rx="4.00001" ry="4.00001"/>
<polygon fill="#e8a274" stroke="#e8a274" points="734.048,-139.114 735.558,-128.252 732.644,-134.315 731.24,-129.516 731.24,-129.516 731.24,-129.516 732.644,-134.315 726.921,-130.78 734.048,-139.114 734.048,-139.114"/>
</g>
<!-- Book&#45;&gt;Shelf -->
<g id="edge17" class="edge"><title>Book&#45;&gt;Shelf</title>
<path fill="none" stroke="#89468f" d="M902.555,-470.557C925.463,-430.028 949.324,-387.812 969.576,-351.981"/>
<polygon fill="#89468f" stroke="#89468f" points="902.522,-470.615 893.684,-477.106 900.062,-474.967 897.602,-479.32 897.602,-479.32 897.602,-479.32 900.062,-474.967 901.519,-481.535 902.522,-470.615 902.522,-470.615"/>
<polygon fill="#89468f" stroke="#89468f" points="969.724,-351.72 978.562,-345.228 972.184,-347.367 974.644,-343.014 974.644,-343.014 974.644,-343.014 972.184,-347.367 970.727,-340.8 969.724,-351.72 969.724,-351.72"/>
</g>
<!-- Book&#45;&gt;Bookshelf -->
<g id="edge16" class="edge"><title>Book&#45;&gt;Bookshelf</title>
<path fill="none" stroke="#ec25dc" d="M861.138,-388.741C879.977,-294.711 900.028,-194.635 912.532,-132.229"/>
<ellipse fill="none" stroke="#ec25dc" cx="860.311" cy="-392.868" rx="4.00001" ry="4.00001"/>
<polygon fill="#ec25dc" stroke="#ec25dc" points="912.584,-131.97 918.961,-123.049 913.566,-127.067 914.548,-122.165 914.548,-122.165 914.548,-122.165 913.566,-127.067 910.136,-121.281 912.584,-131.97 912.584,-131.97"/>
</g>
<!-- Book&#45;&gt;Author -->
<g id="edge12" class="edge"><title>Book&#45;&gt;Author</title>
<path fill="none" stroke="#07e8cf" d="M721.127,-397.916C720.423,-397.272 719.714,-396.633 719,-396 695.919,-375.555 672.185,-401.308 652,-378 645.639,-370.654 641.156,-362.007 638.074,-352.793"/>
<polygon fill="#07e8cf" stroke="#07e8cf" points="721.295,-398.08 725.327,-408.277 724.88,-401.565 728.464,-405.051 728.464,-405.051 728.464,-405.051 724.88,-401.565 731.601,-401.824 721.295,-398.08 721.295,-398.08"/>
<polygon fill="#07e8cf" stroke="#07e8cf" points="638.034,-352.65 639.683,-341.809 636.691,-347.833 635.349,-343.017 635.349,-343.017 635.349,-343.017 636.691,-347.833 631.014,-344.225 638.034,-352.65 638.034,-352.65"/>
</g>
<!-- Book&#45;&gt;Author -->
<g id="edge14" class="edge"><title>Book&#45;&gt;Author</title>
<path fill="none" stroke="#c8a559" d="M721.43,-398.431C720.627,-397.613 719.817,-396.802 719,-396 703.044,-380.324 687.148,-394.459 672,-378 665.178,-370.587 659.718,-361.884 655.348,-352.625"/>
<polygon fill="#c8a559" stroke="#c8a559" points="721.661,-398.68 725.182,-409.066 725.068,-402.34 728.475,-405.999 728.475,-405.999 728.475,-405.999 725.068,-402.34 731.769,-402.933 721.661,-398.68 721.661,-398.68"/>
<polygon fill="#c8a559" stroke="#c8a559" points="655.256,-352.408 655.472,-341.444 653.294,-347.809 651.333,-343.21 651.333,-343.21 651.333,-343.21 653.294,-347.809 647.193,-344.975 655.256,-352.408 655.256,-352.408"/>
<text text-anchor="middle" x="691" y="-366.3" font-family="Times,serif" font-size="14.00">writers</text>
</g>
<!-- Book&#45;&gt;Author -->
<g id="edge15" class="edge"><title>Book&#45;&gt;Author</title>
<path fill="none" stroke="#d4db74" d="M724.104,-389.578C719.523,-380.178 714.818,-370.952 710,-362 708.211,-358.676 706.329,-355.333 704.376,-351.99"/>
<polygon fill="#d4db74" stroke="#d4db74" points="724.127,-389.626 724.401,-400.588 726.292,-394.133 728.457,-398.64 728.457,-398.64 728.457,-398.64 726.292,-394.133 732.513,-396.691 724.127,-389.626 724.127,-389.626"/>
<polygon fill="#d4db74" stroke="#d4db74" points="704.213,-351.719 702.907,-340.831 701.633,-347.436 699.053,-343.153 699.053,-343.153 699.053,-343.153 701.633,-347.436 695.198,-345.475 704.213,-351.719 704.213,-351.719"/>
<text text-anchor="middle" x="751" y="-366.3" font-family="Times,serif" font-size="14.00">contributors</text>
</g>
<!-- Shelf&#45;&gt;Bookshelf -->
<g id="edge18" class="edge"><title>Shelf&#45;&gt;Bookshelf</title>
<path fill="none" stroke="#43eccd" d="M975.528,-169.476C968.946,-156.519 962.301,-143.436 956.089,-131.206"/>
<ellipse fill="none" stroke="#43eccd" cx="977.5" cy="-173.36" rx="4.00002" ry="4.00002"/>
<polygon fill="#43eccd" stroke="#43eccd" points="955.96,-130.952 955.443,-119.998 953.696,-126.494 951.431,-122.036 951.431,-122.036 951.431,-122.036 953.696,-126.494 947.419,-124.074 955.96,-130.952 955.96,-130.952"/>
</g>
<!-- Prize -->
<g id="node12" class="node"><title>Prize</title>
<path fill="none" stroke="black" d="M11.5,-584.5C11.5,-584.5 118.5,-584.5 118.5,-584.5 124.5,-584.5 130.5,-590.5 130.5,-596.5 130.5,-596.5 130.5,-663.5 130.5,-663.5 130.5,-669.5 124.5,-675.5 118.5,-675.5 118.5,-675.5 11.5,-675.5 11.5,-675.5 5.5,-675.5 -0.5,-669.5 -0.5,-663.5 -0.5,-663.5 -0.5,-596.5 -0.5,-596.5 -0.5,-590.5 5.5,-584.5 11.5,-584.5"/>
<text text-anchor="middle" x="65" y="-660.3" font-family="Times,serif" font-size="14.00">Prize</text>
<polyline fill="none" stroke="black" points="-0.5,-652.5 130.5,-652.5 "/>
<text text-anchor="start" x="7.5" y="-637.3" font-family="Times,serif" font-size="14.00">id :integer</text>
<text text-anchor="start" x="7.5" y="-622.3" font-family="Times,serif" font-size="14.00">name :string</text>
<text text-anchor="start" x="7.5" y="-607.3" font-family="Times,serif" font-size="14.00">created_at :datetime</text>
<text text-anchor="start" x="7.5" y="-592.3" font-family="Times,serif" font-size="14.00">updated_at :datetime</text>
</g>
<!-- Prize&#45;&gt;Award -->
<g id="edge19" class="edge"><title>Prize&#45;&gt;Award</title>
<path fill="none" stroke="#d6a74d" d="M71.539,-576.093C82.4689,-488.583 105.476,-308.231 128,-156 128.426,-153.124 128.866,-150.195 129.317,-147.238"/>
<ellipse fill="none" stroke="#d6a74d" cx="71.0145" cy="-580.299" rx="4.00001" ry="4.00001"/>
<polygon fill="#d6a74d" stroke="#d6a74d" points="129.355,-146.989 135.33,-137.794 130.119,-142.048 130.883,-137.106 130.883,-137.106 130.883,-137.106 130.119,-142.048 126.436,-136.419 129.355,-146.989 129.355,-146.989"/>
</g>
<!-- Prize&#45;&gt;Author -->
<g id="edge20" class="edge"><title>Prize&#45;&gt;Author</title>
<path fill="none" stroke="#51750d" d="M67.4835,-574.143C73.3117,-513.191 92.2565,-416.237 153,-362 212.612,-308.774 441.248,-279.601 562.102,-267.608"/>
<polygon fill="#51750d" stroke="#51750d" points="67.4628,-574.382 62.1149,-583.955 67.0305,-579.363 66.5981,-584.344 66.5981,-584.344 66.5981,-584.344 67.0305,-579.363 71.0812,-584.733 67.4628,-574.382 67.4628,-574.382"/>
<polygon fill="#51750d" stroke="#51750d" points="562.436,-267.575 572.826,-271.081 567.412,-267.089 572.388,-266.603 572.388,-266.603 572.388,-266.603 567.412,-267.089 571.95,-262.124 562.436,-267.575 562.436,-267.575"/>
</g>
<!-- Author&#45;&gt;Award -->
<g id="edge22" class="edge"><title>Author&#45;&gt;Award</title>
<path fill="none" stroke="#2bc6b3" d="M564.839,-231.122C473.12,-196.173 316.467,-136.48 221.756,-100.391"/>
<ellipse fill="none" stroke="#2bc6b3" cx="568.653" cy="-232.575" rx="4.00001" ry="4.00001"/>
<polygon fill="#2bc6b3" stroke="#2bc6b3" points="221.567,-100.319 213.825,-92.553 216.895,-98.5385 212.222,-96.7581 212.222,-96.7581 212.222,-96.7581 216.895,-98.5385 210.62,-100.963 221.567,-100.319 221.567,-100.319"/>
</g>
<!-- Author&#45;&gt;Contribution -->
<g id="edge21" class="edge"><title>Author&#45;&gt;Contribution</title>
<path fill="none" stroke="#3e779d" d="M673.545,-169.427C677.616,-159.168 681.717,-148.832 685.657,-138.903"/>
<ellipse fill="none" stroke="#3e779d" cx="672.044" cy="-173.208" rx="4.00001" ry="4.00001"/>
<polygon fill="#3e779d" stroke="#3e779d" points="685.69,-138.82 693.562,-131.185 687.535,-134.173 689.379,-129.525 689.379,-129.525 689.379,-129.525 687.535,-134.173 685.196,-127.865 685.69,-138.82 685.69,-138.82"/>
</g>
</g>
</svg>
