<?xml version="1.0" encoding="UTF-8" standalone="no"?>
<!DOCTYPE svg PUBLIC "-//W3C//DTD SVG 1.1//EN"
 "http://www.w3.org/Graphics/SVG/1.1/DTD/svg11.dtd">
<!-- Generated by graphviz version 2.36.0 (20140111.2315)
 -->
<!-- Title: models_diagram Pages: 1 -->
<svg width="1175pt" height="424pt"
 viewBox="0.00 0.00 1175.00 424.00" xmlns="http://www.w3.org/2000/svg" xmlns:xlink="http://www.w3.org/1999/xlink">
<g id="graph0" class="graph" transform="scale(1 1) rotate(0) translate(4 420)">
<title>models_diagram</title>
<polygon fill="white" stroke="none" points="-4,4 -4,-420 1171,-420 1171,4 -4,4"/>
<!-- _diagram_info -->
<g id="node1" class="node"><title>_diagram_info</title>
<text text-anchor="start" x="539" y="-401.6" font-family="Times,serif" font-size="13.00">Models diagram</text>
<text text-anchor="start" x="539" y="-387.6" font-family="Times,serif" font-size="13.00">Date: Jul 08 2015 &#45; 14:07</text>
<text text-anchor="start" x="539" y="-373.6" font-family="Times,serif" font-size="13.00">Migration version: 20150619193344</text>
<text text-anchor="start" x="539" y="-359.6" font-family="Times,serif" font-size="13.00">Generated by RailRoady 1.3.0</text>
<text text-anchor="start" x="539" y="-345.6" font-family="Times,serif" font-size="13.00">http://railroady.prestonlee.com</text>
</g>
<!-- Profile -->
<g id="node2" class="node"><title>Profile</title>
<ellipse fill="none" stroke="black" cx="138" cy="-194" rx="34.1708" ry="18"/>
<text text-anchor="middle" x="138" y="-190.3" font-family="Times,serif" font-size="14.00">Profile</text>
</g>
<!-- Award -->
<g id="node3" class="node"><title>Award</title>
<ellipse fill="none" stroke="black" cx="941" cy="-18" rx="34.1708" ry="18"/>
<text text-anchor="middle" x="941" y="-14.3" font-family="Times,serif" font-size="14.00">Award</text>
</g>
<!-- Follow -->
<g id="node4" class="node"><title>Follow</title>
<ellipse fill="none" stroke="black" cx="429" cy="-194" rx="35.6194" ry="18"/>
<text text-anchor="middle" x="429" y="-190.3" font-family="Times,serif" font-size="14.00">Follow</text>
</g>
<!-- Category -->
<g id="node5" class="node"><title>Category</title>
<ellipse fill="none" stroke="black" cx="710" cy="-282" rx="42.3456" ry="18"/>
<text text-anchor="middle" x="710" y="-278.3" font-family="Times,serif" font-size="14.00">Category</text>
</g>
<!-- Category&#45;&gt;Category -->
<g id="edge4" class="edge"><title>Category&#45;&gt;Category</title>
<path fill="none" stroke="#75d38f" d="M757.593,-288.178C764.973,-287.25 770,-285.19 770,-282 770,-279.142 765.966,-277.191 759.82,-276.149"/>
<ellipse fill="none" stroke="#75d38f" cx="753.518" cy="-288.457" rx="4" ry="4"/>
<polygon fill="#75d38f" stroke="#75d38f" points="759.491,-276.121 749.91,-270.786 754.509,-275.695 749.527,-275.27 749.527,-275.27 749.527,-275.27 754.509,-275.695 749.144,-279.754 759.491,-276.121 759.491,-276.121"/>
<text text-anchor="middle" x="792.5" y="-278.3" font-family="Times,serif" font-size="14.00">children</text>
</g>
<!-- Book -->
<g id="node10" class="node"><title>Book</title>
<ellipse fill="none" stroke="black" cx="754" cy="-194" rx="29.3479" ry="18"/>
<text text-anchor="middle" x="754" y="-190.3" font-family="Times,serif" font-size="14.00">Book</text>
</g>
<!-- Category&#45;&gt;Book -->
<g id="edge5" class="edge"><title>Category&#45;&gt;Book</title>
<path fill="none" stroke="#f0966b" d="M723.419,-254.772C729.014,-243.836 735.487,-231.184 741.034,-220.343"/>
<polygon fill="#f0966b" stroke="#f0966b" points="723.248,-255.107 714.687,-261.96 720.97,-259.558 718.693,-264.009 718.693,-264.009 718.693,-264.009 720.97,-259.558 722.699,-266.059 723.248,-255.107 723.248,-255.107"/>
<polygon fill="#f0966b" stroke="#f0966b" points="741.069,-220.275 749.63,-213.422 743.346,-215.823 745.624,-211.372 745.624,-211.372 745.624,-211.372 743.346,-215.823 741.617,-209.322 741.069,-220.275 741.069,-220.275"/>
</g>
<!-- Contribution -->
<g id="node6" class="node"><title>Contribution</title>
<ellipse fill="none" stroke="black" cx="600" cy="-18" rx="55.3436" ry="18"/>
<text text-anchor="middle" x="600" y="-14.3" font-family="Times,serif" font-size="14.00">Contribution</text>
</g>
<!-- Publisher -->
<g id="node7" class="node"><title>Publisher</title>
<ellipse fill="none" stroke="black" cx="1030" cy="-282" rx="44.2946" ry="18"/>
<text text-anchor="middle" x="1030" y="-278.3" font-family="Times,serif" font-size="14.00">Publisher</text>
</g>
<!-- Impression -->
<g id="node8" class="node"><title>Impression</title>
<ellipse fill="none" stroke="black" cx="1073" cy="-18" rx="50.0684" ry="18"/>
<text text-anchor="middle" x="1073" y="-14.3" font-family="Times,serif" font-size="14.00">Impression</text>
</g>
<!-- Publisher&#45;&gt;Impression -->
<g id="edge10" class="edge"><title>Publisher&#45;&gt;Impression</title>
<path fill="none" stroke="#ab973b" d="M1039.67,-256.368C1044.4,-243.364 1049.76,-227.026 1053,-212 1065.54,-153.858 1070.3,-84.1054 1072.04,-46.4182"/>
<ellipse fill="none" stroke="#ab973b" cx="1038.22" cy="-260.245" rx="4.00001" ry="4.00001"/>
<polygon fill="#ab973b" stroke="#ab973b" points="1072.05,-46.2279 1076.97,-36.428 1072.26,-41.2324 1072.47,-36.2369 1072.47,-36.2369 1072.47,-36.2369 1072.26,-41.2324 1067.98,-36.0459 1072.05,-46.2279 1072.05,-46.2279"/>
</g>
<!-- Publisher&#45;&gt;Book -->
<g id="edge9" class="edge"><title>Publisher&#45;&gt;Book</title>
<path fill="none" stroke="#2a11b3" d="M988.311,-268.01C934.133,-251.128 840.453,-221.938 789.5,-206.062"/>
<ellipse fill="none" stroke="#2a11b3" cx="992.338" cy="-269.265" rx="4.00001" ry="4.00001"/>
<polygon fill="#2a11b3" stroke="#2a11b3" points="789.451,-206.046 781.242,-198.775 784.677,-204.559 779.903,-203.071 779.903,-203.071 779.903,-203.071 784.677,-204.559 778.565,-207.368 789.451,-206.046 789.451,-206.046"/>
</g>
<!-- Place -->
<g id="node11" class="node"><title>Place</title>
<ellipse fill="none" stroke="black" cx="1015" cy="-194" rx="29.3479" ry="18"/>
<text text-anchor="middle" x="1015" y="-190.3" font-family="Times,serif" font-size="14.00">Place</text>
</g>
<!-- Publisher&#45;&gt;Place -->
<g id="edge8" class="edge"><title>Publisher&#45;&gt;Place</title>
<path fill="none" stroke="#41334b" d="M1025.66,-256.097C1023.78,-245.359 1021.59,-232.779 1019.68,-221.834"/>
<ellipse fill="none" stroke="#41334b" cx="1026.35" cy="-260.069" rx="4.00001" ry="4.00001"/>
<polygon fill="#41334b" stroke="#41334b" points="1019.68,-221.807 1022.39,-211.182 1018.82,-216.881 1017.96,-211.956 1017.96,-211.956 1017.96,-211.956 1018.82,-216.881 1013.52,-212.729 1019.68,-221.807 1019.68,-221.807"/>
</g>
<!-- User -->
<g id="node9" class="node"><title>User</title>
<ellipse fill="none" stroke="black" cx="415" cy="-282" rx="26.949" ry="18"/>
<text text-anchor="middle" x="415" y="-278.3" font-family="Times,serif" font-size="14.00">User</text>
</g>
<!-- User&#45;&gt;Profile -->
<g id="edge15" class="edge"><title>User&#45;&gt;Profile</title>
<path fill="none" stroke="#821388" d="M382.973,-271.057C331.102,-254.952 229.027,-223.261 174.45,-206.316"/>
<ellipse fill="none" stroke="#821388" cx="387.083" cy="-272.332" rx="4.00001" ry="4.00001"/>
<ellipse fill="#821388" stroke="#821388" cx="170.574" cy="-205.113" rx="4.00001" ry="4.00001"/>
</g>
<!-- User&#45;&gt;Follow -->
<g id="edge20" class="edge"><title>User&#45;&gt;Follow</title>
<path fill="none" stroke="#833685" d="M431.443,-258.869C433.733,-254.774 435.733,-250.396 437,-246 439.243,-238.216 438.905,-229.57 437.529,-221.642"/>
<ellipse fill="none" stroke="#833685" cx="429.21" cy="-262.477" rx="4.00002" ry="4.00002"/>
<polygon fill="#833685" stroke="#833685" points="437.498,-221.51 439.636,-210.755 436.375,-216.638 435.251,-211.766 435.251,-211.766 435.251,-211.766 436.375,-216.638 430.866,-212.777 437.498,-221.51 437.498,-221.51"/>
</g>
<!-- User&#45;&gt;Follow -->
<g id="edge21" class="edge"><title>User&#45;&gt;Follow</title>
<path fill="none" stroke="#cc0227" d="M388.986,-264.283C377.643,-254.782 368.29,-242.346 375,-230 379.18,-222.31 385.859,-216.049 393.115,-211.062"/>
<ellipse fill="none" stroke="#cc0227" cx="392.237" cy="-266.795" rx="4.00002" ry="4.00002"/>
<polygon fill="#cc0227" stroke="#cc0227" points="393.243,-210.984 404.125,-209.628 397.514,-208.384 401.785,-205.784 401.785,-205.784 401.785,-205.784 397.514,-208.384 399.445,-201.941 393.243,-210.984 393.243,-210.984"/>
<text text-anchor="middle" x="404" y="-234.3" font-family="Times,serif" font-size="14.00">followings</text>
</g>
<!-- User&#45;&gt;Book -->
<g id="edge18" class="edge"><title>User&#45;&gt;Book</title>
<path fill="none" stroke="#1aac15" d="M451.188,-275.395C488.672,-269.3 548.818,-258.708 600,-246 649.663,-233.669 661.661,-228.787 710,-212 713.351,-210.836 716.827,-209.58 720.291,-208.295"/>
<polygon fill="#1aac15" stroke="#1aac15" points="451.116,-275.406 440.529,-272.55 446.179,-276.199 441.243,-276.993 441.243,-276.993 441.243,-276.993 446.179,-276.199 441.957,-281.436 451.116,-275.406 451.116,-275.406"/>
<polygon fill="#1aac15" stroke="#1aac15" points="720.552,-208.197 731.497,-208.862 725.228,-206.425 729.903,-204.654 729.903,-204.654 729.903,-204.654 725.228,-206.425 728.309,-200.446 720.552,-208.197 720.552,-208.197"/>
</g>
<!-- Shelf -->
<g id="node12" class="node"><title>Shelf</title>
<ellipse fill="none" stroke="black" cx="160" cy="-106" rx="29.3722" ry="18"/>
<text text-anchor="middle" x="160" y="-102.3" font-family="Times,serif" font-size="14.00">Shelf</text>
</g>
<!-- User&#45;&gt;Shelf -->
<g id="edge16" class="edge"><title>User&#45;&gt;Shelf</title>
<path fill="none" stroke="#cadc59" d="M384.528,-269.516C367.481,-262.933 345.916,-254.342 327,-246 295.354,-232.044 284.771,-232.615 257,-212 225.371,-188.521 195.675,-153.793 177.673,-130.791"/>
<ellipse fill="none" stroke="#cadc59" cx="388.283" cy="-270.958" rx="4.00001" ry="4.00001"/>
<polygon fill="#cadc59" stroke="#cadc59" points="177.466,-130.522 174.933,-119.852 174.416,-126.559 171.367,-122.597 171.367,-122.597 171.367,-122.597 174.416,-126.559 167.8,-125.342 177.466,-130.522 177.466,-130.522"/>
</g>
<!-- Bookshelf -->
<g id="node13" class="node"><title>Bookshelf</title>
<ellipse fill="none" stroke="black" cx="103" cy="-18" rx="46.1964" ry="18"/>
<text text-anchor="middle" x="103" y="-14.3" font-family="Times,serif" font-size="14.00">Bookshelf</text>
</g>
<!-- User&#45;&gt;Bookshelf -->
<g id="edge17" class="edge"><title>User&#45;&gt;Bookshelf</title>
<path fill="none" stroke="#c34958" d="M377.986,-278.675C301.507,-273.018 130.248,-255.658 95,-212 56.45,-164.252 77.0998,-86.1507 92.0132,-45.4875"/>
<polygon fill="#c34958" stroke="#c34958" points="378.149,-278.686 387.804,-283.885 383.137,-279.042 388.124,-279.397 388.124,-279.397 388.124,-279.397 383.137,-279.042 388.444,-274.908 378.149,-278.686 378.149,-278.686"/>
<polygon fill="#c34958" stroke="#c34958" points="92.0703,-45.3378 99.8449,-37.6043 93.856,-40.6675 95.6416,-35.9972 95.6416,-35.9972 95.6416,-35.9972 93.856,-40.6675 91.4383,-34.3902 92.0703,-45.3378 92.0703,-45.3378"/>
</g>
<!-- Author -->
<g id="node15" class="node"><title>Author</title>
<ellipse fill="none" stroke="black" cx="785" cy="-106" rx="35.6194" ry="18"/>
<text text-anchor="middle" x="785" y="-102.3" font-family="Times,serif" font-size="14.00">Author</text>
</g>
<!-- User&#45;&gt;Author -->
<g id="edge19" class="edge"><title>User&#45;&gt;Author</title>
<path fill="none" stroke="#56987b" d="M451.593,-276.232C484.629,-271.176 534.171,-261.707 575,-246 588.377,-240.854 590.326,-236.694 603,-230 619.17,-221.459 625.034,-222.51 640,-212 658.776,-198.814 659.512,-190.853 677,-176 696.377,-159.542 701.668,-155.83 723,-142 732.353,-135.936 742.81,-129.801 752.433,-124.398"/>
<polygon fill="#56987b" stroke="#56987b" points="451.372,-276.264 440.823,-273.269 446.425,-276.992 441.479,-277.721 441.479,-277.721 441.479,-277.721 446.425,-276.992 442.134,-282.173 451.372,-276.264 451.372,-276.264"/>
<polygon fill="#56987b" stroke="#56987b" points="752.591,-124.31 763.519,-123.405 756.965,-121.889 761.34,-119.468 761.34,-119.468 761.34,-119.468 756.965,-121.889 759.161,-115.53 752.591,-124.31 752.591,-124.31"/>
<text text-anchor="middle" x="696" y="-190.3" font-family="Times,serif" font-size="14.00">writers</text>
</g>
<!-- Royce::Connector -->
<g id="node17" class="node"><title>Royce::Connector</title>
<ellipse fill="none" stroke="black" cx="557" cy="-194" rx="74.6146" ry="18"/>
<text text-anchor="middle" x="557" y="-190.3" font-family="Times,serif" font-size="14.00">Royce::Connector</text>
</g>
<!-- User&#45;&gt;Royce::Connector -->
<g id="edge13" class="edge"><title>User&#45;&gt;Royce::Connector</title>
<path fill="none" stroke="#d0362c" d="M438.752,-263.137C452.76,-252.927 471.017,-240.171 488,-230 496.729,-224.772 506.334,-219.574 515.531,-214.845"/>
<ellipse fill="none" stroke="#d0362c" cx="435.464" cy="-265.553" rx="4.00002" ry="4.00002"/>
<polygon fill="#d0362c" stroke="#d0362c" points="515.621,-214.8 526.576,-214.305 520.083,-212.544 524.546,-210.289 524.546,-210.289 524.546,-210.289 520.083,-212.544 522.516,-206.273 515.621,-214.8 515.621,-214.8"/>
<text text-anchor="middle" x="531.5" y="-234.3" font-family="Times,serif" font-size="14.00">role_connectors</text>
</g>
<!-- Royce::Role -->
<g id="node18" class="node"><title>Royce::Role</title>
<ellipse fill="none" stroke="black" cx="321" cy="-194" rx="54.3924" ry="18"/>
<text text-anchor="middle" x="321" y="-190.3" font-family="Times,serif" font-size="14.00">Royce::Role</text>
</g>
<!-- User&#45;&gt;Royce::Role -->
<g id="edge14" class="edge"><title>User&#45;&gt;Royce::Role</title>
<path fill="none" stroke="#9f6f4b" d="M380.448,-270.896C366.68,-265.41 351.617,-257.365 341,-246 334.747,-239.306 330.368,-230.431 327.338,-221.962"/>
<polygon fill="#9f6f4b" stroke="#9f6f4b" points="380.77,-271.013 388.616,-278.675 385.466,-272.731 390.161,-274.449 390.161,-274.449 390.161,-274.449 385.466,-272.731 391.707,-270.223 380.77,-271.013 380.77,-271.013"/>
<polygon fill="#9f6f4b" stroke="#9f6f4b" points="327.324,-221.917 328.669,-211.034 325.847,-217.14 324.37,-212.363 324.37,-212.363 324.37,-212.363 325.847,-217.14 320.071,-213.693 327.324,-221.917 327.324,-221.917"/>
<text text-anchor="middle" x="354.5" y="-234.3" font-family="Times,serif" font-size="14.00">roles</text>
</g>
<!-- Book&#45;&gt;Award -->
<g id="edge25" class="edge"><title>Book&#45;&gt;Award</title>
<path fill="none" stroke="#39deb8" d="M790.545,-187.846C812.858,-183.16 840.871,-174.356 861,-158 897.499,-128.343 920.661,-77.3107 932.196,-46.0201"/>
<ellipse fill="none" stroke="#39deb8" cx="786.533" cy="-188.628" rx="4.00001" ry="4.00001"/>
<polygon fill="#39deb8" stroke="#39deb8" points="932.326,-45.6512 939.906,-37.7269 933.995,-40.938 935.664,-36.2248 935.664,-36.2248 935.664,-36.2248 933.995,-40.938 931.422,-34.7226 932.326,-45.6512 932.326,-45.6512"/>
</g>
<!-- Book&#45;&gt;Contribution -->
<g id="edge23" class="edge"><title>Book&#45;&gt;Contribution</title>
<path fill="none" stroke="#69ebf0" d="M735.164,-171.718C706.377,-139.192 651.599,-77.2996 621.366,-43.1413"/>
<ellipse fill="none" stroke="#69ebf0" cx="737.952" cy="-174.868" rx="4.00002" ry="4.00002"/>
<polygon fill="#69ebf0" stroke="#69ebf0" points="621.222,-42.9785 617.964,-32.5077 617.909,-39.2343 614.595,-35.4902 614.595,-35.4902 614.595,-35.4902 617.909,-39.2343 611.225,-38.4726 621.222,-42.9785 621.222,-42.9785"/>
</g>
<!-- Book&#45;&gt;Impression -->
<g id="edge30" class="edge"><title>Book&#45;&gt;Impression</title>
<path fill="none" stroke="#d02de2" d="M789.844,-186.822C816.213,-181.426 852.456,-172.199 882,-158 947.19,-126.67 1013.21,-72.5376 1047.97,-41.8901"/>
<ellipse fill="none" stroke="#d02de2" cx="785.92" cy="-187.598" rx="4.00001" ry="4.00001"/>
<polygon fill="#d02de2" stroke="#d02de2" points="1048.25,-41.646 1058.71,-38.3565 1051.98,-38.3209 1055.72,-34.9958 1055.72,-34.9958 1055.72,-34.9958 1051.98,-38.3209 1052.72,-31.635 1048.25,-41.646 1048.25,-41.646"/>
</g>
<!-- Book&#45;&gt;Shelf -->
<g id="edge29" class="edge"><title>Book&#45;&gt;Shelf</title>
<path fill="none" stroke="#c22513" d="M721.69,-179.27C717.802,-177.992 713.847,-176.856 710,-176 597.368,-150.927 565.539,-171.979 451,-158 359.166,-146.792 252.276,-126.06 197.138,-114.788"/>
<polygon fill="#c22513" stroke="#c22513" points="721.705,-179.276 729.585,-186.902 726.408,-180.972 731.111,-182.668 731.111,-182.668 731.111,-182.668 726.408,-180.972 732.638,-178.435 721.705,-179.276 721.705,-179.276"/>
<polygon fill="#c22513" stroke="#c22513" points="196.935,-114.746 188.047,-108.324 192.038,-113.739 187.14,-112.732 187.14,-112.732 187.14,-112.732 192.038,-113.739 186.233,-117.14 196.935,-114.746 196.935,-114.746"/>
</g>
<!-- Book&#45;&gt;Bookshelf -->
<g id="edge28" class="edge"><title>Book&#45;&gt;Bookshelf</title>
<path fill="none" stroke="#b3198d" d="M724.9,-178.325C722.922,-177.495 720.943,-176.711 719,-176 515.186,-101.404 260.997,-48.7679 154.102,-28.373"/>
<ellipse fill="none" stroke="#b3198d" cx="728.799" cy="-180.063" rx="4.00002" ry="4.00002"/>
<polygon fill="#b3198d" stroke="#b3198d" points="154.048,-28.3629 145.062,-22.079 149.136,-27.4316 144.223,-26.5003 144.223,-26.5003 144.223,-26.5003 149.136,-27.4316 143.385,-30.9215 154.048,-28.3629 154.048,-28.3629"/>
</g>
<!-- Book&#45;&gt;Author -->
<g id="edge24" class="edge"><title>Book&#45;&gt;Author</title>
<path fill="none" stroke="#a52fd8" d="M733.408,-169.72C728.116,-160.914 725.126,-150.878 730,-142 734.306,-134.156 741.198,-127.818 748.669,-122.805"/>
<polygon fill="#a52fd8" stroke="#a52fd8" points="733.502,-169.853 735.583,-180.619 736.382,-173.94 739.261,-178.027 739.261,-178.027 739.261,-178.027 736.382,-173.94 742.94,-175.436 733.502,-169.853 733.502,-169.853"/>
<polygon fill="#a52fd8" stroke="#a52fd8" points="748.982,-122.619 759.879,-121.388 753.283,-120.069 757.583,-117.518 757.583,-117.518 757.583,-117.518 753.283,-120.069 755.288,-113.647 748.982,-122.619 748.982,-122.619"/>
</g>
<!-- Book&#45;&gt;Author -->
<g id="edge26" class="edge"><title>Book&#45;&gt;Author</title>
<path fill="none" stroke="#f8736c" d="M747.287,-165.896C746.524,-157.954 746.928,-149.417 750,-142 752.004,-137.162 755.037,-132.644 758.496,-128.568"/>
<polygon fill="#f8736c" stroke="#f8736c" points="747.298,-165.969 744.389,-176.542 748.067,-170.909 748.836,-175.85 748.836,-175.85 748.836,-175.85 748.067,-170.909 753.282,-175.158 747.298,-165.969 747.298,-165.969"/>
<polygon fill="#f8736c" stroke="#f8736c" points="758.564,-128.497 768.749,-124.433 762.038,-124.902 765.513,-121.306 765.513,-121.306 765.513,-121.306 762.038,-124.902 762.277,-118.179 758.564,-128.497 758.564,-128.497"/>
<text text-anchor="middle" x="769" y="-146.3" font-family="Times,serif" font-size="14.00">writers</text>
</g>
<!-- Book&#45;&gt;Author -->
<g id="edge27" class="edge"><title>Book&#45;&gt;Author</title>
<path fill="none" stroke="#213894" d="M778.87,-172.39C782.595,-168.053 785.89,-163.201 788,-158 791.014,-150.571 791.526,-142.03 790.926,-134.088"/>
<polygon fill="#213894" stroke="#213894" points="778.831,-172.43 768.635,-176.467 775.346,-176.017 771.862,-179.603 771.862,-179.603 771.862,-179.603 775.346,-176.017 775.09,-182.739 778.831,-172.43 778.831,-172.43"/>
<polygon fill="#213894" stroke="#213894" points="790.922,-134.052 794.077,-123.55 790.269,-129.095 789.615,-124.138 789.615,-124.138 789.615,-124.138 790.269,-129.095 785.154,-124.725 790.922,-134.052 790.922,-134.052"/>
<text text-anchor="middle" x="824" y="-146.3" font-family="Times,serif" font-size="14.00">contributors</text>
</g>
<!-- Shelf&#45;&gt;Bookshelf -->
<g id="edge33" class="edge"><title>Shelf&#45;&gt;Bookshelf</title>
<path fill="none" stroke="#2b43e5" d="M144.769,-82.0199C137.062,-70.3924 127.689,-56.2506 119.777,-44.312"/>
<ellipse fill="none" stroke="#2b43e5" cx="147.069" cy="-85.4899" rx="4.00002" ry="4.00002"/>
<polygon fill="#2b43e5" stroke="#2b43e5" points="119.587,-44.0254 117.813,-33.2039 116.824,-39.8577 114.062,-35.69 114.062,-35.69 114.062,-35.69 116.824,-39.8577 110.311,-38.1761 119.587,-44.0254 119.587,-44.0254"/>
</g>
<!-- Prize -->
<g id="node14" class="node"><title>Prize</title>
<ellipse fill="none" stroke="black" cx="939" cy="-194" rx="28.3955" ry="18"/>
<text text-anchor="middle" x="939" y="-190.3" font-family="Times,serif" font-size="14.00">Prize</text>
</g>
<!-- Prize&#45;&gt;Award -->
<g id="edge36" class="edge"><title>Prize&#45;&gt;Award</title>
<path fill="none" stroke="#130345" d="M939.288,-167.963C939.658,-135.714 940.301,-79.8488 940.684,-46.4633"/>
<ellipse fill="none" stroke="#130345" cx="939.241" cy="-172" rx="4" ry="4"/>
<polygon fill="#130345" stroke="#130345" points="940.689,-46.069 945.303,-36.1214 940.746,-41.0693 940.804,-36.0697 940.804,-36.0697 940.804,-36.0697 940.746,-41.0693 936.304,-36.0179 940.689,-46.069 940.689,-46.069"/>
</g>
<!-- Prize&#45;&gt;Author -->
<g id="edge37" class="edge"><title>Prize&#45;&gt;Author</title>
<path fill="none" stroke="#3c17c6" d="M926.868,-167.603C921.345,-158.38 914.007,-148.612 905,-142 882.959,-125.818 853.544,-117.086 829.355,-112.391"/>
<polygon fill="#3c17c6" stroke="#3c17c6" points="926.95,-167.751 927.841,-178.68 929.365,-172.128 931.781,-176.506 931.781,-176.506 931.781,-176.506 929.365,-172.128 935.721,-174.332 926.95,-167.751 926.95,-167.751"/>
<polygon fill="#3c17c6" stroke="#3c17c6" points="829.19,-112.362 820.13,-106.185 824.267,-111.489 819.344,-110.616 819.344,-110.616 819.344,-110.616 824.267,-111.489 818.558,-115.047 829.19,-112.362 829.19,-112.362"/>
</g>
<!-- Author&#45;&gt;Award -->
<g id="edge40" class="edge"><title>Author&#45;&gt;Award</title>
<path fill="none" stroke="#b994e6" d="M822.685,-93.6196C839.816,-87.7109 860.006,-79.6888 877,-70 891.202,-61.9025 905.568,-50.7803 917.08,-40.9886"/>
<ellipse fill="none" stroke="#b994e6" cx="818.843" cy="-94.9101" rx="4.00001" ry="4.00001"/>
<polygon fill="#b994e6" stroke="#b994e6" points="917.379,-40.7284 927.873,-37.5478 921.147,-37.4423 924.916,-34.1562 924.916,-34.1562 924.916,-34.1562 921.147,-37.4423 921.958,-30.7645 917.379,-40.7284 917.379,-40.7284"/>
</g>
<!-- Author&#45;&gt;Contribution -->
<g id="edge39" class="edge"><title>Author&#45;&gt;Contribution</title>
<path fill="none" stroke="#b1e7a0" d="M759.088,-86.1727C743.869,-75.7144 723.955,-63.0315 705,-54 687.961,-45.8817 668.54,-38.8407 651.073,-33.2454"/>
<ellipse fill="none" stroke="#b1e7a0" cx="762.447" cy="-88.5135" rx="4.00002" ry="4.00002"/>
<polygon fill="#b1e7a0" stroke="#b1e7a0" points="650.595,-33.0963 642.387,-25.8246 645.821,-31.6086 641.048,-30.1208 641.048,-30.1208 641.048,-30.1208 645.821,-31.6086 639.709,-34.417 650.595,-33.0963 650.595,-33.0963"/>
</g>
<!-- Author&#45;&gt;Impression -->
<g id="edge41" class="edge"><title>Author&#45;&gt;Impression</title>
<path fill="none" stroke="#818895" d="M822.541,-93.7899C874.715,-78.21 969.127,-50.0175 1025.94,-33.0513"/>
<ellipse fill="none" stroke="#818895" cx="818.569" cy="-94.9759" rx="4.00001" ry="4.00001"/>
<polygon fill="#818895" stroke="#818895" points="1026.17,-32.9832 1037.04,-34.4337 1030.96,-31.5525 1035.75,-30.1218 1035.75,-30.1218 1035.75,-30.1218 1030.96,-31.5525 1034.47,-25.81 1026.17,-32.9832 1026.17,-32.9832"/>
</g>
<!-- PgSearch::Document -->
<g id="node19" class="node"><title>PgSearch::Document</title>
<ellipse fill="none" stroke="black" cx="760" cy="-18" rx="85.19" ry="18"/>
<text text-anchor="middle" x="760" y="-14.3" font-family="Times,serif" font-size="14.00">PgSearch::Document</text>
</g>
<!-- Author&#45;&gt;PgSearch::Document -->
<g id="edge42" class="edge"><title>Author&#45;&gt;PgSearch::Document</title>
<path fill="none" stroke="#5ccf7f" d="M766.857,-82.5126C764.471,-78.5416 762.378,-74.2972 761,-70 758.431,-61.9888 757.631,-52.9002 757.641,-44.637"/>
<ellipse fill="none" stroke="#5ccf7f" cx="769.165" cy="-85.9857" rx="4.00002" ry="4.00002"/>
<ellipse fill="#5ccf7f" stroke="#5ccf7f" cx="757.776" cy="-40.4024" rx="4" ry="4"/>
<text text-anchor="middle" x="819" y="-58.3" font-family="Times,serif" font-size="14.00">pg_search_document</text>
</g>
<!-- ActiveRecord::Base -->
<g id="node16" class="node"><title>ActiveRecord::Base</title>
<ellipse fill="none" stroke="black" cx="844" cy="-377" rx="81.3646" ry="18"/>
<text text-anchor="middle" x="844" y="-373.3" font-family="Times,serif" font-size="14.00">ActiveRecord::Base</text>
</g>
<!-- ActiveRecord::Base&#45;&gt;Profile -->
<g id="edge1" class="edge"><title>ActiveRecord::Base&#45;&gt;Profile</title>
<path fill="none" stroke="black" d="M813.739,-360.112C796.45,-351.875 774.076,-342.598 753,-338 695.54,-325.465 275.581,-348.252 224,-320 180.797,-296.337 154.823,-240.546 143.959,-212.19"/>
</g>
<!-- ActiveRecord::Base&#45;&gt;Award -->
<g id="edge2" class="edge"><title>ActiveRecord::Base&#45;&gt;Award</title>
<path fill="none" stroke="black" d="M910,-366.401C989.066,-353.003 1111,-325.459 1111,-283 1111,-283 1111,-283 1111,-105 1111,-73.909 1019.32,-42.1025 970.612,-27.399"/>
</g>
<!-- ActiveRecord::Base&#45;&gt;Follow -->
<g id="edge3" class="edge"><title>ActiveRecord::Base&#45;&gt;Follow</title>
<path fill="none" stroke="black" d="M807.741,-360.712C791.088,-353.728 771.067,-345.385 753,-338 710.906,-320.794 696.702,-323.877 658,-300 618.075,-275.369 621.31,-250.263 579,-230 535.902,-209.36 519.074,-224.675 473,-212 467.157,-210.393 461.016,-208.294 455.236,-206.123"/>
</g>
<!-- ActiveRecord::Base&#45;&gt;Category -->
<g id="edge6" class="edge"><title>ActiveRecord::Base&#45;&gt;Category</title>
<path fill="none" stroke="black" d="M820.352,-359.588C795.107,-342.067 755.471,-314.558 731.205,-297.717"/>
</g>
<!-- ActiveRecord::Base&#45;&gt;Contribution -->
<g id="edge7" class="edge"><title>ActiveRecord::Base&#45;&gt;Contribution</title>
<path fill="none" stroke="black" d="M812.781,-360.273C795.571,-352.298 773.578,-343.22 753,-338 532.536,-282.079 360.606,-414.479 257,-212 194.75,-90.3448 439.116,-40.978 549.005,-25.2014"/>
</g>
<!-- ActiveRecord::Base&#45;&gt;Publisher -->
<g id="edge11" class="edge"><title>ActiveRecord::Base&#45;&gt;Publisher</title>
<path fill="none" stroke="black" d="M882.256,-361.089C908.085,-350.581 942.682,-335.643 972,-320 984.435,-313.366 997.729,-304.986 1008.45,-297.88"/>
</g>
<!-- ActiveRecord::Base&#45;&gt;Impression -->
<g id="edge12" class="edge"><title>ActiveRecord::Base&#45;&gt;Impression</title>
<path fill="none" stroke="black" d="M915.787,-368.472C1006.02,-357.288 1149,-332.108 1149,-283 1149,-283 1149,-283 1149,-105 1149,-72.8813 1118.64,-48.4359 1096.13,-33.9644"/>
</g>
<!-- ActiveRecord::Base&#45;&gt;Impression -->
<g id="edge44" class="edge"><title>ActiveRecord::Base&#45;&gt;Impression</title>
<path fill="none" stroke="black" d="M918.057,-369.631C1013.48,-359.079 1167,-333.885 1167,-283 1167,-283 1167,-283 1167,-105 1167,-71.097 1133.17,-45.7434 1105.94,-31.6452"/>
</g>
<!-- ActiveRecord::Base&#45;&gt;User -->
<g id="edge22" class="edge"><title>ActiveRecord::Base&#45;&gt;User</title>
<path fill="none" stroke="black" d="M812.28,-360.397C795.109,-352.559 773.309,-343.569 753,-338 697.597,-322.807 681.742,-328.986 625,-320 558.453,-309.462 480.387,-295.207 440.815,-287.846"/>
</g>
<!-- ActiveRecord::Base&#45;&gt;Book -->
<g id="edge31" class="edge"><title>ActiveRecord::Base&#45;&gt;Book</title>
<path fill="none" stroke="black" d="M844.097,-358.644C843.537,-335.692 840.104,-294.585 824,-264 811.757,-240.747 788.912,-220.501 772.652,-208.059"/>
</g>
<!-- ActiveRecord::Base&#45;&gt;Place -->
<g id="edge32" class="edge"><title>ActiveRecord::Base&#45;&gt;Place</title>
<path fill="none" stroke="black" d="M865.276,-359.423C878.6,-348.689 895.861,-334.126 910,-320 946.69,-283.342 984.58,-235.218 1003.21,-210.753"/>
</g>
<!-- ActiveRecord::Base&#45;&gt;Shelf -->
<g id="edge34" class="edge"><title>ActiveRecord::Base&#45;&gt;Shelf</title>
<path fill="none" stroke="black" d="M813.739,-360.109C796.451,-351.872 774.077,-342.595 753,-338 625.499,-310.206 274.663,-373.741 167,-300 114.423,-263.988 71.4936,-235.234 95,-176 104.288,-152.596 125.691,-132.521 141.411,-120.155"/>
</g>
<!-- ActiveRecord::Base&#45;&gt;Bookshelf -->
<g id="edge35" class="edge"><title>ActiveRecord::Base&#45;&gt;Bookshelf</title>
<path fill="none" stroke="black" d="M813.741,-360.101C796.453,-351.861 774.079,-342.584 753,-338 633.506,-312.013 324.595,-332.999 203,-320 111.811,-310.251 0,-374.709 0,-283 0,-283 0,-283 0,-105 0,-67.96 39.733,-43.7555 69.8432,-30.7308"/>
</g>
<!-- ActiveRecord::Base&#45;&gt;Prize -->
<g id="edge38" class="edge"><title>ActiveRecord::Base&#45;&gt;Prize</title>
<path fill="none" stroke="black" d="M862.948,-359.408C873.864,-349.004 887.135,-334.795 896,-320 917.233,-284.566 929.866,-237.163 935.495,-212.14"/>
</g>
<!-- ActiveRecord::Base&#45;&gt;Author -->
<g id="edge43" class="edge"><title>ActiveRecord::Base&#45;&gt;Author</title>
<path fill="none" stroke="black" d="M851.618,-359.017C868.775,-317.971 905.593,-211.631 861,-142 851.364,-126.954 833.443,-118.286 817.423,-113.341"/>
</g>
</g>
</svg>
